<svg width="492" height="150" viewBox="0 0 803 181" fill="none" xmlns="http://www.w3.org/2000/svg">
<path d="M245 21H49C49.2768 19.648 49.8175 18.3689 50.5731 17.2104C52.9865 13.5077 57.5886 11 62.8616 11H231.138C236.408 11 241.013 13.5077 243.424 17.2104C244.179 18.3689 244.723 19.648 245 21Z" fill="#565555"/>
<path d="M193.451 69H101.549C100.695 69 100 68.1029 100 67C100 65.8971 100.695 65 101.549 65H193.451C194.305 65 195 65.8971 195 67C195 68.1029 194.305 69 193.451 69Z" fill="#565555"/>
<path d="M244.782 20.6396C244.506 19.3363 243.963 18.1033 243.209 16.9865C240.805 13.4173 236.21 11 230.951 11H63.0485C57.7872 11 53.1954 13.4173 50.7873 16.9865C50.0334 18.1033 49.494 19.3363 49.2177 20.6396C49.0748 21.3047 49 21.9889 49 22.6892V122.311C49 128.757 55.3012 134 63.0485 134H230.951C232.557 134 234.104 133.773 235.543 133.356C241.042 131.772 245 127.419 245 122.311V22.6892C245 21.9916 244.925 21.3047 244.782 20.6396ZM244.35 122.311C244.35 127.951 239.313 132.616 232.778 133.356C232.18 133.424 231.572 133.459 230.951 133.459H83.005C64.5824 133.459 49.6499 121.032 49.6499 105.703V22.6892C49.6499 21.9889 49.7279 21.3047 49.8774 20.6396C50.1699 19.3255 50.7386 18.0952 51.5348 16.9865C53.8713 13.7256 58.1545 11.5408 63.0485 11.5408H230.951C235.846 11.5408 240.129 13.7256 242.465 16.9865C243.261 18.0952 243.83 19.3255 244.123 20.6396C244.272 21.3047 244.35 21.9889 244.35 22.6892V122.311Z" fill="#2CB1BC"/>
<path d="M236.323 69.7626L235.222 66.3884L240.178 64.8546L240.729 67.9221L236.323 69.7626Z" fill="#FFB6B6"/>
<path opacity="0.1" d="M236.323 69.7626L235.222 66.3884L238.141 65.3597L237.234 69.3376L236.323 69.7626Z" fill="black"/>
<path d="M221.814 98.6811C220.867 98.2105 220.817 96.8214 221.702 95.5784C222.09 95.0343 222.592 94.6085 223.114 94.3411L223.634 93.6315L230.209 83.7826C230.209 83.7826 233.088 74.4938 234.26 73.3707C235.431 72.2476 237.126 72.5122 237.126 72.5122L238.629 73.6275L233.265 86.7837L226.646 94.5718L225.759 95.6557C225.726 96.1665 225.518 96.7386 225.131 97.2826C224.246 98.5256 222.761 99.1517 221.814 98.6811Z" fill="#FFB6B6"/>
<path d="M236.052 68.7988C236.052 68.7988 238.144 68.7313 239.463 70.0887C240.783 71.4461 233.87 86.7452 233.87 86.7452L228.239 86.5787L236.052 68.7988Z" fill="#00A89E"/>
<path d="M236.598 66.9252C239.437 66.9252 241.738 65.0025 241.738 62.6307C241.738 60.2589 239.437 58.3362 236.598 58.3362C233.76 58.3362 231.458 60.2589 231.458 62.6307C231.458 65.0025 233.76 66.9252 236.598 66.9252Z" fill="#FFB6B6"/>
<path d="M224.575 124.978L221.087 132.186L219.067 130.499L218.333 127.278L221.27 124.211L224.575 124.978Z" fill="#FFB6B6"/>
<path d="M257.25 122.37L260.738 125.744L259.086 128.505L255.415 128.045L253.579 123.751L257.25 122.37Z" fill="#FFB6B6"/>
<path d="M234.028 82.1093L233.57 88.321L244.951 86.6339L244.217 82.7995L234.028 82.1093Z" fill="#FFB6B6"/>
<path d="M233.478 88.3977L244.951 85.2535C244.951 85.2535 249.173 92.3087 244.584 96.7566C239.995 101.204 224.758 126.511 224.758 126.511L220.169 124.671L226.777 108.566L234.12 93.6891L233.478 88.3977Z" fill="#2F2E41"/>
<path d="M244.584 94.1492L248.99 110.254L258.168 122.677L253.395 124.978L240.545 110.254L236.323 98.9038L244.584 94.1492Z" fill="#2F2E41"/>
<path d="M216.681 126.665H213.502C213.502 126.665 209.792 125.438 208.922 126.665C208.053 127.892 212.802 131.372 212.802 131.372C212.802 131.372 219.434 134.487 220.352 134.333C221.27 134.18 221.637 132.34 221.637 132.34L222.739 130.192L221.087 130.652C221.087 130.652 218.884 129.579 219.434 127.738L216.681 126.665Z" fill="#2F2E41"/>
<path d="M260.004 126.205V124.671L262.138 126.205C262.138 126.205 265.695 127.278 262.941 129.579C260.187 131.879 256.7 134.333 256.7 134.333C256.7 134.333 251.192 135.56 250.825 134.18C250.458 132.8 250.825 132.241 250.825 132.241L252.845 131.419L254.68 127.432L257.617 127.738L260.004 126.205Z" fill="#2F2E41"/>
<path d="M238.159 63.4743L236.507 63.3209L233.478 60.7902C233.478 60.7902 230.724 62.0172 230.724 61.097C230.724 56.8025 233.845 56.9558 236.415 56.6491C238.985 56.3423 238.71 56.2656 239.536 57.416C239.913 57.942 241.28 58.2595 241.28 58.2595C241.28 58.2595 243.85 55.3454 245.135 58.873C246.42 62.4006 244.767 73.2903 246.052 74.2105C247.337 75.1308 240.776 76.0496 241.487 72.446C242.197 68.8424 243.482 63.3209 242.748 62.0939C242.014 60.8669 241.83 61.1736 241.83 61.1736C242.74 60.8632 243.335 66.331 239.904 66.5987L239.811 63.9344C239.811 63.9344 239.26 62.554 238.159 63.4743Z" fill="#2F2E41"/>
<path d="M235.864 68.7657L241.371 66.9252L248.714 85.3302L233.606 84.8704L232.246 79.3771C232.246 79.3771 230.918 76.518 232.019 74.8309C233.121 73.1438 235.864 68.7657 235.864 68.7657Z" fill="#00A89E"/>
<path d="M250.195 99.5964C249.097 99.6752 248.087 98.5709 247.939 97.1298C247.874 96.499 247.985 95.9083 248.223 95.4368L248.15 94.6072L246.62 83.4022C246.62 83.4022 243.773 74.2367 243.941 72.7534C244.11 71.2702 244.376 70.8764 244.376 70.8764L246.375 71.0505L251.197 84.3524L251.253 93.9041L251.289 95.2168C251.619 95.6476 251.849 96.2138 251.914 96.8446C252.062 98.2856 251.292 99.5176 250.195 99.5964Z" fill="#FFB6B6"/>
<path d="M240.912 68.3823C240.912 68.3823 242.565 67.3086 244.584 67.7688C246.603 68.2289 251.661 84.0265 251.661 84.0265L246.97 86.6339L240.912 68.3823Z" fill="#00A89E"/>
<path d="M145.553 95H123.447C122.098 95 121 93.9184 121 92.5891V90.4106C121 89.0813 122.098 88 123.447 88H145.553C146.902 88 148 89.0813 148 90.4106V92.5891C148 93.9184 146.902 95 145.553 95Z" fill="#2CB1BC"/>
<path d="M229.553 35H207.447C206.098 35 205 34.0729 205 32.9335V31.0662C205 29.9268 206.098 29 207.447 29H229.553C230.902 29 232 29.9268 232 31.0662V32.9335C232 34.0729 230.902 35 229.553 35Z" fill="#2CB1BC"/>
<path d="M178.326 95H155.674C154.2 95 153 93.8969 153 92.5412V90.4585C153 89.1028 154.2 88 155.674 88H178.326C179.8 88 181 89.1028 181 90.4585V92.5412C181 93.8969 179.8 95 178.326 95ZM155.674 88.6156C154.569 88.6156 153.67 89.4422 153.67 90.4585V92.5412C153.67 93.5575 154.569 94.3844 155.674 94.3844H178.326C179.431 94.3844 180.33 93.5575 180.33 92.5412V90.4585C180.33 89.4422 179.431 88.6156 178.326 88.6156H155.674Z" fill="#00A89E"/>
<path d="M204.043 60H87.9565C86.8776 60 86 59.3271 86 58.5C86 57.6729 86.8776 57 87.9565 57H204.043C205.122 57 206 57.6729 206 58.5C206 59.3271 205.122 60 204.043 60Z" fill="#565555"/>
<path d="M82.1053 33H67.8947C66.8499 33 66 32.3271 66 31.5C66 30.6729 66.8499 30 67.8947 30H82.1053C83.1501 30 84 30.6729 84 31.5C84 32.3271 83.1501 33 82.1053 33Z" fill="#565555"/>
<path d="M169 33H154C152.897 33 152 32.3271 152 31.5C152 30.6729 152.897 30 154 30H169C170.103 30 171 30.6729 171 31.5C171 32.3271 170.103 33 169 33Z" fill="#565555"/>
<path d="M197.105 33H182.895C181.85 33 181 32.3271 181 31.5C181 30.6729 181.85 30 182.895 30H197.105C198.15 30 199 30.6729 199 31.5C199 32.3271 198.15 33 197.105 33Z" fill="#565555"/>
<path d="M180.029 77H114.971C113.884 77 113 76.3271 113 75.5C113 74.6729 113.884 74 114.971 74H180.029C181.116 74 182 74.6729 182 75.5C182 76.3271 181.116 77 180.029 77Z" fill="#565555"/>
<path d="M181.826 113H112.174C111.527 113 111 112.327 111 111.5C111 110.673 111.527 110 112.174 110H181.826C182.473 110 183 110.673 183 111.5C183 112.327 182.473 113 181.826 113Z" fill="#565555"/>
<path d="M182.81 17H112.19C111.534 17 111 16.5514 111 16C111 15.4486 111.534 15 112.19 15H182.81C183.466 15 184 15.4486 184 16C184 16.5514 183.466 17 182.81 17Z" fill="#565555"/>
<g filter="url(#filter0_d_0_1)">
<path d="M302.906 97.0938L314.25 60.5H323.781L307.719 106H301.375L302.906 97.0938ZM292.438 60.5L303.719 97.0938L305.344 106H298.938L282.938 60.5H292.438ZM324.938 89.4375V88.7812C324.938 86.3021 325.292 84.0208 326 81.9375C326.708 79.8333 327.74 78.0104 329.094 76.4688C330.448 74.9271 332.104 73.7292 334.062 72.875C336.021 72 338.25 71.5625 340.75 71.5625C343.292 71.5625 345.542 72 347.5 72.875C349.479 73.7292 351.146 74.9271 352.5 76.4688C353.854 78.0104 354.885 79.8333 355.594 81.9375C356.302 84.0208 356.656 86.3021 356.656 88.7812V89.4375C356.656 91.8958 356.302 94.1771 355.594 96.2812C354.885 98.3646 353.854 100.188 352.5 101.75C351.146 103.292 349.49 104.49 347.531 105.344C345.573 106.198 343.333 106.625 340.812 106.625C338.312 106.625 336.073 106.198 334.094 105.344C332.115 104.49 330.448 103.292 329.094 101.75C327.74 100.188 326.708 98.3646 326 96.2812C325.292 94.1771 324.938 91.8958 324.938 89.4375ZM333.188 88.7812V89.4375C333.188 90.9167 333.333 92.3021 333.625 93.5938C333.917 94.8854 334.365 96.0208 334.969 97C335.573 97.9792 336.354 98.75 337.312 99.3125C338.292 99.8542 339.458 100.125 340.812 100.125C342.146 100.125 343.292 99.8542 344.25 99.3125C345.208 98.75 345.99 97.9792 346.594 97C347.219 96.0208 347.677 94.8854 347.969 93.5938C348.26 92.3021 348.406 90.9167 348.406 89.4375V88.7812C348.406 87.3229 348.26 85.9583 347.969 84.6875C347.677 83.3958 347.219 82.2604 346.594 81.2812C345.99 80.2812 345.198 79.5 344.219 78.9375C343.26 78.3542 342.104 78.0625 340.75 78.0625C339.417 78.0625 338.271 78.3542 337.312 78.9375C336.354 79.5 335.573 80.2812 334.969 81.2812C334.365 82.2604 333.917 83.3958 333.625 84.6875C333.333 85.9583 333.188 87.3229 333.188 88.7812ZM376.531 100.125C377.698 100.125 378.74 99.8958 379.656 99.4375C380.573 98.9792 381.302 98.3333 381.844 97.5C382.406 96.6667 382.708 95.6979 382.75 94.5938H390.531C390.49 96.8854 389.844 98.9375 388.594 100.75C387.344 102.562 385.677 104 383.594 105.062C381.531 106.104 379.219 106.625 376.656 106.625C374.052 106.625 371.781 106.188 369.844 105.312C367.906 104.438 366.292 103.219 365 101.656C363.729 100.094 362.771 98.2812 362.125 96.2188C361.5 94.1562 361.188 91.9479 361.188 89.5938V88.5938C361.188 86.2396 361.5 84.0312 362.125 81.9688C362.771 79.9062 363.729 78.0938 365 76.5312C366.292 74.9688 367.906 73.75 369.844 72.875C371.781 72 374.042 71.5625 376.625 71.5625C379.354 71.5625 381.75 72.0938 383.812 73.1562C385.896 74.2188 387.521 75.7188 388.688 77.6562C389.875 79.5938 390.49 81.875 390.531 84.5H382.75C382.708 83.2917 382.438 82.2083 381.938 81.25C381.438 80.2917 380.729 79.5208 379.812 78.9375C378.896 78.3542 377.781 78.0625 376.469 78.0625C375.073 78.0625 373.906 78.3542 372.969 78.9375C372.052 79.5208 371.333 80.3229 370.812 81.3438C370.312 82.3438 369.958 83.4688 369.75 84.7188C369.562 85.9479 369.469 87.2396 369.469 88.5938V89.5938C369.469 90.9688 369.562 92.2812 369.75 93.5312C369.958 94.7812 370.312 95.9062 370.812 96.9062C371.333 97.8854 372.052 98.6667 372.969 99.25C373.906 99.8333 375.094 100.125 376.531 100.125ZM414.656 98.8125V83.2188C414.656 82.0729 414.458 81.0833 414.062 80.25C413.667 79.4167 413.062 78.7708 412.25 78.3125C411.438 77.8542 410.406 77.625 409.156 77.625C408.052 77.625 407.083 77.8125 406.25 78.1875C405.438 78.5625 404.812 79.0938 404.375 79.7812C403.938 80.4479 403.719 81.2188 403.719 82.0938H395.438C395.438 80.6979 395.771 79.375 396.438 78.125C397.104 76.8542 398.052 75.7292 399.281 74.75C400.531 73.75 402.021 72.9688 403.75 72.4062C405.5 71.8438 407.458 71.5625 409.625 71.5625C412.188 71.5625 414.469 72 416.469 72.875C418.49 73.7292 420.073 75.0208 421.219 76.75C422.385 78.4792 422.969 80.6562 422.969 83.2812V98.0312C422.969 99.7188 423.073 101.167 423.281 102.375C423.51 103.562 423.844 104.594 424.281 105.469V106H415.875C415.479 105.146 415.177 104.062 414.969 102.75C414.76 101.417 414.656 100.104 414.656 98.8125ZM415.812 85.4062L415.875 90.3125H410.656C409.365 90.3125 408.229 90.4479 407.25 90.7188C406.271 90.9688 405.469 91.3438 404.844 91.8438C404.219 92.3229 403.75 92.9062 403.438 93.5938C403.125 94.2604 402.969 95.0208 402.969 95.875C402.969 96.7083 403.156 97.4583 403.531 98.125C403.927 98.7917 404.49 99.3229 405.219 99.7188C405.969 100.094 406.844 100.281 407.844 100.281C409.302 100.281 410.573 99.9896 411.656 99.4062C412.74 98.8021 413.583 98.0729 414.188 97.2188C414.792 96.3646 415.115 95.5521 415.156 94.7812L417.531 98.3438C417.24 99.1979 416.802 100.104 416.219 101.062C415.635 102.021 414.885 102.917 413.969 103.75C413.052 104.583 411.948 105.271 410.656 105.812C409.365 106.354 407.865 106.625 406.156 106.625C403.969 106.625 402.01 106.188 400.281 105.312C398.552 104.438 397.188 103.24 396.188 101.719C395.188 100.198 394.688 98.4688 394.688 96.5312C394.688 94.7396 395.021 93.1562 395.688 91.7812C396.354 90.4062 397.344 89.25 398.656 88.3125C399.969 87.3542 401.594 86.6354 403.531 86.1562C405.49 85.6562 407.729 85.4062 410.25 85.4062H415.812ZM446.406 72.1875V78.125H427.031V72.1875H446.406ZM432.219 63.875H440.5V96.25C440.5 97.25 440.635 98.0208 440.906 98.5625C441.177 99.1042 441.583 99.4688 442.125 99.6562C442.667 99.8438 443.312 99.9375 444.062 99.9375C444.604 99.9375 445.104 99.9062 445.562 99.8438C446.021 99.7812 446.406 99.7188 446.719 99.6562L446.75 105.844C446.062 106.073 445.281 106.26 444.406 106.406C443.552 106.552 442.583 106.625 441.5 106.625C439.646 106.625 438.021 106.312 436.625 105.688C435.229 105.042 434.146 104.01 433.375 102.594C432.604 101.156 432.219 99.2604 432.219 96.9062V63.875ZM460.656 72.1875V106H452.375V72.1875H460.656ZM451.812 63.3438C451.812 62.1146 452.229 61.0938 453.062 60.2812C453.917 59.4688 455.062 59.0625 456.5 59.0625C457.938 59.0625 459.073 59.4688 459.906 60.2812C460.76 61.0938 461.188 62.1146 461.188 63.3438C461.188 64.5521 460.76 65.5625 459.906 66.375C459.073 67.1875 457.938 67.5938 456.5 67.5938C455.062 67.5938 453.917 67.1875 453.062 66.375C452.229 65.5625 451.812 64.5521 451.812 63.3438ZM467.062 89.4375V88.7812C467.062 86.3021 467.417 84.0208 468.125 81.9375C468.833 79.8333 469.865 78.0104 471.219 76.4688C472.573 74.9271 474.229 73.7292 476.188 72.875C478.146 72 480.375 71.5625 482.875 71.5625C485.417 71.5625 487.667 72 489.625 72.875C491.604 73.7292 493.271 74.9271 494.625 76.4688C495.979 78.0104 497.01 79.8333 497.719 81.9375C498.427 84.0208 498.781 86.3021 498.781 88.7812V89.4375C498.781 91.8958 498.427 94.1771 497.719 96.2812C497.01 98.3646 495.979 100.188 494.625 101.75C493.271 103.292 491.615 104.49 489.656 105.344C487.698 106.198 485.458 106.625 482.938 106.625C480.438 106.625 478.198 106.198 476.219 105.344C474.24 104.49 472.573 103.292 471.219 101.75C469.865 100.188 468.833 98.3646 468.125 96.2812C467.417 94.1771 467.062 91.8958 467.062 89.4375ZM475.312 88.7812V89.4375C475.312 90.9167 475.458 92.3021 475.75 93.5938C476.042 94.8854 476.49 96.0208 477.094 97C477.698 97.9792 478.479 98.75 479.438 99.3125C480.417 99.8542 481.583 100.125 482.938 100.125C484.271 100.125 485.417 99.8542 486.375 99.3125C487.333 98.75 488.115 97.9792 488.719 97C489.344 96.0208 489.802 94.8854 490.094 93.5938C490.385 92.3021 490.531 90.9167 490.531 89.4375V88.7812C490.531 87.3229 490.385 85.9583 490.094 84.6875C489.802 83.3958 489.344 82.2604 488.719 81.2812C488.115 80.2812 487.323 79.5 486.344 78.9375C485.385 78.3542 484.229 78.0625 482.875 78.0625C481.542 78.0625 480.396 78.3542 479.438 78.9375C478.479 79.5 477.698 80.2812 477.094 81.2812C476.49 82.2604 476.042 83.3958 475.75 84.6875C475.458 85.9583 475.312 87.3229 475.312 88.7812ZM512.875 79.4062V106H504.625V72.1875H512.375L512.875 79.4062ZM511.562 87.875H509.125C509.146 85.4167 509.479 83.1875 510.125 81.1875C510.771 79.1875 511.677 77.4688 512.844 76.0312C514.031 74.5938 515.438 73.4896 517.062 72.7188C518.688 71.9479 520.5 71.5625 522.5 71.5625C524.125 71.5625 525.594 71.7917 526.906 72.25C528.219 72.7083 529.344 73.4375 530.281 74.4375C531.24 75.4375 531.969 76.75 532.469 78.375C532.99 79.9792 533.25 81.9583 533.25 84.3125V106H524.938V84.25C524.938 82.7083 524.708 81.4896 524.25 80.5938C523.812 79.6979 523.167 79.0625 522.312 78.6875C521.479 78.3125 520.448 78.125 519.219 78.125C517.948 78.125 516.833 78.3854 515.875 78.9062C514.938 79.4062 514.146 80.1042 513.5 81C512.875 81.8958 512.396 82.9271 512.062 84.0938C511.729 85.2604 511.562 86.5208 511.562 87.875ZM573.094 97.0938L584.438 60.5H593.969L577.906 106H571.562L573.094 97.0938ZM562.625 60.5L573.906 97.0938L575.531 106H569.125L553.125 60.5H562.625ZM606.781 72.1875V106H598.5V72.1875H606.781ZM597.938 63.3438C597.938 62.1146 598.354 61.0938 599.188 60.2812C600.042 59.4688 601.188 59.0625 602.625 59.0625C604.062 59.0625 605.198 59.4688 606.031 60.2812C606.885 61.0938 607.312 62.1146 607.312 63.3438C607.312 64.5521 606.885 65.5625 606.031 66.375C605.198 67.1875 604.062 67.5938 602.625 67.5938C601.188 67.5938 600.042 67.1875 599.188 66.375C598.354 65.5625 597.938 64.5521 597.938 63.3438ZM623.406 58V106H615.125V58H623.406ZM640.031 58V106H631.75V58H640.031ZM666.531 98.8125V83.2188C666.531 82.0729 666.333 81.0833 665.938 80.25C665.542 79.4167 664.938 78.7708 664.125 78.3125C663.312 77.8542 662.281 77.625 661.031 77.625C659.927 77.625 658.958 77.8125 658.125 78.1875C657.312 78.5625 656.688 79.0938 656.25 79.7812C655.812 80.4479 655.594 81.2188 655.594 82.0938H647.312C647.312 80.6979 647.646 79.375 648.312 78.125C648.979 76.8542 649.927 75.7292 651.156 74.75C652.406 73.75 653.896 72.9688 655.625 72.4062C657.375 71.8438 659.333 71.5625 661.5 71.5625C664.062 71.5625 666.344 72 668.344 72.875C670.365 73.7292 671.948 75.0208 673.094 76.75C674.26 78.4792 674.844 80.6562 674.844 83.2812V98.0312C674.844 99.7188 674.948 101.167 675.156 102.375C675.385 103.562 675.719 104.594 676.156 105.469V106H667.75C667.354 105.146 667.052 104.062 666.844 102.75C666.635 101.417 666.531 100.104 666.531 98.8125ZM667.688 85.4062L667.75 90.3125H662.531C661.24 90.3125 660.104 90.4479 659.125 90.7188C658.146 90.9688 657.344 91.3438 656.719 91.8438C656.094 92.3229 655.625 92.9062 655.312 93.5938C655 94.2604 654.844 95.0208 654.844 95.875C654.844 96.7083 655.031 97.4583 655.406 98.125C655.802 98.7917 656.365 99.3229 657.094 99.7188C657.844 100.094 658.719 100.281 659.719 100.281C661.177 100.281 662.448 99.9896 663.531 99.4062C664.615 98.8021 665.458 98.0729 666.062 97.2188C666.667 96.3646 666.99 95.5521 667.031 94.7812L669.406 98.3438C669.115 99.1979 668.677 100.104 668.094 101.062C667.51 102.021 666.76 102.917 665.844 103.75C664.927 104.583 663.823 105.271 662.531 105.812C661.24 106.354 659.74 106.625 658.031 106.625C655.844 106.625 653.885 106.188 652.156 105.312C650.427 104.438 649.062 103.24 648.062 101.719C647.062 100.198 646.562 98.4688 646.562 96.5312C646.562 94.7396 646.896 93.1562 647.562 91.7812C648.229 90.4062 649.219 89.25 650.531 88.3125C651.844 87.3542 653.469 86.6354 655.406 86.1562C657.365 85.6562 659.604 85.4062 662.125 85.4062H667.688ZM703.781 72.1875H711.281V104.969C711.281 108.031 710.615 110.625 709.281 112.75C707.969 114.896 706.125 116.521 703.75 117.625C701.375 118.75 698.615 119.312 695.469 119.312C694.115 119.312 692.646 119.125 691.062 118.75C689.5 118.375 687.99 117.781 686.531 116.969C685.094 116.177 683.896 115.146 682.938 113.875L686.656 109C687.781 110.312 689.052 111.302 690.469 111.969C691.885 112.656 693.417 113 695.062 113C696.729 113 698.146 112.688 699.312 112.062C700.5 111.458 701.406 110.562 702.031 109.375C702.677 108.208 703 106.771 703 105.062V79.9062L703.781 72.1875ZM680.938 89.5V88.8438C680.938 86.2604 681.25 83.9167 681.875 81.8125C682.5 79.6875 683.396 77.8646 684.562 76.3438C685.75 74.8229 687.177 73.6458 688.844 72.8125C690.531 71.9792 692.427 71.5625 694.531 71.5625C696.76 71.5625 698.635 71.9688 700.156 72.7812C701.698 73.5938 702.969 74.75 703.969 76.25C704.99 77.75 705.781 79.5312 706.344 81.5938C706.927 83.6354 707.375 85.8854 707.688 88.3438V90.125C707.396 92.5208 706.927 94.7188 706.281 96.7188C705.656 98.7188 704.823 100.469 703.781 101.969C702.74 103.448 701.448 104.594 699.906 105.406C698.365 106.219 696.552 106.625 694.469 106.625C692.385 106.625 690.51 106.198 688.844 105.344C687.177 104.49 685.75 103.292 684.562 101.75C683.396 100.208 682.5 98.3958 681.875 96.3125C681.25 94.2292 680.938 91.9583 680.938 89.5ZM689.188 88.8438V89.5C689.188 90.9583 689.333 92.3229 689.625 93.5938C689.917 94.8646 690.365 95.9896 690.969 96.9688C691.573 97.9271 692.333 98.6771 693.25 99.2188C694.167 99.7604 695.26 100.031 696.531 100.031C698.24 100.031 699.635 99.6771 700.719 98.9688C701.823 98.2396 702.656 97.25 703.219 96C703.802 94.7292 704.177 93.3021 704.344 91.7188V86.8125C704.24 85.5625 704.01 84.4062 703.656 83.3438C703.323 82.2812 702.854 81.3646 702.25 80.5938C701.646 79.8229 700.875 79.2188 699.938 78.7812C699 78.3438 697.885 78.125 696.594 78.125C695.344 78.125 694.25 78.4062 693.312 78.9688C692.375 79.5104 691.604 80.2708 691 81.25C690.396 82.2292 689.938 83.3646 689.625 84.6562C689.333 85.9479 689.188 87.3438 689.188 88.8438ZM733.906 106.625C731.344 106.625 729.042 106.208 727 105.375C724.958 104.542 723.219 103.385 721.781 101.906C720.365 100.406 719.271 98.6667 718.5 96.6875C717.75 94.6875 717.375 92.5417 717.375 90.25V89C717.375 86.3958 717.75 84.0312 718.5 81.9062C719.25 79.7604 720.312 77.9167 721.688 76.375C723.062 74.8333 724.708 73.6458 726.625 72.8125C728.542 71.9792 730.656 71.5625 732.969 71.5625C735.365 71.5625 737.479 71.9688 739.312 72.7812C741.146 73.5729 742.677 74.6979 743.906 76.1562C745.135 77.6146 746.062 79.3646 746.688 81.4062C747.312 83.4271 747.625 85.6667 747.625 88.125V91.5938H721.125V85.9062H739.5V85.2812C739.458 83.9688 739.208 82.7708 738.75 81.6875C738.292 80.5833 737.583 79.7083 736.625 79.0625C735.667 78.3958 734.427 78.0625 732.906 78.0625C731.677 78.0625 730.604 78.3333 729.688 78.875C728.792 79.3958 728.042 80.1458 727.438 81.125C726.854 82.0833 726.417 83.2292 726.125 84.5625C725.833 85.8958 725.688 87.375 725.688 89V90.25C725.688 91.6667 725.875 92.9792 726.25 94.1875C726.646 95.3958 727.219 96.4479 727.969 97.3438C728.74 98.2188 729.656 98.9062 730.719 99.4062C731.802 99.8854 733.031 100.125 734.406 100.125C736.135 100.125 737.698 99.7917 739.094 99.125C740.51 98.4375 741.74 97.4271 742.781 96.0938L746.938 100.406C746.229 101.448 745.271 102.448 744.062 103.406C742.875 104.365 741.438 105.146 739.75 105.75C738.062 106.333 736.115 106.625 733.906 106.625Z" fill="#2CB1BC"/>
<path d="M302.906 97.0938L301.951 96.7977L301.932 96.86L301.921 96.9243L302.906 97.0938ZM314.25 60.5V59.5H313.513L313.295 60.2039L314.25 60.5ZM323.781 60.5L324.724 60.8329L325.195 59.5H323.781V60.5ZM307.719 106V107H308.426L308.662 106.333L307.719 106ZM301.375 106L300.389 105.831L300.188 107H301.375V106ZM292.438 60.5L293.393 60.2054L293.176 59.5H292.438V60.5ZM303.719 97.0938L304.703 96.9143L304.692 96.8559L304.674 96.7991L303.719 97.0938ZM305.344 106V107H306.543L306.328 105.821L305.344 106ZM298.938 106L297.994 106.332L298.229 107H298.938V106ZM282.938 60.5V59.5H281.526L281.994 60.8317L282.938 60.5ZM303.861 97.3898L315.205 60.7961L313.295 60.2039L301.951 96.7977L303.861 97.3898ZM314.25 61.5H323.781V59.5H314.25V61.5ZM322.838 60.1671L306.776 105.667L308.662 106.333L324.724 60.8329L322.838 60.1671ZM307.719 105H301.375V107H307.719V105ZM302.361 106.169L303.892 97.2632L301.921 96.9243L300.389 105.831L302.361 106.169ZM291.482 60.7946L302.763 97.3884L304.674 96.7991L293.393 60.2054L291.482 60.7946ZM302.735 97.2732L304.36 106.179L306.328 105.821L304.703 96.9143L302.735 97.2732ZM305.344 105H298.938V107H305.344V105ZM299.881 105.668L283.881 60.1683L281.994 60.8317L297.994 106.332L299.881 105.668ZM282.938 61.5H292.438V59.5H282.938V61.5ZM326 81.9375L326.947 82.2594L326.948 82.2565L326 81.9375ZM334.062 72.875L334.462 73.7916L334.47 73.788L334.062 72.875ZM347.5 72.875L347.092 73.7881L347.104 73.7931L347.5 72.875ZM355.594 81.9375L354.646 82.2565L354.647 82.2594L355.594 81.9375ZM355.594 96.2812L356.541 96.6032L356.541 96.6003L355.594 96.2812ZM352.5 101.75L353.251 102.41L353.256 102.405L352.5 101.75ZM329.094 101.75L328.338 102.405L328.342 102.41L329.094 101.75ZM326 96.2812L325.052 96.6003L325.053 96.6032L326 96.2812ZM337.312 99.3125L336.806 100.175L336.817 100.181L336.828 100.188L337.312 99.3125ZM344.25 99.3125L344.742 100.183L344.749 100.179L344.756 100.175L344.25 99.3125ZM346.594 97L345.751 96.462L345.747 96.4684L345.743 96.4749L346.594 97ZM347.969 84.6875L346.993 84.9078L346.994 84.9112L347.969 84.6875ZM346.594 81.2812L345.738 81.7984L345.744 81.8089L345.751 81.8193L346.594 81.2812ZM344.219 78.9375L343.699 79.7917L343.71 79.7983L343.721 79.8046L344.219 78.9375ZM337.312 78.9375L337.819 79.7999L337.826 79.7959L337.832 79.7917L337.312 78.9375ZM334.969 81.2812L335.82 81.8064L335.825 81.7984L334.969 81.2812ZM333.625 84.6875L334.6 84.9112L334.6 84.9078L333.625 84.6875ZM325.938 89.4375V88.7812H323.938V89.4375H325.938ZM325.938 88.7812C325.938 86.3979 326.278 84.2268 326.947 82.2594L325.053 81.6156C324.305 83.8148 323.938 86.2063 323.938 88.7812H325.938ZM326.948 82.2565C327.617 80.2675 328.585 78.5629 329.845 77.1287L328.342 75.8088C326.894 77.4579 325.799 79.3992 325.052 81.6185L326.948 82.2565ZM329.845 77.1287C331.098 75.7019 332.633 74.5895 334.462 73.7916L333.663 71.9584C331.575 72.8688 329.798 74.1522 328.342 75.8088L329.845 77.1287ZM334.47 73.788C336.281 72.9791 338.368 72.5625 340.75 72.5625V70.5625C338.132 70.5625 335.761 71.0209 333.655 71.962L334.47 73.788ZM340.75 72.5625C343.177 72.5625 345.284 72.98 347.092 73.788L347.908 71.962C345.8 71.02 343.407 70.5625 340.75 70.5625V72.5625ZM347.104 73.7931C348.954 74.5916 350.497 75.704 351.749 77.1287L353.251 75.8088C351.794 74.1502 350.004 72.8667 347.896 71.9569L347.104 73.7931ZM351.749 77.1287C353.008 78.5629 353.976 80.2675 354.646 82.2565L356.541 81.6185C355.794 79.3992 354.7 77.4579 353.251 75.8088L351.749 77.1287ZM354.647 82.2594C355.316 84.2268 355.656 86.3979 355.656 88.7812H357.656C357.656 86.2063 357.288 83.8148 356.541 81.6156L354.647 82.2594ZM355.656 88.7812V89.4375H357.656V88.7812H355.656ZM355.656 89.4375C355.656 91.7989 355.316 93.9713 354.646 95.9622L356.541 96.6003C357.288 94.3829 357.656 91.9928 357.656 89.4375H355.656ZM354.647 95.9593C353.978 97.9283 353.009 99.6363 351.744 101.095L353.256 102.405C354.7 100.739 355.793 98.8008 356.541 96.6032L354.647 95.9593ZM351.749 101.09C350.495 102.517 348.961 103.629 347.131 104.427L347.931 106.26C350.018 105.35 351.796 104.067 353.251 102.41L351.749 101.09ZM347.131 104.427C345.32 105.217 343.22 105.625 340.812 105.625V107.625C343.447 107.625 345.826 107.179 347.931 106.26L347.131 104.427ZM340.812 105.625C338.427 105.625 336.326 105.218 334.49 104.426L333.697 106.262C335.82 107.178 338.198 107.625 340.812 107.625V105.625ZM334.49 104.426C332.64 103.627 331.097 102.515 329.845 101.09L328.342 102.41C329.799 104.069 331.589 105.352 333.697 106.262L334.49 104.426ZM329.849 101.095C328.585 99.6363 327.616 97.9283 326.947 95.9593L325.053 96.6032C325.8 98.8008 326.894 100.739 328.338 102.405L329.849 101.095ZM326.948 95.9622C326.278 93.9713 325.938 91.7989 325.938 89.4375H323.938C323.938 91.9928 324.306 94.3829 325.052 96.6003L326.948 95.9622ZM332.188 88.7812V89.4375H334.188V88.7812H332.188ZM332.188 89.4375C332.188 90.9823 332.34 92.4422 332.65 93.814L334.6 93.3735C334.327 92.1619 334.188 90.8511 334.188 89.4375H332.188ZM332.65 93.814C332.962 95.1975 333.448 96.4389 334.118 97.5251L335.82 96.4749C335.282 95.6028 334.871 94.5733 334.6 93.3735L332.65 93.814ZM334.118 97.5251C334.804 98.6381 335.702 99.5268 336.806 100.175L337.819 98.4501C337.006 97.9732 336.341 97.3203 335.82 96.4749L334.118 97.5251ZM336.828 100.188C337.984 100.827 339.324 101.125 340.812 101.125V99.125C339.592 99.125 338.599 98.8816 337.797 98.4375L336.828 100.188ZM340.812 101.125C342.282 101.125 343.605 100.826 344.742 100.183L343.758 98.4419C342.978 98.8825 342.01 99.125 340.812 99.125V101.125ZM344.756 100.175C345.86 99.5268 346.758 98.6381 347.445 97.5251L345.743 96.4749C345.221 97.3203 344.556 97.9732 343.744 98.4501L344.756 100.175ZM347.437 97.538C348.132 96.4488 348.631 95.2029 348.944 93.814L346.993 93.3735C346.724 94.5679 346.306 95.5929 345.751 96.462L347.437 97.538ZM348.944 93.814C349.254 92.4422 349.406 90.9823 349.406 89.4375H347.406C347.406 90.8511 347.267 92.1619 346.993 93.3735L348.944 93.814ZM349.406 89.4375V88.7812H347.406V89.4375H349.406ZM349.406 88.7812C349.406 87.2564 349.254 85.8161 348.943 84.4638L346.994 84.9112C347.267 86.1006 347.406 87.3895 347.406 88.7812H349.406ZM348.944 84.4672C348.631 83.0784 348.132 81.8325 347.437 80.7432L345.751 81.8193C346.306 82.6884 346.724 83.7133 346.993 84.9078L348.944 84.4672ZM347.45 80.7641C346.761 79.6243 345.848 78.7203 344.717 78.0704L343.721 79.8046C344.548 80.2797 345.218 80.9382 345.738 81.7984L347.45 80.7641ZM344.739 78.0833C343.594 77.3866 342.249 77.0625 340.75 77.0625V79.0625C341.959 79.0625 342.927 79.3218 343.699 79.7917L344.739 78.0833ZM340.75 77.0625C339.268 77.0625 337.935 77.388 336.793 78.0833L337.832 79.7917C338.607 79.3204 339.565 79.0625 340.75 79.0625V77.0625ZM336.806 78.0751C335.697 78.7262 334.798 79.6293 334.113 80.7641L335.825 81.7984C336.347 80.9332 337.011 80.2738 337.819 79.7999L336.806 78.0751ZM334.118 80.7561C333.448 81.8424 332.962 83.0838 332.65 84.4672L334.6 84.9078C334.871 83.7079 335.282 82.6785 335.82 81.8064L334.118 80.7561ZM332.65 84.4638C332.34 85.8161 332.188 87.2564 332.188 88.7812H334.188C334.188 87.3895 334.327 86.1006 334.6 84.9112L332.65 84.4638ZM381.844 97.5L381.015 96.9405L381.01 96.9477L381.005 96.955L381.844 97.5ZM382.75 94.5938V93.5938H381.787L381.751 94.556L382.75 94.5938ZM390.531 94.5938L391.531 94.6119L391.55 93.5938H390.531V94.5938ZM383.594 105.062L384.045 105.955L384.048 105.953L383.594 105.062ZM365 101.656L364.224 102.287L364.229 102.293L365 101.656ZM362.125 96.2188L361.168 96.5088L361.171 96.5176L362.125 96.2188ZM362.125 81.9688L361.171 81.6699L361.168 81.6787L362.125 81.9688ZM365 76.5312L364.229 75.8941L364.224 75.9003L365 76.5312ZM383.812 73.1562L383.355 74.0452L383.358 74.0471L383.812 73.1562ZM388.688 77.6562L387.831 78.1721L387.835 78.1788L388.688 77.6562ZM390.531 84.5V85.5H391.547L391.531 84.4841L390.531 84.5ZM382.75 84.5L381.751 84.5345L381.784 85.5H382.75V84.5ZM372.969 78.9375L372.44 78.0884L372.432 78.0938L372.969 78.9375ZM370.812 81.3438L369.922 80.8893L369.918 80.8965L370.812 81.3438ZM369.75 84.7188L368.764 84.5543L368.761 84.568L369.75 84.7188ZM369.75 93.5312L368.761 93.6796L368.762 93.6876L368.764 93.6956L369.75 93.5312ZM370.812 96.9062L369.918 97.3535L369.924 97.3647L369.93 97.3759L370.812 96.9062ZM372.969 99.25L372.432 100.094L372.44 100.099L372.969 99.25ZM376.531 101.125C377.832 101.125 379.03 100.869 380.103 100.332L379.209 98.5431C378.449 98.9229 377.564 99.125 376.531 99.125V101.125ZM380.103 100.332C381.174 99.7966 382.04 99.0323 382.682 98.045L381.005 96.955C380.564 97.6343 379.972 98.1617 379.209 98.5431L380.103 100.332ZM382.673 98.0595C383.35 97.0564 383.701 95.9029 383.749 94.6315L381.751 94.556C381.715 95.4929 381.463 96.2769 381.015 96.9405L382.673 98.0595ZM382.75 95.5938H390.531V93.5938H382.75V95.5938ZM389.531 94.5756C389.493 96.6792 388.904 98.5385 387.771 100.182L389.417 101.318C390.783 99.3365 391.486 97.0916 391.531 94.6119L389.531 94.5756ZM387.771 100.182C386.621 101.85 385.084 103.18 383.139 104.172L384.048 105.953C386.27 104.82 388.067 103.275 389.417 101.318L387.771 100.182ZM383.143 104.17C381.235 105.134 379.079 105.625 376.656 105.625V107.625C379.358 107.625 381.828 107.075 384.045 105.955L383.143 104.17ZM376.656 105.625C374.163 105.625 372.038 105.206 370.255 104.401L369.432 106.224C371.525 107.169 373.941 107.625 376.656 107.625V105.625ZM370.255 104.401C368.45 103.586 366.96 102.458 365.771 101.019L364.229 102.293C365.623 103.979 367.363 105.289 369.432 106.224L370.255 104.401ZM365.776 101.025C364.591 99.5682 363.69 97.8703 363.079 95.9199L361.171 96.5176C361.852 98.6922 362.868 100.619 364.224 102.287L365.776 101.025ZM363.082 95.9287C362.488 93.9685 362.188 91.8587 362.188 89.5938H360.188C360.188 92.0372 360.512 94.344 361.168 96.5088L363.082 95.9287ZM362.188 89.5938V88.5938H360.188V89.5938H362.188ZM362.188 88.5938C362.188 86.3288 362.488 84.219 363.082 82.2588L361.168 81.6787C360.512 83.8435 360.188 86.1503 360.188 88.5938H362.188ZM363.079 82.2676C363.69 80.3172 364.591 78.6193 365.776 77.1622L364.224 75.9003C362.868 77.5682 361.852 79.4953 361.171 81.6699L363.079 82.2676ZM365.771 77.1684C366.96 75.7293 368.45 74.6017 370.255 73.7864L369.432 71.9636C367.363 72.8983 365.623 74.2082 364.229 75.8941L365.771 77.1684ZM370.255 73.7864C372.039 72.981 374.154 72.5625 376.625 72.5625V70.5625C373.93 70.5625 371.524 71.019 369.432 71.9636L370.255 73.7864ZM376.625 72.5625C379.223 72.5625 381.457 73.0675 383.355 74.0452L384.27 72.2673C382.043 71.12 379.485 70.5625 376.625 70.5625V72.5625ZM383.358 74.0471C385.281 75.0277 386.764 76.4004 387.831 78.1721L389.544 77.1404C388.278 75.0371 386.511 73.4098 384.267 72.2654L383.358 74.0471ZM387.835 78.1788C388.915 79.9413 389.492 82.0417 389.531 84.5159L391.531 84.4841C391.487 81.7083 390.835 79.2462 389.54 77.1337L387.835 78.1788ZM390.531 83.5H382.75V85.5H390.531V83.5ZM383.749 84.4655C383.703 83.1257 383.401 81.8932 382.824 80.7874L381.051 81.7126C381.474 82.5235 381.713 83.4576 381.751 84.5345L383.749 84.4655ZM382.824 80.7874C382.243 79.6728 381.413 78.7708 380.349 78.0938L379.276 79.7812C380.045 80.2708 380.632 80.9106 381.051 81.7126L382.824 80.7874ZM380.349 78.0938C379.242 77.3889 377.932 77.0625 376.469 77.0625V79.0625C377.631 79.0625 378.55 79.3194 379.276 79.7812L380.349 78.0938ZM376.469 77.0625C374.935 77.0625 373.573 77.3835 372.44 78.0884L373.497 79.7866C374.239 79.3249 375.211 79.0625 376.469 79.0625V77.0625ZM372.432 78.0938C371.356 78.7783 370.519 79.7185 369.922 80.8893L371.703 81.7982C372.148 80.9273 372.748 80.2634 373.506 79.7812L372.432 78.0938ZM369.918 80.8965C369.368 81.9967 368.986 83.2189 368.764 84.5544L370.736 84.8831C370.93 83.7186 371.257 82.6908 371.707 81.791L369.918 80.8965ZM368.761 84.568C368.566 85.8512 368.469 87.1935 368.469 88.5938H370.469C370.469 87.2856 370.559 86.0446 370.739 84.8695L368.761 84.568ZM368.469 88.5938V89.5938H370.469V88.5938H368.469ZM368.469 89.5938C368.469 91.0141 368.566 92.3764 368.761 93.6796L370.739 93.3829C370.559 92.1861 370.469 90.9234 370.469 89.5938H368.469ZM368.764 93.6956C368.986 95.0311 369.368 96.2533 369.918 97.3535L371.707 96.459C371.257 95.5592 370.93 94.5314 370.736 93.3669L368.764 93.6956ZM369.93 97.3759C370.53 98.5042 371.366 99.4156 372.432 100.094L373.506 98.4063C372.738 97.9177 372.137 97.2666 371.695 96.4366L369.93 97.3759ZM372.44 100.099C373.578 100.807 374.962 101.125 376.531 101.125V99.125C375.225 99.125 374.235 98.86 373.497 98.4009L372.44 100.099ZM406.25 78.1875L405.84 77.2755L405.831 77.2795L406.25 78.1875ZM404.375 79.7812L405.211 80.33L405.219 80.3181L404.375 79.7812ZM403.719 82.0938V83.0938H404.719V82.0938H403.719ZM395.438 82.0938H394.438V83.0938H395.438V82.0938ZM396.438 78.125L397.32 78.5956L397.323 78.5895L396.438 78.125ZM399.281 74.75L399.904 75.5322L399.906 75.5309L399.281 74.75ZM403.75 72.4062L403.444 71.4542L403.441 71.4553L403.75 72.4062ZM416.469 72.875L416.068 73.7912L416.079 73.7961L416.469 72.875ZM421.219 76.75L420.385 77.3024L420.39 77.3093L421.219 76.75ZM423.281 102.375L422.296 102.545L422.297 102.555L422.299 102.564L423.281 102.375ZM424.281 105.469H425.281V105.233L425.176 105.022L424.281 105.469ZM424.281 106V107H425.281V106H424.281ZM415.875 106L414.968 106.42L415.236 107H415.875V106ZM414.969 102.75L413.981 102.904L413.981 102.907L414.969 102.75ZM415.812 85.4062L416.812 85.3935L416.8 84.4062H415.812V85.4062ZM415.875 90.3125V91.3125H416.888L416.875 90.2998L415.875 90.3125ZM407.25 90.7188L407.497 91.6877L407.507 91.6852L407.517 91.6826L407.25 90.7188ZM404.844 91.8438L405.452 92.6374L405.46 92.6311L405.468 92.6246L404.844 91.8438ZM403.438 93.5938L404.343 94.0182L404.348 94.0076L403.438 93.5938ZM403.531 98.125L402.66 98.6153L402.665 98.6255L402.671 98.6355L403.531 98.125ZM405.219 99.7188L404.742 100.598L404.756 100.606L404.772 100.613L405.219 99.7188ZM411.656 99.4062L412.13 100.287L412.137 100.283L412.143 100.28L411.656 99.4062ZM414.188 97.2188L413.371 96.6413L414.188 97.2188ZM415.156 94.7812L415.988 94.2265L414.32 91.7242L414.158 94.7273L415.156 94.7812ZM417.531 98.3438L418.478 98.6669L418.637 98.1998L418.363 97.789L417.531 98.3438ZM395.688 91.7812L394.788 91.345L395.688 91.7812ZM398.656 88.3125L399.238 89.1263L399.246 89.1201L398.656 88.3125ZM403.531 86.1562L403.771 87.127L403.779 87.1252L403.531 86.1562ZM415.656 98.8125V83.2188H413.656V98.8125H415.656ZM415.656 83.2188C415.656 81.9595 415.439 80.8168 414.966 79.8209L413.159 80.6791C413.478 81.3499 413.656 82.1863 413.656 83.2188H415.656ZM414.966 79.8209C414.48 78.7991 413.731 78 412.741 77.4415L411.759 79.1835C412.394 79.5417 412.853 80.0342 413.159 80.6791L414.966 79.8209ZM412.741 77.4415C411.736 76.8747 410.522 76.625 409.156 76.625V78.625C410.29 78.625 411.139 78.8337 411.759 79.1835L412.741 77.4415ZM409.156 76.625C407.94 76.625 406.826 76.8317 405.84 77.2756L406.66 79.0994C407.341 78.7933 408.165 78.625 409.156 78.625V76.625ZM405.831 77.2795C404.862 77.7268 404.082 78.3793 403.531 79.2444L405.219 80.3181C405.543 79.8082 406.013 79.3982 406.669 79.0955L405.831 77.2795ZM403.539 79.2326C402.984 80.078 402.719 81.0435 402.719 82.0938H404.719C404.719 81.394 404.891 80.8178 405.211 80.3299L403.539 79.2326ZM403.719 81.0938H395.438V83.0938H403.719V81.0938ZM396.438 82.0938C396.438 80.8646 396.729 79.703 397.32 78.5956L395.555 77.6544C394.812 79.047 394.438 80.5312 394.438 82.0938H396.438ZM397.323 78.5895C397.919 77.4529 398.773 76.4331 399.904 75.5322L398.658 73.9678C397.331 75.0252 396.289 76.2554 395.552 77.6605L397.323 78.5895ZM399.906 75.5309C401.05 74.6156 402.429 73.8875 404.059 73.3572L403.441 71.4553C401.612 72.05 400.012 72.8844 398.657 73.9691L399.906 75.5309ZM404.056 73.3583C405.691 72.8327 407.544 72.5625 409.625 72.5625V70.5625C407.373 70.5625 405.309 70.8548 403.444 71.4542L404.056 73.3583ZM409.625 72.5625C412.073 72.5625 414.214 72.9802 416.068 73.7912L416.87 71.9588C414.723 71.0198 412.302 70.5625 409.625 70.5625V72.5625ZM416.079 73.7961C417.93 74.5784 419.354 75.7468 420.385 77.3024L422.052 76.1976C420.791 74.2949 419.049 72.88 416.858 71.9539L416.079 73.7961ZM420.39 77.3093C421.419 78.8351 421.969 80.804 421.969 83.2812H423.969C423.969 80.5085 423.352 78.1232 422.048 76.1907L420.39 77.3093ZM421.969 83.2812V98.0312H423.969V83.2812H421.969ZM421.969 98.0312C421.969 99.7561 422.075 101.264 422.296 102.545L424.267 102.205C424.071 101.069 423.969 99.6814 423.969 98.0312H421.969ZM422.299 102.564C422.542 103.821 422.9 104.943 423.387 105.916L425.176 105.022C424.787 104.245 424.479 103.304 424.263 102.186L422.299 102.564ZM423.281 105.469V106H425.281V105.469H423.281ZM424.281 105H415.875V107H424.281V105ZM416.782 105.58C416.438 104.836 416.156 103.849 415.956 102.593L413.981 102.907C414.198 104.276 414.521 105.456 414.968 106.42L416.782 105.58ZM415.957 102.596C415.756 101.311 415.656 100.05 415.656 98.8125H413.656C413.656 100.158 413.765 101.522 413.981 102.904L415.957 102.596ZM414.813 85.419L414.875 90.3252L416.875 90.2998L416.812 85.3935L414.813 85.419ZM415.875 89.3125H410.656V91.3125H415.875V89.3125ZM410.656 89.3125C409.298 89.3125 408.069 89.4546 406.983 89.7549L407.517 91.6826C408.389 91.4412 409.432 91.3125 410.656 91.3125V89.3125ZM407.003 89.7498C405.921 90.0261 404.98 90.454 404.219 91.0629L405.468 92.6246C405.957 92.2335 406.621 91.9114 407.497 91.6877L407.003 89.7498ZM404.235 91.0501C403.486 91.6248 402.911 92.3365 402.527 93.1799L404.348 94.0076C404.589 93.476 404.952 93.0211 405.452 92.6374L404.235 91.0501ZM402.532 93.1693C402.148 93.9885 401.969 94.8975 401.969 95.875H403.969C403.969 95.1441 404.102 94.5324 404.343 94.0182L402.532 93.1693ZM401.969 95.875C401.969 96.8643 402.193 97.7857 402.66 98.6153L404.403 97.6347C404.119 97.1309 403.969 96.5524 403.969 95.875H401.969ZM402.671 98.6355C403.166 99.4681 403.866 100.122 404.742 100.598L405.696 98.8399C405.114 98.5238 404.688 98.1152 404.391 97.6145L402.671 98.6355ZM404.772 100.613C405.685 101.07 406.718 101.281 407.844 101.281V99.2812C406.969 99.2812 406.253 99.1178 405.666 98.8243L404.772 100.613ZM407.844 101.281C409.437 101.281 410.877 100.962 412.13 100.287L411.182 98.5258C410.269 99.0173 409.167 99.2812 407.844 99.2812V101.281ZM412.143 100.28C413.333 99.616 414.299 98.793 415.004 97.7962L413.371 96.6413C412.868 97.3528 412.146 97.9881 411.169 98.5329L412.143 100.28ZM415.004 97.7962C415.679 96.8412 416.1 95.8499 416.155 94.8352L414.158 94.7273C414.129 95.2542 413.904 95.888 413.371 96.6413L415.004 97.7962ZM414.324 95.336L416.699 98.8985L418.363 97.789L415.988 94.2265L414.324 95.336ZM416.585 98.0206C416.322 98.7918 415.919 99.632 415.365 100.543L417.073 101.582C417.685 100.576 418.158 99.604 418.478 98.6669L416.585 98.0206ZM415.365 100.543C414.836 101.411 414.149 102.234 413.296 103.01L414.641 104.49C415.622 103.599 416.435 102.63 417.073 101.582L415.365 100.543ZM413.296 103.01C412.474 103.758 411.47 104.387 410.27 104.89L411.043 106.735C412.426 106.155 413.63 105.409 414.641 104.49L413.296 103.01ZM410.27 104.89C409.124 105.371 407.76 105.625 406.156 105.625V107.625C407.969 107.625 409.605 107.338 411.043 106.735L410.27 104.89ZM406.156 105.625C404.105 105.625 402.305 105.216 400.733 104.42L399.83 106.205C401.716 107.159 403.832 107.625 406.156 107.625V105.625ZM400.733 104.42C399.149 103.619 397.921 102.535 397.023 101.169L395.352 102.268C396.454 103.944 397.955 105.256 399.83 106.205L400.733 104.42ZM397.023 101.169C396.137 99.8224 395.688 98.2867 395.688 96.5312H393.688C393.688 98.6508 394.238 100.573 395.352 102.268L397.023 101.169ZM395.688 96.5312C395.688 94.8648 395.997 93.435 396.587 92.2175L394.788 91.345C394.045 92.8775 393.688 94.6144 393.688 96.5312H395.688ZM396.587 92.2175C397.177 91.0014 398.053 89.9721 399.237 89.1262L398.075 87.4988C396.634 88.5279 395.531 89.8111 394.788 91.345L396.587 92.2175ZM399.246 89.1201C400.433 88.2536 401.932 87.5819 403.771 87.127L403.291 85.1855C401.256 85.6889 399.505 86.4547 398.067 87.5049L399.246 89.1201ZM403.779 87.1252C405.639 86.6502 407.793 86.4062 410.25 86.4062V84.4062C407.665 84.4062 405.34 84.6623 403.284 85.1873L403.779 87.1252ZM410.25 86.4062H415.812V84.4062H410.25V86.4062ZM446.406 72.1875H447.406V71.1875H446.406V72.1875ZM446.406 78.125V79.125H447.406V78.125H446.406ZM427.031 78.125H426.031V79.125H427.031V78.125ZM427.031 72.1875V71.1875H426.031V72.1875H427.031ZM432.219 63.875V62.875H431.219V63.875H432.219ZM440.5 63.875H441.5V62.875H440.5V63.875ZM446.719 99.6562L447.719 99.6512L447.713 98.4377L446.523 98.6757L446.719 99.6562ZM446.75 105.844L447.066 106.792L447.754 106.563L447.75 105.839L446.75 105.844ZM444.406 106.406L444.242 105.42L444.238 105.421L444.406 106.406ZM436.625 105.688L436.205 106.595L436.216 106.6L436.625 105.688ZM433.375 102.594L432.494 103.066L432.497 103.072L433.375 102.594ZM445.406 72.1875V78.125H447.406V72.1875H445.406ZM446.406 77.125H427.031V79.125H446.406V77.125ZM428.031 78.125V72.1875H426.031V78.125H428.031ZM427.031 73.1875H446.406V71.1875H427.031V73.1875ZM432.219 64.875H440.5V62.875H432.219V64.875ZM439.5 63.875V96.25H441.5V63.875H439.5ZM439.5 96.25C439.5 97.3162 439.64 98.267 440.012 99.0097L441.801 98.1153C441.63 97.7747 441.5 97.1838 441.5 96.25H439.5ZM440.012 99.0097C440.392 99.7704 440.994 100.323 441.798 100.601L442.452 98.7113C442.172 98.6144 441.962 98.4379 441.801 98.1153L440.012 99.0097ZM441.798 100.601C442.472 100.834 443.234 100.938 444.062 100.938V98.9375C443.391 98.9375 442.862 98.8531 442.452 98.7113L441.798 100.601ZM444.062 100.938C444.642 100.938 445.188 100.904 445.698 100.835L445.427 98.8529C445.021 98.9084 444.566 98.9375 444.062 98.9375V100.938ZM445.698 100.835C446.168 100.77 446.575 100.705 446.915 100.637L446.523 98.6757C446.237 98.7328 445.874 98.7921 445.427 98.8529L445.698 100.835ZM445.719 99.6613L445.75 105.849L447.75 105.839L447.719 99.6512L445.719 99.6613ZM446.434 104.895C445.805 105.105 445.076 105.281 444.242 105.42L444.571 107.393C445.486 107.24 446.32 107.041 447.066 106.792L446.434 104.895ZM444.238 105.421C443.451 105.555 442.54 105.625 441.5 105.625V107.625C442.626 107.625 443.653 107.549 444.575 107.392L444.238 105.421ZM441.5 105.625C439.757 105.625 438.277 105.331 437.034 104.775L436.216 106.6C437.765 107.294 439.534 107.625 441.5 107.625V105.625ZM437.045 104.78C435.854 104.229 434.927 103.354 434.253 102.116L432.497 103.072C433.365 104.667 434.604 105.854 436.205 106.595L437.045 104.78ZM434.256 102.121C433.59 100.879 433.219 99.1638 433.219 96.9062H431.219C431.219 99.3571 431.618 101.433 432.494 103.066L434.256 102.121ZM433.219 96.9062V63.875H431.219V96.9062H433.219ZM460.656 72.1875H461.656V71.1875H460.656V72.1875ZM460.656 106V107H461.656V106H460.656ZM452.375 106H451.375V107H452.375V106ZM452.375 72.1875V71.1875H451.375V72.1875H452.375ZM453.062 60.2812L452.373 59.5566L452.364 59.5652L453.062 60.2812ZM459.906 60.2812L459.208 60.9973L459.217 61.0058L459.906 60.2812ZM459.906 66.375L459.217 65.6504L459.208 65.659L459.906 66.375ZM453.062 66.375L452.364 67.0911L452.373 67.0996L453.062 66.375ZM459.656 72.1875V106H461.656V72.1875H459.656ZM460.656 105H452.375V107H460.656V105ZM453.375 106V72.1875H451.375V106H453.375ZM452.375 73.1875H460.656V71.1875H452.375V73.1875ZM452.812 63.3438C452.812 62.3673 453.132 61.6101 453.761 60.9973L452.364 59.5652C451.326 60.5774 450.812 61.8619 450.812 63.3438H452.812ZM453.752 61.0058C454.381 60.4073 455.26 60.0625 456.5 60.0625V58.0625C454.865 58.0625 453.452 58.5302 452.373 59.5567L453.752 61.0058ZM456.5 60.0625C457.741 60.0625 458.603 60.4075 459.208 60.9973L460.604 59.5652C459.543 58.53 458.134 58.0625 456.5 58.0625V60.0625ZM459.217 61.0058C459.863 61.6207 460.188 62.3753 460.188 63.3438H462.188C462.188 61.8538 461.657 60.5668 460.595 59.5567L459.217 61.0058ZM460.188 63.3438C460.188 64.2859 459.867 65.032 459.217 65.6504L460.595 67.0996C461.654 66.093 462.188 64.8182 462.188 63.3438H460.188ZM459.208 65.659C458.603 66.2487 457.741 66.5938 456.5 66.5938V68.5938C458.134 68.5938 459.543 68.1263 460.604 67.091L459.208 65.659ZM456.5 66.5938C455.26 66.5938 454.381 66.249 453.752 65.6504L452.373 67.0996C453.452 68.126 454.865 68.5938 456.5 68.5938V66.5938ZM453.761 65.659C453.128 65.0426 452.812 64.294 452.812 63.3438H450.812C450.812 64.8101 451.33 66.0824 452.364 67.091L453.761 65.659ZM468.125 81.9375L469.072 82.2594L469.073 82.2565L468.125 81.9375ZM476.188 72.875L476.587 73.7916L476.595 73.788L476.188 72.875ZM489.625 72.875L489.217 73.7881L489.229 73.7931L489.625 72.875ZM497.719 81.9375L496.771 82.2565L496.772 82.2594L497.719 81.9375ZM497.719 96.2812L498.666 96.6032L498.666 96.6003L497.719 96.2812ZM494.625 101.75L495.376 102.41L495.381 102.405L494.625 101.75ZM471.219 101.75L470.463 102.405L470.467 102.41L471.219 101.75ZM468.125 96.2812L467.177 96.6003L467.178 96.6032L468.125 96.2812ZM479.438 99.3125L478.931 100.175L478.942 100.181L478.953 100.188L479.438 99.3125ZM486.375 99.3125L486.867 100.183L486.874 100.179L486.881 100.175L486.375 99.3125ZM488.719 97L487.876 96.462L487.872 96.4684L487.868 96.4749L488.719 97ZM490.094 84.6875L489.118 84.9078L489.119 84.9112L490.094 84.6875ZM488.719 81.2812L487.863 81.7984L487.869 81.8089L487.876 81.8193L488.719 81.2812ZM486.344 78.9375L485.824 79.7917L485.835 79.7983L485.846 79.8046L486.344 78.9375ZM479.438 78.9375L479.944 79.7999L479.951 79.7959L479.957 79.7917L479.438 78.9375ZM477.094 81.2812L477.945 81.8064L477.95 81.7984L477.094 81.2812ZM475.75 84.6875L476.725 84.9112L476.725 84.9078L475.75 84.6875ZM468.062 89.4375V88.7812H466.062V89.4375H468.062ZM468.062 88.7812C468.062 86.3979 468.403 84.2268 469.072 82.2594L467.178 81.6156C466.43 83.8148 466.062 86.2063 466.062 88.7812H468.062ZM469.073 82.2565C469.742 80.2675 470.71 78.5629 471.97 77.1287L470.467 75.8088C469.019 77.4579 467.924 79.3992 467.177 81.6185L469.073 82.2565ZM471.97 77.1287C473.223 75.7019 474.758 74.5895 476.587 73.7916L475.788 71.9584C473.7 72.8688 471.923 74.1522 470.467 75.8088L471.97 77.1287ZM476.595 73.788C478.406 72.9791 480.493 72.5625 482.875 72.5625V70.5625C480.257 70.5625 477.886 71.0209 475.78 71.962L476.595 73.788ZM482.875 72.5625C485.302 72.5625 487.409 72.98 489.217 73.788L490.033 71.962C487.925 71.02 485.532 70.5625 482.875 70.5625V72.5625ZM489.229 73.7931C491.079 74.5916 492.622 75.704 493.874 77.1287L495.376 75.8088C493.919 74.1502 492.129 72.8667 490.021 71.9569L489.229 73.7931ZM493.874 77.1287C495.133 78.5629 496.101 80.2675 496.771 82.2565L498.666 81.6185C497.919 79.3992 496.825 77.4579 495.376 75.8088L493.874 77.1287ZM496.772 82.2594C497.441 84.2268 497.781 86.3979 497.781 88.7812H499.781C499.781 86.2063 499.413 83.8148 498.666 81.6156L496.772 82.2594ZM497.781 88.7812V89.4375H499.781V88.7812H497.781ZM497.781 89.4375C497.781 91.7989 497.441 93.9713 496.771 95.9622L498.666 96.6003C499.413 94.3829 499.781 91.9928 499.781 89.4375H497.781ZM496.772 95.9593C496.103 97.9283 495.134 99.6363 493.869 101.095L495.381 102.405C496.825 100.739 497.918 98.8008 498.666 96.6032L496.772 95.9593ZM493.874 101.09C492.62 102.517 491.086 103.629 489.256 104.427L490.056 106.26C492.143 105.35 493.921 104.067 495.376 102.41L493.874 101.09ZM489.256 104.427C487.445 105.217 485.345 105.625 482.938 105.625V107.625C485.572 107.625 487.951 107.179 490.056 106.26L489.256 104.427ZM482.938 105.625C480.552 105.625 478.451 105.218 476.615 104.426L475.822 106.262C477.945 107.178 480.323 107.625 482.938 107.625V105.625ZM476.615 104.426C474.765 103.627 473.222 102.515 471.97 101.09L470.467 102.41C471.924 104.069 473.714 105.352 475.822 106.262L476.615 104.426ZM471.974 101.095C470.71 99.6363 469.741 97.9283 469.072 95.9593L467.178 96.6032C467.925 98.8008 469.019 100.739 470.463 102.405L471.974 101.095ZM469.073 95.9622C468.403 93.9713 468.062 91.7989 468.062 89.4375H466.062C466.062 91.9928 466.431 94.3829 467.177 96.6003L469.073 95.9622ZM474.312 88.7812V89.4375H476.312V88.7812H474.312ZM474.312 89.4375C474.312 90.9823 474.465 92.4422 474.775 93.814L476.725 93.3735C476.452 92.1619 476.312 90.8511 476.312 89.4375H474.312ZM474.775 93.814C475.087 95.1975 475.573 96.4389 476.243 97.5251L477.945 96.4749C477.407 95.6028 476.996 94.5733 476.725 93.3735L474.775 93.814ZM476.243 97.5251C476.929 98.6381 477.827 99.5268 478.931 100.175L479.944 98.4501C479.131 97.9732 478.466 97.3203 477.945 96.4749L476.243 97.5251ZM478.953 100.188C480.109 100.827 481.449 101.125 482.938 101.125V99.125C481.717 99.125 480.724 98.8816 479.922 98.4375L478.953 100.188ZM482.938 101.125C484.407 101.125 485.73 100.826 486.867 100.183L485.883 98.4419C485.103 98.8825 484.135 99.125 482.938 99.125V101.125ZM486.881 100.175C487.985 99.5268 488.883 98.6381 489.57 97.5251L487.868 96.4749C487.346 97.3203 486.681 97.9732 485.869 98.4501L486.881 100.175ZM489.562 97.538C490.257 96.4488 490.756 95.2029 491.069 93.814L489.118 93.3735C488.849 94.5679 488.431 95.5929 487.876 96.462L489.562 97.538ZM491.069 93.814C491.379 92.4422 491.531 90.9823 491.531 89.4375H489.531C489.531 90.8511 489.392 92.1619 489.118 93.3735L491.069 93.814ZM491.531 89.4375V88.7812H489.531V89.4375H491.531ZM491.531 88.7812C491.531 87.2564 491.379 85.8161 491.068 84.4638L489.119 84.9112C489.392 86.1006 489.531 87.3895 489.531 88.7812H491.531ZM491.069 84.4672C490.756 83.0784 490.257 81.8325 489.562 80.7432L487.876 81.8193C488.431 82.6884 488.849 83.7133 489.118 84.9078L491.069 84.4672ZM489.575 80.7641C488.886 79.6243 487.973 78.7203 486.842 78.0704L485.846 79.8046C486.673 80.2797 487.343 80.9382 487.863 81.7984L489.575 80.7641ZM486.864 78.0833C485.719 77.3866 484.374 77.0625 482.875 77.0625V79.0625C484.084 79.0625 485.052 79.3218 485.824 79.7917L486.864 78.0833ZM482.875 77.0625C481.393 77.0625 480.06 77.388 478.918 78.0833L479.957 79.7917C480.732 79.3204 481.69 79.0625 482.875 79.0625V77.0625ZM478.931 78.0751C477.822 78.7262 476.923 79.6293 476.238 80.7641L477.95 81.7984C478.472 80.9332 479.136 80.2738 479.944 79.7999L478.931 78.0751ZM476.243 80.7561C475.573 81.8424 475.087 83.0838 474.775 84.4672L476.725 84.9078C476.996 83.7079 477.407 82.6785 477.945 81.8064L476.243 80.7561ZM474.775 84.4638C474.465 85.8161 474.312 87.2564 474.312 88.7812H476.312C476.312 87.3895 476.452 86.1006 476.725 84.9112L474.775 84.4638ZM512.875 79.4062H513.875V79.3717L513.873 79.3372L512.875 79.4062ZM512.875 106V107H513.875V106H512.875ZM504.625 106H503.625V107H504.625V106ZM504.625 72.1875V71.1875H503.625V72.1875H504.625ZM512.375 72.1875L513.373 72.1184L513.308 71.1875H512.375V72.1875ZM511.562 87.875V88.875H512.562V87.875H511.562ZM509.125 87.875L508.125 87.8665L508.116 88.875H509.125V87.875ZM512.844 76.0312L512.073 75.3943L512.067 75.4011L512.844 76.0312ZM530.281 74.4375L529.552 75.1215L529.559 75.1294L530.281 74.4375ZM532.469 78.375L531.513 78.6691L531.515 78.6765L531.518 78.6838L532.469 78.375ZM533.25 106V107H534.25V106H533.25ZM524.938 106H523.938V107H524.938V106ZM524.25 80.5938L523.351 81.0326L523.356 81.0409L523.36 81.0492L524.25 80.5938ZM522.312 78.6875L521.902 79.5995L521.911 79.6031L522.312 78.6875ZM515.875 78.9062L516.346 79.7886L516.353 79.7849L515.875 78.9062ZM513.5 81L512.689 80.4152L512.684 80.4215L512.68 80.4278L513.5 81ZM511.875 79.4062V106H513.875V79.4062H511.875ZM512.875 105H504.625V107H512.875V105ZM505.625 106V72.1875H503.625V106H505.625ZM504.625 73.1875H512.375V71.1875H504.625V73.1875ZM511.377 72.2566L511.877 79.4753L513.873 79.3372L513.373 72.1184L511.377 72.2566ZM511.562 86.875H509.125V88.875H511.562V86.875ZM510.125 87.8835C510.145 85.5098 510.467 83.3834 511.077 81.4948L509.173 80.8802C508.492 82.9916 508.147 85.3235 508.125 87.8665L510.125 87.8835ZM511.077 81.4948C511.69 79.5966 512.541 77.991 513.62 76.6614L512.067 75.4011C510.813 76.9465 509.852 78.7784 509.173 80.8802L511.077 81.4948ZM513.615 76.6681C514.712 75.3392 516.003 74.328 517.491 73.6223L516.634 71.8152C514.872 72.6511 513.35 73.8483 512.073 75.3944L513.615 76.6681ZM517.491 73.6223C518.968 72.9218 520.631 72.5625 522.5 72.5625V70.5625C520.369 70.5625 518.407 70.9741 516.634 71.8152L517.491 73.6223ZM522.5 72.5625C524.031 72.5625 525.386 72.7784 526.577 73.1941L527.236 71.3059C525.801 70.8049 524.219 70.5625 522.5 70.5625V72.5625ZM526.577 73.1941C527.739 73.6 528.726 74.2409 529.552 75.1214L531.011 73.7536C529.961 72.6341 528.698 71.8166 527.236 71.3059L526.577 73.1941ZM529.559 75.1294C530.388 75.9941 531.049 77.1598 531.513 78.6691L533.425 78.0809C532.889 76.3402 532.091 74.8809 531.003 73.7456L529.559 75.1294ZM531.518 78.6838C531.996 80.1574 532.25 82.025 532.25 84.3125H534.25C534.25 81.8917 533.983 79.8009 533.42 78.0662L531.518 78.6838ZM532.25 84.3125V106H534.25V84.3125H532.25ZM533.25 105H524.938V107H533.25V105ZM525.938 106V84.25H523.938V106H525.938ZM525.938 84.25C525.938 82.6266 525.699 81.2304 525.14 80.1383L523.36 81.0492C523.718 81.7488 523.938 82.7901 523.938 84.25H525.938ZM525.149 80.1549C524.615 79.0622 523.801 78.2488 522.714 77.7719L521.911 79.6031C522.532 79.8762 523.01 80.3337 523.351 81.0326L525.149 80.1549ZM522.723 77.7756C521.724 77.3262 520.543 77.125 519.219 77.125V79.125C520.353 79.125 521.234 79.2988 521.902 79.5994L522.723 77.7756ZM519.219 77.125C517.809 77.125 516.525 77.4149 515.397 78.0276L516.353 79.7849C517.142 79.3559 518.087 79.125 519.219 79.125V77.125ZM515.404 78.0239C514.327 78.5986 513.42 79.4005 512.689 80.4152L514.311 81.5848C514.871 80.8078 515.548 80.2139 516.346 79.7886L515.404 78.0239ZM512.68 80.4278C511.985 81.4238 511.461 82.5578 511.101 83.819L513.024 84.3685C513.33 83.2964 513.765 82.3679 514.32 81.5722L512.68 80.4278ZM511.101 83.819C510.739 85.0847 510.562 86.4385 510.562 87.875H512.562C512.562 86.6031 512.719 85.4361 513.024 84.3685L511.101 83.819ZM573.094 97.0938L572.139 96.7977L572.119 96.86L572.108 96.9243L573.094 97.0938ZM584.438 60.5V59.5H583.701L583.482 60.2039L584.438 60.5ZM593.969 60.5L594.912 60.8329L595.382 59.5H593.969V60.5ZM577.906 106V107H578.614L578.849 106.333L577.906 106ZM571.562 106L570.577 105.831L570.376 107H571.562V106ZM562.625 60.5L563.581 60.2054L563.363 59.5H562.625V60.5ZM573.906 97.0938L574.89 96.9143L574.879 96.8559L574.862 96.7991L573.906 97.0938ZM575.531 106V107H576.73L576.515 105.821L575.531 106ZM569.125 106L568.182 106.332L568.417 107H569.125V106ZM553.125 60.5V59.5H551.713L552.182 60.8317L553.125 60.5ZM574.049 97.3898L585.393 60.7961L583.482 60.2039L572.139 96.7977L574.049 97.3898ZM584.438 61.5H593.969V59.5H584.438V61.5ZM593.026 60.1671L576.963 105.667L578.849 106.333L594.912 60.8329L593.026 60.1671ZM577.906 105H571.562V107H577.906V105ZM572.548 106.169L574.079 97.2632L572.108 96.9243L570.577 105.831L572.548 106.169ZM561.669 60.7946L572.951 97.3884L574.862 96.7991L563.581 60.2054L561.669 60.7946ZM572.922 97.2732L574.547 106.179L576.515 105.821L574.89 96.9143L572.922 97.2732ZM575.531 105H569.125V107H575.531V105ZM570.068 105.668L554.068 60.1683L552.182 60.8317L568.182 106.332L570.068 105.668ZM553.125 61.5H562.625V59.5H553.125V61.5ZM606.781 72.1875H607.781V71.1875H606.781V72.1875ZM606.781 106V107H607.781V106H606.781ZM598.5 106H597.5V107H598.5V106ZM598.5 72.1875V71.1875H597.5V72.1875H598.5ZM599.188 60.2812L598.498 59.5566L598.489 59.5652L599.188 60.2812ZM606.031 60.2812L605.333 60.9973L605.342 61.0058L606.031 60.2812ZM606.031 66.375L605.342 65.6504L605.333 65.659L606.031 66.375ZM599.188 66.375L598.489 67.0911L598.498 67.0996L599.188 66.375ZM605.781 72.1875V106H607.781V72.1875H605.781ZM606.781 105H598.5V107H606.781V105ZM599.5 106V72.1875H597.5V106H599.5ZM598.5 73.1875H606.781V71.1875H598.5V73.1875ZM598.938 63.3438C598.938 62.3673 599.257 61.6101 599.886 60.9973L598.489 59.5652C597.451 60.5774 596.938 61.8619 596.938 63.3438H598.938ZM599.877 61.0058C600.506 60.4073 601.385 60.0625 602.625 60.0625V58.0625C600.99 58.0625 599.577 58.5302 598.498 59.5567L599.877 61.0058ZM602.625 60.0625C603.866 60.0625 604.728 60.4075 605.333 60.9973L606.729 59.5652C605.668 58.53 604.259 58.0625 602.625 58.0625V60.0625ZM605.342 61.0058C605.988 61.6207 606.312 62.3753 606.312 63.3438H608.312C608.312 61.8538 607.782 60.5668 606.72 59.5567L605.342 61.0058ZM606.312 63.3438C606.312 64.2859 605.992 65.032 605.342 65.6504L606.72 67.0996C607.779 66.093 608.312 64.8182 608.312 63.3438H606.312ZM605.333 65.659C604.728 66.2487 603.866 66.5938 602.625 66.5938V68.5938C604.259 68.5938 605.668 68.1263 606.729 67.091L605.333 65.659ZM602.625 66.5938C601.385 66.5938 600.506 66.249 599.877 65.6504L598.498 67.0996C599.577 68.126 600.99 68.5938 602.625 68.5938V66.5938ZM599.886 65.659C599.253 65.0426 598.938 64.294 598.938 63.3438H596.938C596.938 64.8101 597.455 66.0824 598.489 67.091L599.886 65.659ZM623.406 58H624.406V57H623.406V58ZM623.406 106V107H624.406V106H623.406ZM615.125 106H614.125V107H615.125V106ZM615.125 58V57H614.125V58H615.125ZM622.406 58V106H624.406V58H622.406ZM623.406 105H615.125V107H623.406V105ZM616.125 106V58H614.125V106H616.125ZM615.125 59H623.406V57H615.125V59ZM640.031 58H641.031V57H640.031V58ZM640.031 106V107H641.031V106H640.031ZM631.75 106H630.75V107H631.75V106ZM631.75 58V57H630.75V58H631.75ZM639.031 58V106H641.031V58H639.031ZM640.031 105H631.75V107H640.031V105ZM632.75 106V58H630.75V106H632.75ZM631.75 59H640.031V57H631.75V59ZM658.125 78.1875L657.715 77.2755L657.706 77.2795L658.125 78.1875ZM656.25 79.7812L657.086 80.33L657.094 80.3181L656.25 79.7812ZM655.594 82.0938V83.0938H656.594V82.0938H655.594ZM647.312 82.0938H646.312V83.0938H647.312V82.0938ZM648.312 78.125L649.195 78.5956L649.198 78.5895L648.312 78.125ZM651.156 74.75L651.779 75.5322L651.781 75.5309L651.156 74.75ZM655.625 72.4062L655.319 71.4542L655.316 71.4553L655.625 72.4062ZM668.344 72.875L667.943 73.7912L667.954 73.7961L668.344 72.875ZM673.094 76.75L672.26 77.3024L672.265 77.3093L673.094 76.75ZM675.156 102.375L674.171 102.545L674.172 102.555L674.174 102.564L675.156 102.375ZM676.156 105.469H677.156V105.233L677.051 105.022L676.156 105.469ZM676.156 106V107H677.156V106H676.156ZM667.75 106L666.843 106.42L667.111 107H667.75V106ZM666.844 102.75L665.856 102.904L665.856 102.907L666.844 102.75ZM667.688 85.4062L668.687 85.3935L668.675 84.4062H667.688V85.4062ZM667.75 90.3125V91.3125H668.763L668.75 90.2998L667.75 90.3125ZM659.125 90.7188L659.372 91.6877L659.382 91.6852L659.392 91.6826L659.125 90.7188ZM656.719 91.8438L657.327 92.6374L657.335 92.6311L657.343 92.6246L656.719 91.8438ZM655.312 93.5938L656.218 94.0182L656.223 94.0076L655.312 93.5938ZM655.406 98.125L654.535 98.6153L654.54 98.6255L654.546 98.6355L655.406 98.125ZM657.094 99.7188L656.617 100.598L656.631 100.606L656.647 100.613L657.094 99.7188ZM663.531 99.4062L664.005 100.287L664.012 100.283L664.018 100.28L663.531 99.4062ZM666.062 97.2188L665.246 96.6413L666.062 97.2188ZM667.031 94.7812L667.863 94.2265L666.195 91.7242L666.033 94.7273L667.031 94.7812ZM669.406 98.3438L670.353 98.6669L670.512 98.1998L670.238 97.789L669.406 98.3438ZM647.562 91.7812L646.663 91.345L647.562 91.7812ZM650.531 88.3125L651.113 89.1263L651.121 89.1201L650.531 88.3125ZM655.406 86.1562L655.646 87.127L655.654 87.1252L655.406 86.1562ZM667.531 98.8125V83.2188H665.531V98.8125H667.531ZM667.531 83.2188C667.531 81.9595 667.314 80.8168 666.841 79.8209L665.034 80.6791C665.353 81.3499 665.531 82.1863 665.531 83.2188H667.531ZM666.841 79.8209C666.355 78.7991 665.606 78 664.616 77.4415L663.634 79.1835C664.269 79.5417 664.728 80.0342 665.034 80.6791L666.841 79.8209ZM664.616 77.4415C663.611 76.8747 662.397 76.625 661.031 76.625V78.625C662.165 78.625 663.014 78.8337 663.634 79.1835L664.616 77.4415ZM661.031 76.625C659.815 76.625 658.701 76.8317 657.715 77.2756L658.535 79.0994C659.216 78.7933 660.04 78.625 661.031 78.625V76.625ZM657.706 77.2795C656.737 77.7268 655.957 78.3793 655.406 79.2444L657.094 80.3181C657.418 79.8082 657.888 79.3982 658.544 79.0955L657.706 77.2795ZM655.414 79.2326C654.859 80.078 654.594 81.0435 654.594 82.0938H656.594C656.594 81.394 656.766 80.8178 657.086 80.3299L655.414 79.2326ZM655.594 81.0938H647.312V83.0938H655.594V81.0938ZM648.312 82.0938C648.312 80.8646 648.604 79.703 649.195 78.5956L647.43 77.6544C646.687 79.047 646.312 80.5312 646.312 82.0938H648.312ZM649.198 78.5895C649.794 77.4529 650.648 76.4331 651.779 75.5322L650.533 73.9678C649.206 75.0252 648.164 76.2554 647.427 77.6605L649.198 78.5895ZM651.781 75.5309C652.925 74.6156 654.304 73.8875 655.934 73.3572L655.316 71.4553C653.487 72.05 651.887 72.8844 650.532 73.9691L651.781 75.5309ZM655.931 73.3583C657.566 72.8327 659.419 72.5625 661.5 72.5625V70.5625C659.248 70.5625 657.184 70.8548 655.319 71.4542L655.931 73.3583ZM661.5 72.5625C663.948 72.5625 666.089 72.9802 667.943 73.7912L668.745 71.9588C666.598 71.0198 664.177 70.5625 661.5 70.5625V72.5625ZM667.954 73.7961C669.805 74.5784 671.229 75.7468 672.26 77.3024L673.927 76.1976C672.666 74.2949 670.924 72.88 668.733 71.9539L667.954 73.7961ZM672.265 77.3093C673.294 78.8351 673.844 80.804 673.844 83.2812H675.844C675.844 80.5085 675.227 78.1232 673.923 76.1907L672.265 77.3093ZM673.844 83.2812V98.0312H675.844V83.2812H673.844ZM673.844 98.0312C673.844 99.7561 673.95 101.264 674.171 102.545L676.142 102.205C675.946 101.069 675.844 99.6814 675.844 98.0312H673.844ZM674.174 102.564C674.417 103.821 674.775 104.943 675.262 105.916L677.051 105.022C676.662 104.245 676.354 103.304 676.138 102.186L674.174 102.564ZM675.156 105.469V106H677.156V105.469H675.156ZM676.156 105H667.75V107H676.156V105ZM668.657 105.58C668.313 104.836 668.031 103.849 667.831 102.593L665.856 102.907C666.073 104.276 666.396 105.456 666.843 106.42L668.657 105.58ZM667.832 102.596C667.631 101.311 667.531 100.05 667.531 98.8125H665.531C665.531 100.158 665.64 101.522 665.856 102.904L667.832 102.596ZM666.688 85.419L666.75 90.3252L668.75 90.2998L668.687 85.3935L666.688 85.419ZM667.75 89.3125H662.531V91.3125H667.75V89.3125ZM662.531 89.3125C661.173 89.3125 659.944 89.4546 658.858 89.7549L659.392 91.6826C660.264 91.4412 661.307 91.3125 662.531 91.3125V89.3125ZM658.878 89.7498C657.796 90.0261 656.855 90.454 656.094 91.0629L657.343 92.6246C657.832 92.2335 658.496 91.9114 659.372 91.6877L658.878 89.7498ZM656.11 91.0501C655.361 91.6248 654.786 92.3365 654.402 93.1799L656.223 94.0076C656.464 93.476 656.827 93.0211 657.327 92.6374L656.11 91.0501ZM654.407 93.1693C654.023 93.9885 653.844 94.8975 653.844 95.875H655.844C655.844 95.1441 655.977 94.5324 656.218 94.0182L654.407 93.1693ZM653.844 95.875C653.844 96.8643 654.068 97.7857 654.535 98.6153L656.278 97.6347C655.994 97.1309 655.844 96.5524 655.844 95.875H653.844ZM654.546 98.6355C655.041 99.4681 655.741 100.122 656.617 100.598L657.571 98.8399C656.989 98.5238 656.563 98.1152 656.266 97.6145L654.546 98.6355ZM656.647 100.613C657.56 101.07 658.593 101.281 659.719 101.281V99.2812C658.844 99.2812 658.128 99.1178 657.541 98.8243L656.647 100.613ZM659.719 101.281C661.312 101.281 662.752 100.962 664.005 100.287L663.057 98.5258C662.144 99.0173 661.042 99.2812 659.719 99.2812V101.281ZM664.018 100.28C665.208 99.616 666.174 98.793 666.879 97.7962L665.246 96.6413C664.743 97.3528 664.021 97.9881 663.044 98.5329L664.018 100.28ZM666.879 97.7962C667.554 96.8412 667.975 95.8499 668.03 94.8352L666.033 94.7273C666.004 95.2542 665.779 95.888 665.246 96.6413L666.879 97.7962ZM666.199 95.336L668.574 98.8985L670.238 97.789L667.863 94.2265L666.199 95.336ZM668.46 98.0206C668.197 98.7918 667.794 99.632 667.24 100.543L668.948 101.582C669.56 100.576 670.033 99.604 670.353 98.6669L668.46 98.0206ZM667.24 100.543C666.711 101.411 666.024 102.234 665.171 103.01L666.516 104.49C667.497 103.599 668.31 102.63 668.948 101.582L667.24 100.543ZM665.171 103.01C664.349 103.758 663.345 104.387 662.145 104.89L662.918 106.735C664.301 106.155 665.505 105.409 666.516 104.49L665.171 103.01ZM662.145 104.89C660.999 105.371 659.635 105.625 658.031 105.625V107.625C659.844 107.625 661.48 107.338 662.918 106.735L662.145 104.89ZM658.031 105.625C655.98 105.625 654.18 105.216 652.608 104.42L651.705 106.205C653.591 107.159 655.707 107.625 658.031 107.625V105.625ZM652.608 104.42C651.024 103.619 649.796 102.535 648.898 101.169L647.227 102.268C648.329 103.944 649.83 105.256 651.705 106.205L652.608 104.42ZM648.898 101.169C648.012 99.8224 647.562 98.2867 647.562 96.5312H645.562C645.562 98.6508 646.113 100.573 647.227 102.268L648.898 101.169ZM647.562 96.5312C647.562 94.8648 647.872 93.435 648.462 92.2175L646.663 91.345C645.92 92.8775 645.562 94.6144 645.562 96.5312H647.562ZM648.462 92.2175C649.052 91.0014 649.928 89.9721 651.112 89.1262L649.95 87.4988C648.509 88.5279 647.406 89.8111 646.663 91.345L648.462 92.2175ZM651.121 89.1201C652.308 88.2536 653.807 87.5819 655.646 87.127L655.166 85.1855C653.131 85.6889 651.38 86.4547 649.942 87.5049L651.121 89.1201ZM655.654 87.1252C657.514 86.6502 659.668 86.4062 662.125 86.4062V84.4062C659.54 84.4062 657.215 84.6623 655.159 85.1873L655.654 87.1252ZM662.125 86.4062H667.688V84.4062H662.125V86.4062ZM703.781 72.1875V71.1875H702.877L702.786 72.0868L703.781 72.1875ZM711.281 72.1875H712.281V71.1875H711.281V72.1875ZM709.281 112.75L708.434 112.218L708.428 112.228L709.281 112.75ZM703.75 117.625L703.328 116.718L703.322 116.721L703.75 117.625ZM691.062 118.75L690.829 119.722L690.832 119.723L691.062 118.75ZM686.531 116.969L687.018 116.095L687.014 116.093L686.531 116.969ZM682.938 113.875L682.142 113.268L681.682 113.872L682.139 114.477L682.938 113.875ZM686.656 109L687.416 108.349L686.611 107.411L685.861 108.393L686.656 109ZM690.469 111.969L690.905 111.069L690.895 111.064L690.469 111.969ZM699.312 112.062L698.859 111.171L698.85 111.176L698.84 111.181L699.312 112.062ZM702.031 109.375L701.156 108.891L701.151 108.9L701.146 108.909L702.031 109.375ZM703 79.9062L702.005 79.8055L702 79.8558V79.9062H703ZM681.875 81.8125L682.834 82.0972L682.834 82.0947L681.875 81.8125ZM684.562 76.3438L683.774 75.7283L683.769 75.7351L684.562 76.3438ZM688.844 72.8125L688.401 71.9159L688.397 71.9181L688.844 72.8125ZM700.156 72.7812L699.685 73.6633L699.69 73.6659L700.156 72.7812ZM703.969 76.25L703.137 76.8047L703.142 76.8126L703.969 76.25ZM706.344 81.5938L705.379 81.8569L705.382 81.8685L706.344 81.5938ZM707.688 88.3438H708.688V88.2804L708.68 88.2176L707.688 88.3438ZM707.688 90.125L708.68 90.2458L708.688 90.1856V90.125H707.688ZM706.281 96.7188L705.33 96.4114L705.327 96.4205L706.281 96.7188ZM703.781 101.969L704.599 102.545L704.603 102.539L703.781 101.969ZM684.562 101.75L683.765 102.353L683.77 102.36L684.562 101.75ZM681.875 96.3125L680.917 96.5998L681.875 96.3125ZM690.969 96.9688L690.118 97.4939L690.123 97.5021L690.969 96.9688ZM700.719 98.9688L701.266 99.8057L701.27 99.8032L700.719 98.9688ZM703.219 96L702.31 95.5828L702.307 95.5896L703.219 96ZM704.344 91.7188L705.338 91.8234L705.344 91.7712V91.7188H704.344ZM704.344 86.8125H705.344V86.7709L705.34 86.7295L704.344 86.8125ZM703.656 83.3438L702.702 83.6431L702.705 83.6516L702.708 83.66L703.656 83.3438ZM693.312 78.9688L693.813 79.8346L693.82 79.8305L693.827 79.8262L693.312 78.9688ZM689.625 84.6562L688.653 84.4211L688.651 84.4285L688.65 84.436L689.625 84.6562ZM703.781 73.1875H711.281V71.1875H703.781V73.1875ZM710.281 72.1875V104.969H712.281V72.1875H710.281ZM710.281 104.969C710.281 107.885 709.648 110.285 708.434 112.219L710.128 113.281C711.582 110.965 712.281 108.178 712.281 104.969H710.281ZM708.428 112.228C707.223 114.199 705.533 115.693 703.328 116.718L704.172 118.532C706.717 117.348 708.715 115.593 710.134 113.272L708.428 112.228ZM703.322 116.721C701.105 117.772 698.495 118.312 695.469 118.312V120.312C698.734 120.312 701.645 119.728 704.178 118.529L703.322 116.721ZM695.469 118.312C694.206 118.312 692.815 118.137 691.293 117.777L690.832 119.723C692.476 120.113 694.023 120.312 695.469 120.312V118.312ZM691.296 117.778C689.825 117.425 688.4 116.865 687.018 116.095L686.045 117.842C687.579 118.697 689.175 119.325 690.829 119.722L691.296 117.778ZM687.014 116.093C685.696 115.367 684.607 114.428 683.736 113.273L682.139 114.477C683.185 115.864 684.492 116.987 686.049 117.845L687.014 116.093ZM683.733 114.482L687.451 109.607L685.861 108.393L682.142 113.268L683.733 114.482ZM685.897 109.651C687.104 111.059 688.486 112.141 690.043 112.874L690.895 111.064C689.618 110.463 688.458 109.566 687.416 108.349L685.897 109.651ZM690.032 112.868C691.591 113.625 693.272 114 695.062 114V112C693.561 112 692.18 111.688 690.905 111.069L690.032 112.868ZM695.062 114C696.852 114 698.44 113.664 699.785 112.944L698.84 111.181C697.852 111.711 696.606 112 695.062 112V114ZM699.766 112.954C701.139 112.255 702.196 111.21 702.916 109.841L701.146 108.909C700.617 109.915 699.861 110.662 698.859 111.171L699.766 112.954ZM702.906 109.859C703.654 108.508 704 106.894 704 105.062H702C702 106.648 701.7 107.908 701.156 108.891L702.906 109.859ZM704 105.062V79.9062H702V105.062H704ZM703.995 80.007L704.776 72.2882L702.786 72.0868L702.005 79.8055L703.995 80.007ZM681.938 89.5V88.8438H679.938V89.5H681.938ZM681.938 88.8438C681.938 86.3403 682.24 84.0943 682.834 82.0972L680.916 81.5278C680.26 83.739 679.938 86.1806 679.938 88.8438H681.938ZM682.834 82.0947C683.43 80.0697 684.275 78.3616 685.356 76.9524L683.769 75.7351C682.517 77.3676 681.57 79.3053 680.916 81.5303L682.834 82.0947ZM685.351 76.9592C686.45 75.5513 687.762 74.4714 689.291 73.7069L688.397 71.9181C686.592 72.8203 685.05 74.0946 683.774 75.7283L685.351 76.9592ZM689.287 73.7091C690.821 72.9515 692.562 72.5625 694.531 72.5625V70.5625C692.292 70.5625 690.242 71.0069 688.401 71.9159L689.287 73.7091ZM694.531 72.5625C696.643 72.5625 698.345 72.9476 699.685 73.6633L700.627 71.8992C698.925 70.9899 696.878 70.5625 694.531 70.5625V72.5625ZM699.69 73.6659C701.079 74.3979 702.226 75.4385 703.137 76.8047L704.801 75.6953C703.712 74.0615 702.317 72.7896 700.622 71.8966L699.69 73.6659ZM703.142 76.8126C704.091 78.2065 704.841 79.8826 705.379 81.8569L707.309 81.3306C706.722 79.1799 705.889 77.2935 704.795 75.6874L703.142 76.8126ZM705.382 81.8685C705.95 83.8542 706.388 86.0537 706.695 88.4699L708.68 88.2176C708.362 85.7172 707.905 83.4166 707.305 81.319L705.382 81.8685ZM706.688 88.3438V90.125H708.688V88.3438H706.688ZM706.695 90.0042C706.41 92.3458 705.953 94.4803 705.33 96.4115L707.233 97.026C707.901 94.9572 708.382 92.6959 708.68 90.2458L706.695 90.0042ZM705.327 96.4205C704.728 98.3375 703.936 99.993 702.96 101.398L704.603 102.539C705.71 100.944 706.585 99.1 707.236 97.017L705.327 96.4205ZM702.964 101.393C702.009 102.748 700.836 103.786 699.44 104.522L700.372 106.291C702.059 105.402 703.47 104.148 704.599 102.545L702.964 101.393ZM699.44 104.522C698.068 105.245 696.421 105.625 694.469 105.625V107.625C696.683 107.625 698.662 107.193 700.372 106.291L699.44 104.522ZM694.469 105.625C692.526 105.625 690.81 105.228 689.3 104.454L688.388 106.234C690.211 107.168 692.245 107.625 694.469 107.625V105.625ZM689.3 104.454C687.77 103.67 686.456 102.569 685.355 101.14L683.77 102.36C685.044 104.014 686.585 105.31 688.388 106.234L689.3 104.454ZM685.36 101.147C684.274 99.711 683.428 98.0086 682.833 96.0252L680.917 96.5998C681.572 98.7831 682.518 100.706 683.765 102.353L685.36 101.147ZM682.833 96.0252C682.239 94.0463 681.938 91.8735 681.938 89.5H679.938C679.938 92.0432 680.261 94.4121 680.917 96.5998L682.833 96.0252ZM688.188 88.8438V89.5H690.188V88.8438H688.188ZM688.188 89.5C688.188 91.0249 688.34 92.4652 688.65 93.8174L690.6 93.3701C690.327 92.1806 690.188 90.8918 690.188 89.5H688.188ZM688.65 93.8174C688.963 95.1808 689.449 96.4102 690.118 97.4939L691.82 96.4436C691.28 95.569 690.87 94.5483 690.6 93.3701L688.65 93.8174ZM690.123 97.5021C690.806 98.586 691.679 99.452 692.741 100.08L693.759 98.3578C692.988 97.9022 692.34 97.2682 691.815 96.4354L690.123 97.5021ZM692.741 100.08C693.839 100.729 695.116 101.031 696.531 101.031V99.0312C695.405 99.0312 694.494 98.7922 693.759 98.3578L692.741 100.08ZM696.531 101.031C698.373 101.031 699.975 100.65 701.266 99.8057L700.172 98.1318C699.295 98.7046 698.106 99.0312 696.531 99.0312V101.031ZM701.27 99.8032C702.538 98.9658 703.493 97.8265 704.131 96.4104L702.307 95.5896C701.819 96.6735 701.108 97.5133 700.168 98.1343L701.27 99.8032ZM704.128 96.4172C704.762 95.0349 705.162 93.5001 705.338 91.8234L703.349 91.6141C703.192 93.104 702.842 94.4234 702.31 95.5828L704.128 96.4172ZM705.344 91.7188V86.8125H703.344V91.7188H705.344ZM705.34 86.7295C705.23 85.4094 704.987 84.174 704.605 83.0275L702.708 83.66C703.034 84.6385 703.249 85.7156 703.347 86.8955L705.34 86.7295ZM704.61 83.0444C704.246 81.8825 703.725 80.8547 703.037 79.9769L701.463 81.2106C701.983 81.8745 702.4 82.68 702.702 83.6431L704.61 83.0444ZM703.037 79.9769C702.33 79.0753 701.432 78.3752 700.36 77.8751L699.515 79.6874C700.318 80.0623 700.961 80.5705 701.463 81.2106L703.037 79.9769ZM700.36 77.8751C699.262 77.3624 697.996 77.125 696.594 77.125V79.125C697.775 79.125 698.738 79.3251 699.515 79.6874L700.36 77.8751ZM696.594 77.125C695.189 77.125 693.912 77.4428 692.798 78.1113L693.827 79.8262C694.588 79.3697 695.499 79.125 696.594 79.125V77.125ZM692.812 78.1029C691.722 78.7325 690.834 79.614 690.149 80.7249L691.851 81.7751C692.374 80.9277 693.028 80.2883 693.813 79.8346L692.812 78.1029ZM690.149 80.7249C689.482 81.8064 688.987 83.0426 688.653 84.4211L690.597 84.8914C690.888 83.6866 691.31 82.6519 691.851 81.7751L690.149 80.7249ZM688.65 84.436C688.34 85.8087 688.188 87.2792 688.188 88.8438H690.188C690.188 87.4083 690.327 86.0871 690.6 84.8765L688.65 84.436ZM721.781 101.906L721.054 102.593L721.059 102.598L721.064 102.603L721.781 101.906ZM718.5 96.6875L717.564 97.0387L717.568 97.0504L718.5 96.6875ZM718.5 81.9062L719.443 82.2391L719.444 82.2362L718.5 81.9062ZM739.312 72.7812L738.907 73.6955L738.916 73.6993L739.312 72.7812ZM746.688 81.4062L745.731 81.699L745.732 81.7017L746.688 81.4062ZM747.625 91.5938V92.5938H748.625V91.5938H747.625ZM721.125 91.5938H720.125V92.5938H721.125V91.5938ZM721.125 85.9062V84.9062H720.125V85.9062H721.125ZM739.5 85.9062V86.9062H740.5V85.9062H739.5ZM739.5 85.2812H740.5V85.2654L740.499 85.2495L739.5 85.2812ZM738.75 81.6875L737.826 82.0709L737.829 82.0771L738.75 81.6875ZM736.625 79.0625L736.054 79.8834L736.06 79.8876L736.066 79.8918L736.625 79.0625ZM729.688 78.875L730.19 79.7395L730.196 79.7359L729.688 78.875ZM727.438 81.125L726.586 80.5999L726.583 80.6051L727.438 81.125ZM726.25 94.1875L725.295 94.4839L725.297 94.4914L725.3 94.4988L726.25 94.1875ZM727.969 97.3438L727.202 97.9857L727.21 97.9953L727.218 98.0048L727.969 97.3438ZM730.719 99.4062L730.293 100.311L730.304 100.316L730.314 100.321L730.719 99.4062ZM739.094 99.125L739.525 100.027L739.53 100.025L739.094 99.125ZM742.781 96.0938L743.501 95.3998L742.702 94.5707L741.993 95.4781L742.781 96.0938ZM746.938 100.406L747.764 100.969L748.221 100.297L747.658 99.7123L746.938 100.406ZM744.062 103.406L743.441 102.623L743.434 102.628L744.062 103.406ZM739.75 105.75L740.077 106.695L740.087 106.691L739.75 105.75ZM733.906 105.625C731.453 105.625 729.282 105.226 727.378 104.449L726.622 106.301C728.802 107.19 731.235 107.625 733.906 107.625V105.625ZM727.378 104.449C725.455 103.664 723.833 102.583 722.498 101.209L721.064 102.603C722.604 104.188 724.462 105.419 726.622 106.301L727.378 104.449ZM722.508 101.22C721.183 99.8161 720.157 98.1873 719.432 96.3246L717.568 97.0504C718.384 99.1461 719.546 100.996 721.054 102.593L722.508 101.22ZM719.436 96.3364C718.731 94.4566 718.375 92.4305 718.375 90.25H716.375C716.375 92.6528 716.769 94.9184 717.564 97.0386L719.436 96.3364ZM718.375 90.25V89H716.375V90.25H718.375ZM718.375 89C718.375 86.4919 718.736 84.242 719.443 82.2391L717.557 81.5734C716.764 83.8205 716.375 86.2998 716.375 89H718.375ZM719.444 82.2362C720.155 80.2017 721.154 78.475 722.434 77.0406L720.941 75.7094C719.471 77.3583 718.345 79.3192 717.556 81.5763L719.444 82.2362ZM722.434 77.0406C723.711 75.6082 725.238 74.5059 727.024 73.7296L726.226 71.8954C724.179 72.7858 722.414 74.0584 720.941 75.7094L722.434 77.0406ZM727.024 73.7296C728.802 72.9565 730.779 72.5625 732.969 72.5625V70.5625C730.534 70.5625 728.282 71.0018 726.226 71.8954L727.024 73.7296ZM732.969 72.5625C735.252 72.5625 737.224 72.9494 738.907 73.6955L739.718 71.867C737.734 70.9881 735.477 70.5625 732.969 70.5625V72.5625ZM738.916 73.6993C740.614 74.4325 742.017 75.4665 743.142 76.8007L744.671 75.5118C743.337 73.9293 741.678 72.7133 739.709 71.8632L738.916 73.6993ZM743.142 76.8007C744.274 78.1443 745.141 79.7708 745.731 81.699L747.644 81.1135C746.984 78.9583 745.997 77.0849 744.671 75.5118L743.142 76.8007ZM745.732 81.7017C746.323 83.6128 746.625 85.751 746.625 88.125H748.625C748.625 85.5824 748.302 83.2414 747.643 81.1108L745.732 81.7017ZM746.625 88.125V91.5938H748.625V88.125H746.625ZM747.625 90.5938H721.125V92.5938H747.625V90.5938ZM722.125 91.5938V85.9062H720.125V91.5938H722.125ZM721.125 86.9062H739.5V84.9062H721.125V86.9062ZM740.5 85.9062V85.2812H738.5V85.9062H740.5ZM740.499 85.2495C740.454 83.8282 740.183 82.5071 739.671 81.2979L737.829 82.0771C738.234 83.0346 738.462 84.1093 738.501 85.313L740.499 85.2495ZM739.674 81.3041C739.143 80.0254 738.311 78.9926 737.184 78.2332L736.066 79.8918C736.856 80.424 737.441 81.1413 737.826 82.0709L739.674 81.3041ZM737.196 78.2416C736.026 77.4276 734.57 77.0625 732.906 77.0625V79.0625C734.284 79.0625 735.307 79.364 736.054 79.8834L737.196 78.2416ZM732.906 77.0625C731.526 77.0625 730.272 77.3681 729.179 78.0141L730.196 79.7359C730.936 79.2986 731.828 79.0625 732.906 79.0625V77.0625ZM729.185 78.0105C728.132 78.6229 727.267 79.4964 726.586 80.5999L728.289 81.6501C728.816 80.7953 729.452 80.1688 730.19 79.7395L729.185 78.0105ZM726.583 80.6051C725.931 81.6759 725.458 82.9299 725.148 84.3488L727.102 84.7762C727.375 83.5284 727.777 82.4907 728.292 81.6449L726.583 80.6051ZM725.148 84.3488C724.839 85.7641 724.688 87.3163 724.688 89H726.688C726.688 87.4337 726.828 86.0275 727.102 84.7762L725.148 84.3488ZM724.688 89V90.25H726.688V89H724.688ZM724.688 90.25C724.688 91.7553 724.887 93.1689 725.295 94.4839L727.205 93.8911C726.863 92.7895 726.688 91.578 726.688 90.25H724.688ZM725.3 94.4988C725.732 95.8173 726.363 96.984 727.202 97.9857L728.736 96.7018C728.074 95.9118 727.56 94.9744 727.2 93.8762L725.3 94.4988ZM727.218 98.0048C728.08 98.9831 729.108 99.7533 730.293 100.311L731.145 98.5014C730.205 98.0592 729.399 97.4544 728.719 96.6827L727.218 98.0048ZM730.314 100.321C731.544 100.865 732.914 101.125 734.406 101.125V99.125C733.148 99.125 732.06 98.9062 731.123 98.4917L730.314 100.321ZM734.406 101.125C736.267 101.125 737.979 100.766 739.525 100.027L738.663 98.2226C737.417 98.8178 736.004 99.125 734.406 99.125V101.125ZM739.53 100.025C741.094 99.2656 742.441 98.1538 743.569 96.7094L741.993 95.4781C741.038 96.7003 739.926 97.6094 738.657 98.2253L739.53 100.025ZM742.061 96.7877L746.217 101.1L747.658 99.7123L743.501 95.3998L742.061 96.7877ZM746.111 99.8439C745.47 100.786 744.587 101.714 743.441 102.623L744.684 104.19C745.954 103.182 746.988 102.11 747.764 100.969L746.111 99.8439ZM743.434 102.628C742.348 103.505 741.013 104.236 739.413 104.809L740.087 106.691C741.862 106.056 743.402 105.224 744.691 104.184L743.434 102.628ZM739.423 104.805C737.862 105.344 736.029 105.625 733.906 105.625V107.625C736.2 107.625 738.263 107.322 740.077 106.695L739.423 104.805Z" fill="#2CB1BC"/>
</g>
<defs>
<filter id="filter0_d_0_1" x="278.938" y="58" width="472.688" height="69.3125" filterUnits="userSpaceOnUse" color-interpolation-filters="sRGB">
<feFlood flood-opacity="0" result="BackgroundImageFix"/>
<feColorMatrix in="SourceAlpha" type="matrix" values="0 0 0 0 0 0 0 0 0 0 0 0 0 0 0 0 0 0 127 0" result="hardAlpha"/>
<feOffset dy="4"/>
<feGaussianBlur stdDeviation="2"/>
<feComposite in2="hardAlpha" operator="out"/>
<feColorMatrix type="matrix" values="0 0 0 0 0 0 0 0 0 0 0 0 0 0 0 0 0 0 0.25 0"/>
<feBlend mode="normal" in2="BackgroundImageFix" result="effect1_dropShadow_0_1"/>
<feBlend mode="normal" in="SourceGraphic" in2="effect1_dropShadow_0_1" result="shape"/>
</filter>
</defs>
</svg>
