<svg width="328" height="100" viewBox="0 0 580 75" fill="none" xmlns="http://www.w3.org/2000/svg">
<g clip-path="url(#clip0_0_1)">
<path d="M85 12H1C1.11864 11.1888 1.35035 10.4213 1.67418 9.72623C2.7085 7.50463 4.68082 6 6.94068 6H79.0593C81.3178 6 83.2915 7.50463 84.3244 9.72623C84.6483 10.4213 84.8814 11.1888 85 12Z" fill="#565555"/>
<path d="M63.3315 36H23.6685C23.2999 36 23 35.5514 23 35C23 34.4486 23.2999 34 23.6685 34H63.3315C63.7001 34 64 34.4486 64 35C64 35.5514 63.7001 36 63.3315 36Z" fill="#565555"/>
<path d="M84.9067 10.859C84.7883 10.202 84.5557 9.58052 84.2326 9.01761C83.202 7.21849 81.2327 6 78.9792 6H7.0208C4.76596 6 2.79802 7.21849 1.766 9.01761C1.44289 9.58052 1.2117 10.202 1.09332 10.859C1.03204 11.1943 1 11.5391 1 11.8921V62.1079C1 65.3572 3.70051 68 7.0208 68H78.9792C79.6672 68 80.3302 67.8855 80.9471 67.6756C83.3036 66.8769 85 64.6825 85 62.1079V11.8921C85 11.5405 84.968 11.1943 84.9067 10.859ZM84.7214 62.1079C84.7214 64.951 82.5627 67.3022 79.7619 67.6756C79.5057 67.7097 79.2452 67.7274 78.9792 67.7274H15.5736C7.67816 67.7274 1.27855 61.4632 1.27855 53.7366V11.8921C1.27855 11.5391 1.31197 11.1943 1.37604 10.859C1.50139 10.1966 1.74512 9.57642 2.08633 9.01761C3.08771 7.37387 4.92334 6.27259 7.0208 6.27259H78.9792C81.0767 6.27259 82.9123 7.37387 83.9137 9.01761C84.2549 9.57642 84.4986 10.1966 84.624 10.859C84.688 11.1943 84.7214 11.5391 84.7214 11.8921V62.1079Z" fill="#2CB1BC"/>
<path d="M81.8531 35.879L81.3777 34.1633L83.517 33.3835L83.7547 34.9432L81.8531 35.879Z" fill="#FFB6B6"/>
<path opacity="0.1" d="M81.8531 35.879L81.3777 34.1633L82.6376 33.6403L82.2462 35.6629L81.8531 35.879Z" fill="black"/>
<path d="M75.5906 50.5832C75.182 50.3439 75.1604 49.6376 75.5424 49.0056C75.7097 48.7289 75.9265 48.5124 76.1518 48.3764L76.3761 48.0156L79.2143 43.0077C79.2143 43.0077 80.4567 38.2847 80.9625 37.7136C81.4683 37.1426 82.1996 37.2771 82.1996 37.2771L82.8482 37.8442L80.5331 44.5337L77.6762 48.4938L77.2933 49.0449C77.2793 49.3046 77.1894 49.5955 77.0222 49.8721C76.6402 50.5041 75.9992 50.8225 75.5906 50.5832Z" fill="#FFB6B6"/>
<path d="M81.7362 35.389C81.7362 35.389 82.6389 35.3546 83.2084 36.0448C83.778 36.735 80.7941 44.5142 80.7941 44.5142L78.3637 44.4295L81.7362 35.389Z" fill="#00A89E"/>
<path d="M81.972 34.4363C83.1973 34.4363 84.1906 33.4586 84.1906 32.2527C84.1906 31.0467 83.1973 30.069 81.972 30.069C80.7467 30.069 79.7534 31.0467 79.7534 32.2527C79.7534 33.4586 80.7467 34.4363 81.972 34.4363Z" fill="#FFB6B6"/>
<path d="M76.7822 63.9541L75.2767 67.6195L74.4051 66.7617L74.0882 65.1239L75.3559 63.5642L76.7822 63.9541Z" fill="#FFB6B6"/>
<path d="M90.8858 62.6284L92.3912 64.3441L91.6781 65.7478L90.0934 65.5139L89.3011 63.3303L90.8858 62.6284Z" fill="#FFB6B6"/>
<path d="M80.8627 42.1569L80.6646 45.3154L85.5771 44.4575L85.2602 42.5079L80.8627 42.1569Z" fill="#FFB6B6"/>
<path d="M80.625 45.3544L85.5771 43.7556C85.5771 43.7556 87.3995 47.343 85.4186 49.6046C83.4378 51.8662 76.8614 64.734 76.8614 64.734L74.8805 63.7981L77.7329 55.6096L80.9023 48.0449L80.625 45.3544Z" fill="#2F2E41"/>
<path d="M85.4186 48.2788L87.3203 56.4674L91.282 62.7843L89.2219 63.9541L83.6755 56.4674L81.8531 50.6964L85.4186 48.2788Z" fill="#2F2E41"/>
<path d="M73.3751 64.812H72.0028C72.0028 64.812 70.4016 64.1881 70.0264 64.812C69.6511 65.4359 71.7007 67.2053 71.7007 67.2053C71.7007 67.2053 74.5636 68.7893 74.9598 68.7113C75.3559 68.6333 75.5144 67.6975 75.5144 67.6975L75.9898 66.6057L75.2767 66.8396C75.2767 66.8396 74.3259 66.2937 74.5636 65.3579L73.3751 64.812Z" fill="#2F2E41"/>
<path d="M92.0743 64.578V63.7982L92.9955 64.578C92.9955 64.578 94.5306 65.1239 93.3421 66.2937C92.1535 67.4635 90.6481 68.7113 90.6481 68.7113C90.6481 68.7113 88.2711 69.3352 88.1126 68.6333C87.9541 67.9315 88.1126 67.6475 88.1126 67.6475L88.9842 67.2296L89.7765 65.2019L91.0443 65.3579L92.0743 64.578Z" fill="#2F2E41"/>
<path d="M82.6454 32.6816L81.9323 32.6036L80.625 31.3168C80.625 31.3168 79.4365 31.9407 79.4365 31.4728C79.4365 29.2892 80.7834 29.3672 81.8927 29.2112C83.002 29.0552 82.8831 29.0162 83.2397 29.6011C83.4027 29.8686 83.9924 30.03 83.9924 30.03C83.9924 30.03 85.1017 28.5483 85.6563 30.342C86.211 32.1357 85.4979 37.6727 86.0525 38.1406C86.6071 38.6086 83.7752 39.0758 84.0819 37.2434C84.3886 35.4111 84.9432 32.6036 84.6263 31.9797C84.3094 31.3558 84.2301 31.5118 84.2301 31.5118C84.6229 31.3539 84.8795 34.1341 83.3986 34.2703L83.3585 32.9155C83.3585 32.9155 83.1208 32.2137 82.6454 32.6816Z" fill="#2F2E41"/>
<path d="M81.655 35.3721L84.032 34.4363L87.2014 43.7947L80.6804 43.5609L80.0933 40.7677C80.0933 40.7677 79.52 39.3139 79.9954 38.4561C80.4708 37.5982 81.655 35.3721 81.655 35.3721Z" fill="#00A89E"/>
<path d="M87.8404 51.0486C87.3667 51.0886 86.9308 50.5271 86.8669 49.7944C86.8389 49.4737 86.8869 49.1733 86.9893 48.9336L86.9579 48.5117L86.2977 42.8143C86.2977 42.8143 85.0686 38.154 85.1413 37.3997C85.2141 36.6455 85.3289 36.4453 85.3289 36.4453L86.1918 36.5339L88.273 43.2974L88.2973 48.1542L88.3127 48.8217C88.4552 49.0407 88.5544 49.3286 88.5824 49.6494C88.6464 50.3821 88.3142 51.0085 87.8404 51.0486Z" fill="#FFB6B6"/>
<path d="M83.834 35.1771C83.834 35.1771 84.5471 34.6312 85.4187 34.8652C86.2902 35.0991 88.4735 43.1318 88.4735 43.1318L86.4487 44.4575L83.834 35.1771Z" fill="#00A89E"/>
<path d="M42.9125 49H33.0875C32.4879 49 32 48.382 32 47.6224V46.3775C32 45.6179 32.4879 45 33.0875 45H42.9125C43.5121 45 44 45.6179 44 46.3775V47.6224C44 48.382 43.5121 49 42.9125 49Z" fill="#2CB1BC"/>
<path d="M79.0032 18H69.9968C69.4472 18 69 17.5365 69 16.9668V16.0331C69 15.4634 69.4472 15 69.9968 15H79.0032C79.5528 15 80 15.4634 80 16.0331V16.9668C80 17.5365 79.5528 18 79.0032 18Z" fill="#2CB1BC"/>
<path d="M56.8538 49H47.1462C46.5142 49 46 48.3696 46 47.595V46.4048C46 45.6302 46.5142 45 47.1462 45H56.8538C57.4858 45 58 45.6302 58 46.4048V47.595C58 48.3696 57.4858 49 56.8538 49ZM47.1462 45.3518C46.6724 45.3518 46.287 45.8241 46.287 46.4048V47.595C46.287 48.1757 46.6724 48.6482 47.1462 48.6482H56.8538C57.3276 48.6482 57.713 48.1757 57.713 47.595V46.4048C57.713 45.8241 57.3276 45.3518 56.8538 45.3518H47.1462Z" fill="#00A89E"/>
<path d="M68.1522 31H17.8478C17.3803 31 17 30.5514 17 30C17 29.4486 17.3803 29 17.8478 29H68.1522C68.6197 29 69 29.4486 69 30C69 30.5514 68.6197 31 68.1522 31Z" fill="#565555"/>
<path d="M15.2632 26.25H9.73684C9.33052 26.25 9 26.0818 9 25.875C9 25.6682 9.33052 25.5 9.73684 25.5H15.2632C15.6695 25.5 16 25.6682 16 25.875C16 26.0818 15.6695 26.25 15.2632 26.25Z" fill="#565555"/>
<path d="M52.2632 16H46.7368C46.3305 16 46 15.7757 46 15.5C46 15.2243 46.3305 15 46.7368 15H52.2632C52.6695 15 53 15.2243 53 15.5C53 15.7757 52.6695 16 52.2632 16Z" fill="#565555"/>
<path d="M65.1579 16H58.8421C58.3777 16 58 15.7757 58 15.5C58 15.2243 58.3777 15 58.8421 15H65.1579C65.6223 15 66 15.2243 66 15.5C66 15.7757 65.6223 16 65.1579 16Z" fill="#565555"/>
<path d="M58.1143 39H28.8857C28.3973 39 28 38.7757 28 38.5C28 38.2243 28.3973 38 28.8857 38H58.1143C58.6027 38 59 38.2243 59 38.5C59 38.7757 58.6027 39 58.1143 39Z" fill="#565555"/>
<path d="M58.4946 59H28.5054C28.2267 59 28 58.5514 28 58C28 57.4486 28.2267 57 28.5054 57H58.4946C58.7733 57 59 57.4486 59 58C59 58.5514 58.7733 59 58.4946 59Z" fill="#565555"/>
<path d="M58.4946 9H28.5054C28.2267 9 28 8.77572 28 8.5C28 8.22428 28.2267 8 28.5054 8H58.4946C58.7733 8 59 8.22428 59 8.5C59 8.77572 58.7733 9 58.4946 9Z" fill="#565555"/>
<g filter="url(#filter0_d_0_1)">
<path d="M126.906 50.0551L138.25 13.4613H147.781L131.719 58.9613H125.375L126.906 50.0551ZM116.438 13.4613L127.719 50.0551L129.344 58.9613H122.938L106.938 13.4613H116.438ZM148.938 42.3988V41.7426C148.938 39.2634 149.292 36.9822 150 34.8988C150.708 32.7947 151.74 30.9718 153.094 29.4301C154.448 27.8884 156.104 26.6905 158.062 25.8363C160.021 24.9613 162.25 24.5238 164.75 24.5238C167.292 24.5238 169.542 24.9613 171.5 25.8363C173.479 26.6905 175.146 27.8884 176.5 29.4301C177.854 30.9718 178.885 32.7947 179.594 34.8988C180.302 36.9822 180.656 39.2634 180.656 41.7426V42.3988C180.656 44.8572 180.302 47.1384 179.594 49.2426C178.885 51.3259 177.854 53.1488 176.5 54.7113C175.146 56.253 173.49 57.4509 171.531 58.3051C169.573 59.1593 167.333 59.5863 164.812 59.5863C162.312 59.5863 160.073 59.1593 158.094 58.3051C156.115 57.4509 154.448 56.253 153.094 54.7113C151.74 53.1488 150.708 51.3259 150 49.2426C149.292 47.1384 148.938 44.8572 148.938 42.3988ZM157.188 41.7426V42.3988C157.188 43.878 157.333 45.2634 157.625 46.5551C157.917 47.8468 158.365 48.9822 158.969 49.9613C159.573 50.9405 160.354 51.7113 161.312 52.2738C162.292 52.8155 163.458 53.0863 164.812 53.0863C166.146 53.0863 167.292 52.8155 168.25 52.2738C169.208 51.7113 169.99 50.9405 170.594 49.9613C171.219 48.9822 171.677 47.8468 171.969 46.5551C172.26 45.2634 172.406 43.878 172.406 42.3988V41.7426C172.406 40.2843 172.26 38.9197 171.969 37.6488C171.677 36.3572 171.219 35.2218 170.594 34.2426C169.99 33.2426 169.198 32.4613 168.219 31.8988C167.26 31.3155 166.104 31.0238 164.75 31.0238C163.417 31.0238 162.271 31.3155 161.312 31.8988C160.354 32.4613 159.573 33.2426 158.969 34.2426C158.365 35.2218 157.917 36.3572 157.625 37.6488C157.333 38.9197 157.188 40.2843 157.188 41.7426ZM200.531 53.0863C201.698 53.0863 202.74 52.8572 203.656 52.3988C204.573 51.9405 205.302 51.2947 205.844 50.4613C206.406 49.628 206.708 48.6593 206.75 47.5551H214.531C214.49 49.8468 213.844 51.8988 212.594 53.7113C211.344 55.5238 209.677 56.9613 207.594 58.0238C205.531 59.0655 203.219 59.5863 200.656 59.5863C198.052 59.5863 195.781 59.1488 193.844 58.2738C191.906 57.3988 190.292 56.1801 189 54.6176C187.729 53.0551 186.771 51.2426 186.125 49.1801C185.5 47.1176 185.188 44.9093 185.188 42.5551V41.5551C185.188 39.2009 185.5 36.9926 186.125 34.9301C186.771 32.8676 187.729 31.0551 189 29.4926C190.292 27.9301 191.906 26.7113 193.844 25.8363C195.781 24.9613 198.042 24.5238 200.625 24.5238C203.354 24.5238 205.75 25.0551 207.812 26.1176C209.896 27.1801 211.521 28.6801 212.688 30.6176C213.875 32.5551 214.49 34.8363 214.531 37.4613H206.75C206.708 36.253 206.438 35.1697 205.938 34.2113C205.438 33.253 204.729 32.4822 203.812 31.8988C202.896 31.3155 201.781 31.0238 200.469 31.0238C199.073 31.0238 197.906 31.3155 196.969 31.8988C196.052 32.4822 195.333 33.2843 194.812 34.3051C194.312 35.3051 193.958 36.4301 193.75 37.6801C193.562 38.9093 193.469 40.2009 193.469 41.5551V42.5551C193.469 43.9301 193.562 45.2426 193.75 46.4926C193.958 47.7426 194.312 48.8676 194.812 49.8676C195.333 50.8468 196.052 51.628 196.969 52.2113C197.906 52.7947 199.094 53.0863 200.531 53.0863ZM238.656 51.7738V36.1801C238.656 35.0343 238.458 34.0447 238.062 33.2113C237.667 32.378 237.062 31.7322 236.25 31.2738C235.438 30.8155 234.406 30.5863 233.156 30.5863C232.052 30.5863 231.083 30.7738 230.25 31.1488C229.438 31.5238 228.812 32.0551 228.375 32.7426C227.938 33.4093 227.719 34.1801 227.719 35.0551H219.438C219.438 33.6593 219.771 32.3363 220.438 31.0863C221.104 29.8155 222.052 28.6905 223.281 27.7113C224.531 26.7113 226.021 25.9301 227.75 25.3676C229.5 24.8051 231.458 24.5238 233.625 24.5238C236.188 24.5238 238.469 24.9613 240.469 25.8363C242.49 26.6905 244.073 27.9822 245.219 29.7113C246.385 31.4405 246.969 33.6176 246.969 36.2426V50.9926C246.969 52.6801 247.073 54.128 247.281 55.3363C247.51 56.5238 247.844 57.5551 248.281 58.4301V58.9613H239.875C239.479 58.1072 239.177 57.0238 238.969 55.7113C238.76 54.378 238.656 53.0655 238.656 51.7738ZM239.812 38.3676L239.875 43.2738H234.656C233.365 43.2738 232.229 43.4093 231.25 43.6801C230.271 43.9301 229.469 44.3051 228.844 44.8051C228.219 45.2843 227.75 45.8676 227.438 46.5551C227.125 47.2218 226.969 47.9822 226.969 48.8363C226.969 49.6697 227.156 50.4197 227.531 51.0863C227.927 51.753 228.49 52.2843 229.219 52.6801C229.969 53.0551 230.844 53.2426 231.844 53.2426C233.302 53.2426 234.573 52.9509 235.656 52.3676C236.74 51.7634 237.583 51.0343 238.188 50.1801C238.792 49.3259 239.115 48.5134 239.156 47.7426L241.531 51.3051C241.24 52.1593 240.802 53.0655 240.219 54.0238C239.635 54.9822 238.885 55.878 237.969 56.7113C237.052 57.5447 235.948 58.2322 234.656 58.7738C233.365 59.3155 231.865 59.5863 230.156 59.5863C227.969 59.5863 226.01 59.1488 224.281 58.2738C222.552 57.3988 221.188 56.2009 220.188 54.6801C219.188 53.1593 218.688 51.4301 218.688 49.4926C218.688 47.7009 219.021 46.1176 219.688 44.7426C220.354 43.3676 221.344 42.2113 222.656 41.2738C223.969 40.3155 225.594 39.5968 227.531 39.1176C229.49 38.6176 231.729 38.3676 234.25 38.3676H239.812ZM270.406 25.1488V31.0863H251.031V25.1488H270.406ZM256.219 16.8363H264.5V49.2113C264.5 50.2113 264.635 50.9822 264.906 51.5238C265.177 52.0655 265.583 52.4301 266.125 52.6176C266.667 52.8051 267.312 52.8988 268.062 52.8988C268.604 52.8988 269.104 52.8676 269.562 52.8051C270.021 52.7426 270.406 52.6801 270.719 52.6176L270.75 58.8051C270.062 59.0343 269.281 59.2218 268.406 59.3676C267.552 59.5134 266.583 59.5863 265.5 59.5863C263.646 59.5863 262.021 59.2738 260.625 58.6488C259.229 58.003 258.146 56.9718 257.375 55.5551C256.604 54.1176 256.219 52.2218 256.219 49.8676V16.8363ZM284.656 25.1488V58.9613H276.375V25.1488H284.656ZM275.812 16.3051C275.812 15.0759 276.229 14.0551 277.062 13.2426C277.917 12.4301 279.062 12.0238 280.5 12.0238C281.938 12.0238 283.073 12.4301 283.906 13.2426C284.76 14.0551 285.188 15.0759 285.188 16.3051C285.188 17.5134 284.76 18.5238 283.906 19.3363C283.073 20.1488 281.938 20.5551 280.5 20.5551C279.062 20.5551 277.917 20.1488 277.062 19.3363C276.229 18.5238 275.812 17.5134 275.812 16.3051ZM291.062 42.3988V41.7426C291.062 39.2634 291.417 36.9822 292.125 34.8988C292.833 32.7947 293.865 30.9718 295.219 29.4301C296.573 27.8884 298.229 26.6905 300.188 25.8363C302.146 24.9613 304.375 24.5238 306.875 24.5238C309.417 24.5238 311.667 24.9613 313.625 25.8363C315.604 26.6905 317.271 27.8884 318.625 29.4301C319.979 30.9718 321.01 32.7947 321.719 34.8988C322.427 36.9822 322.781 39.2634 322.781 41.7426V42.3988C322.781 44.8572 322.427 47.1384 321.719 49.2426C321.01 51.3259 319.979 53.1488 318.625 54.7113C317.271 56.253 315.615 57.4509 313.656 58.3051C311.698 59.1593 309.458 59.5863 306.938 59.5863C304.438 59.5863 302.198 59.1593 300.219 58.3051C298.24 57.4509 296.573 56.253 295.219 54.7113C293.865 53.1488 292.833 51.3259 292.125 49.2426C291.417 47.1384 291.062 44.8572 291.062 42.3988ZM299.312 41.7426V42.3988C299.312 43.878 299.458 45.2634 299.75 46.5551C300.042 47.8468 300.49 48.9822 301.094 49.9613C301.698 50.9405 302.479 51.7113 303.438 52.2738C304.417 52.8155 305.583 53.0863 306.938 53.0863C308.271 53.0863 309.417 52.8155 310.375 52.2738C311.333 51.7113 312.115 50.9405 312.719 49.9613C313.344 48.9822 313.802 47.8468 314.094 46.5551C314.385 45.2634 314.531 43.878 314.531 42.3988V41.7426C314.531 40.2843 314.385 38.9197 314.094 37.6488C313.802 36.3572 313.344 35.2218 312.719 34.2426C312.115 33.2426 311.323 32.4613 310.344 31.8988C309.385 31.3155 308.229 31.0238 306.875 31.0238C305.542 31.0238 304.396 31.3155 303.438 31.8988C302.479 32.4613 301.698 33.2426 301.094 34.2426C300.49 35.2218 300.042 36.3572 299.75 37.6488C299.458 38.9197 299.312 40.2843 299.312 41.7426ZM336.875 32.3676V58.9613H328.625V25.1488H336.375L336.875 32.3676ZM335.562 40.8363H333.125C333.146 38.378 333.479 36.1488 334.125 34.1488C334.771 32.1488 335.677 30.4301 336.844 28.9926C338.031 27.5551 339.438 26.4509 341.062 25.6801C342.688 24.9093 344.5 24.5238 346.5 24.5238C348.125 24.5238 349.594 24.753 350.906 25.2113C352.219 25.6697 353.344 26.3988 354.281 27.3988C355.24 28.3988 355.969 29.7113 356.469 31.3363C356.99 32.9405 357.25 34.9197 357.25 37.2738V58.9613H348.938V37.2113C348.938 35.6697 348.708 34.4509 348.25 33.5551C347.812 32.6593 347.167 32.0238 346.312 31.6488C345.479 31.2738 344.448 31.0863 343.219 31.0863C341.948 31.0863 340.833 31.3468 339.875 31.8676C338.938 32.3676 338.146 33.0655 337.5 33.9613C336.875 34.8572 336.396 35.8884 336.062 37.0551C335.729 38.2218 335.562 39.4822 335.562 40.8363ZM397.094 50.0551L408.438 13.4613H417.969L401.906 58.9613H395.562L397.094 50.0551ZM386.625 13.4613L397.906 50.0551L399.531 58.9613H393.125L377.125 13.4613H386.625ZM430.781 25.1488V58.9613H422.5V25.1488H430.781ZM421.938 16.3051C421.938 15.0759 422.354 14.0551 423.188 13.2426C424.042 12.4301 425.188 12.0238 426.625 12.0238C428.062 12.0238 429.198 12.4301 430.031 13.2426C430.885 14.0551 431.312 15.0759 431.312 16.3051C431.312 17.5134 430.885 18.5238 430.031 19.3363C429.198 20.1488 428.062 20.5551 426.625 20.5551C425.188 20.5551 424.042 20.1488 423.188 19.3363C422.354 18.5238 421.938 17.5134 421.938 16.3051ZM447.406 10.9613V58.9613H439.125V10.9613H447.406ZM464.031 10.9613V58.9613H455.75V10.9613H464.031ZM490.531 51.7738V36.1801C490.531 35.0343 490.333 34.0447 489.938 33.2113C489.542 32.378 488.938 31.7322 488.125 31.2738C487.312 30.8155 486.281 30.5863 485.031 30.5863C483.927 30.5863 482.958 30.7738 482.125 31.1488C481.312 31.5238 480.688 32.0551 480.25 32.7426C479.812 33.4093 479.594 34.1801 479.594 35.0551H471.312C471.312 33.6593 471.646 32.3363 472.312 31.0863C472.979 29.8155 473.927 28.6905 475.156 27.7113C476.406 26.7113 477.896 25.9301 479.625 25.3676C481.375 24.8051 483.333 24.5238 485.5 24.5238C488.062 24.5238 490.344 24.9613 492.344 25.8363C494.365 26.6905 495.948 27.9822 497.094 29.7113C498.26 31.4405 498.844 33.6176 498.844 36.2426V50.9926C498.844 52.6801 498.948 54.128 499.156 55.3363C499.385 56.5238 499.719 57.5551 500.156 58.4301V58.9613H491.75C491.354 58.1072 491.052 57.0238 490.844 55.7113C490.635 54.378 490.531 53.0655 490.531 51.7738ZM491.688 38.3676L491.75 43.2738H486.531C485.24 43.2738 484.104 43.4093 483.125 43.6801C482.146 43.9301 481.344 44.3051 480.719 44.8051C480.094 45.2843 479.625 45.8676 479.312 46.5551C479 47.2218 478.844 47.9822 478.844 48.8363C478.844 49.6697 479.031 50.4197 479.406 51.0863C479.802 51.753 480.365 52.2843 481.094 52.6801C481.844 53.0551 482.719 53.2426 483.719 53.2426C485.177 53.2426 486.448 52.9509 487.531 52.3676C488.615 51.7634 489.458 51.0343 490.062 50.1801C490.667 49.3259 490.99 48.5134 491.031 47.7426L493.406 51.3051C493.115 52.1593 492.677 53.0655 492.094 54.0238C491.51 54.9822 490.76 55.878 489.844 56.7113C488.927 57.5447 487.823 58.2322 486.531 58.7738C485.24 59.3155 483.74 59.5863 482.031 59.5863C479.844 59.5863 477.885 59.1488 476.156 58.2738C474.427 57.3988 473.062 56.2009 472.062 54.6801C471.062 53.1593 470.562 51.4301 470.562 49.4926C470.562 47.7009 470.896 46.1176 471.562 44.7426C472.229 43.3676 473.219 42.2113 474.531 41.2738C475.844 40.3155 477.469 39.5968 479.406 39.1176C481.365 38.6176 483.604 38.3676 486.125 38.3676H491.688ZM527.781 25.1488H535.281V57.9301C535.281 60.9926 534.615 63.5863 533.281 65.7113C531.969 67.8572 530.125 69.4822 527.75 70.5863C525.375 71.7113 522.615 72.2738 519.469 72.2738C518.115 72.2738 516.646 72.0863 515.062 71.7113C513.5 71.3363 511.99 70.7426 510.531 69.9301C509.094 69.1384 507.896 68.1072 506.938 66.8363L510.656 61.9613C511.781 63.2738 513.052 64.2634 514.469 64.9301C515.885 65.6176 517.417 65.9613 519.062 65.9613C520.729 65.9613 522.146 65.6488 523.312 65.0238C524.5 64.4197 525.406 63.5238 526.031 62.3363C526.677 61.1697 527 59.7322 527 58.0238V32.8676L527.781 25.1488ZM504.938 42.4613V41.8051C504.938 39.2218 505.25 36.878 505.875 34.7738C506.5 32.6488 507.396 30.8259 508.562 29.3051C509.75 27.7843 511.177 26.6072 512.844 25.7738C514.531 24.9405 516.427 24.5238 518.531 24.5238C520.76 24.5238 522.635 24.9301 524.156 25.7426C525.698 26.5551 526.969 27.7113 527.969 29.2113C528.99 30.7113 529.781 32.4926 530.344 34.5551C530.927 36.5968 531.375 38.8468 531.688 41.3051V43.0863C531.396 45.4822 530.927 47.6801 530.281 49.6801C529.656 51.6801 528.823 53.4301 527.781 54.9301C526.74 56.4093 525.448 57.5551 523.906 58.3676C522.365 59.1801 520.552 59.5863 518.469 59.5863C516.385 59.5863 514.51 59.1593 512.844 58.3051C511.177 57.4509 509.75 56.253 508.562 54.7113C507.396 53.1697 506.5 51.3572 505.875 49.2738C505.25 47.1905 504.938 44.9197 504.938 42.4613ZM513.188 41.8051V42.4613C513.188 43.9197 513.333 45.2843 513.625 46.5551C513.917 47.8259 514.365 48.9509 514.969 49.9301C515.573 50.8884 516.333 51.6384 517.25 52.1801C518.167 52.7218 519.26 52.9926 520.531 52.9926C522.24 52.9926 523.635 52.6384 524.719 51.9301C525.823 51.2009 526.656 50.2113 527.219 48.9613C527.802 47.6905 528.177 46.2634 528.344 44.6801V39.7738C528.24 38.5238 528.01 37.3676 527.656 36.3051C527.323 35.2426 526.854 34.3259 526.25 33.5551C525.646 32.7843 524.875 32.1801 523.938 31.7426C523 31.3051 521.885 31.0863 520.594 31.0863C519.344 31.0863 518.25 31.3676 517.312 31.9301C516.375 32.4718 515.604 33.2322 515 34.2113C514.396 35.1905 513.938 36.3259 513.625 37.6176C513.333 38.9093 513.188 40.3051 513.188 41.8051ZM557.906 59.5863C555.344 59.5863 553.042 59.1697 551 58.3363C548.958 57.503 547.219 56.3468 545.781 54.8676C544.365 53.3676 543.271 51.628 542.5 49.6488C541.75 47.6488 541.375 45.503 541.375 43.2113V41.9613C541.375 39.3572 541.75 36.9926 542.5 34.8676C543.25 32.7218 544.312 30.878 545.688 29.3363C547.062 27.7947 548.708 26.6072 550.625 25.7738C552.542 24.9405 554.656 24.5238 556.969 24.5238C559.365 24.5238 561.479 24.9301 563.312 25.7426C565.146 26.5343 566.677 27.6593 567.906 29.1176C569.135 30.5759 570.062 32.3259 570.688 34.3676C571.312 36.3884 571.625 38.628 571.625 41.0863V44.5551H545.125V38.8676H563.5V38.2426C563.458 36.9301 563.208 35.7322 562.75 34.6488C562.292 33.5447 561.583 32.6697 560.625 32.0238C559.667 31.3572 558.427 31.0238 556.906 31.0238C555.677 31.0238 554.604 31.2947 553.688 31.8363C552.792 32.3572 552.042 33.1072 551.438 34.0863C550.854 35.0447 550.417 36.1905 550.125 37.5238C549.833 38.8572 549.688 40.3363 549.688 41.9613V43.2113C549.688 44.628 549.875 45.9405 550.25 47.1488C550.646 48.3572 551.219 49.4093 551.969 50.3051C552.74 51.1801 553.656 51.8676 554.719 52.3676C555.802 52.8468 557.031 53.0863 558.406 53.0863C560.135 53.0863 561.698 52.753 563.094 52.0863C564.51 51.3988 565.74 50.3884 566.781 49.0551L570.938 53.3676C570.229 54.4093 569.271 55.4093 568.062 56.3676C566.875 57.3259 565.438 58.1072 563.75 58.7113C562.062 59.2947 560.115 59.5863 557.906 59.5863Z" fill="#2CB1BC"/>
<path d="M126.906 50.0551L125.951 49.759L125.932 49.8213L125.921 49.8856L126.906 50.0551ZM138.25 13.4613V12.4613H137.513L137.295 13.1652L138.25 13.4613ZM147.781 13.4613L148.724 13.7942L149.195 12.4613H147.781V13.4613ZM131.719 58.9613V59.9613H132.426L132.662 59.2942L131.719 58.9613ZM125.375 58.9613L124.389 58.7919L124.188 59.9613H125.375V58.9613ZM116.438 13.4613L117.393 13.1667L117.176 12.4613H116.438V13.4613ZM127.719 50.0551L128.703 49.8756L128.692 49.8172L128.674 49.7605L127.719 50.0551ZM129.344 58.9613V59.9613H130.543L130.328 58.7818L129.344 58.9613ZM122.938 58.9613L121.994 59.2931L122.229 59.9613H122.938V58.9613ZM106.938 13.4613V12.4613H105.526L105.994 13.7931L106.938 13.4613ZM127.861 50.3512L139.205 13.7574L137.295 13.1652L125.951 49.759L127.861 50.3512ZM138.25 14.4613H147.781V12.4613H138.25V14.4613ZM146.838 13.1284L130.776 58.6284L132.662 59.2942L148.724 13.7942L146.838 13.1284ZM131.719 57.9613H125.375V59.9613H131.719V57.9613ZM126.361 59.1308L127.892 50.2245L125.921 49.8856L124.389 58.7919L126.361 59.1308ZM115.482 13.7559L126.763 50.3497L128.674 49.7605L117.393 13.1667L115.482 13.7559ZM126.735 50.2346L128.36 59.1408L130.328 58.7818L128.703 49.8756L126.735 50.2346ZM129.344 57.9613H122.938V59.9613H129.344V57.9613ZM123.881 58.6296L107.881 13.1296L105.994 13.7931L121.994 59.2931L123.881 58.6296ZM106.938 14.4613H116.438V12.4613H106.938V14.4613ZM150 34.8988L150.947 35.2207L150.948 35.2179L150 34.8988ZM158.062 25.8363L158.462 26.753L158.47 26.7493L158.062 25.8363ZM171.5 25.8363L171.092 26.7494L171.104 26.7545L171.5 25.8363ZM179.594 34.8988L178.646 35.2179L178.647 35.2207L179.594 34.8988ZM179.594 49.2426L180.541 49.5645L180.541 49.5616L179.594 49.2426ZM176.5 54.7113L177.251 55.3713L177.256 55.3663L176.5 54.7113ZM153.094 54.7113L152.338 55.3663L152.342 55.3713L153.094 54.7113ZM150 49.2426L149.052 49.5616L149.053 49.5645L150 49.2426ZM161.312 52.2738L160.806 53.1363L160.817 53.1427L160.828 53.1489L161.312 52.2738ZM168.25 52.2738L168.742 53.1444L168.749 53.1404L168.756 53.1363L168.25 52.2738ZM170.594 49.9613L169.751 49.4233L169.747 49.4297L169.743 49.4362L170.594 49.9613ZM171.969 37.6488L170.993 37.8691L170.994 37.8725L171.969 37.6488ZM170.594 34.2426L169.738 34.7597L169.744 34.7702L169.751 34.7806L170.594 34.2426ZM168.219 31.8988L167.699 32.753L167.71 32.7596L167.721 32.7659L168.219 31.8988ZM161.312 31.8988L161.819 32.7613L161.826 32.7572L161.832 32.753L161.312 31.8988ZM158.969 34.2426L159.82 34.7677L159.825 34.7597L158.969 34.2426ZM157.625 37.6488L158.6 37.8725L158.6 37.8691L157.625 37.6488ZM149.938 42.3988V41.7426H147.938V42.3988H149.938ZM149.938 41.7426C149.938 39.3592 150.278 37.1882 150.947 35.2207L149.053 34.5769C148.305 36.7762 147.938 39.1676 147.938 41.7426H149.938ZM150.948 35.2179C151.617 33.2288 152.585 31.5243 153.845 30.09L152.342 28.7701C150.894 30.4192 149.799 32.3605 149.052 34.5798L150.948 35.2179ZM153.845 30.09C155.098 28.6633 156.633 27.5509 158.462 26.7529L157.663 24.9197C155.575 25.8301 153.798 27.1136 152.342 28.7701L153.845 30.09ZM158.47 26.7493C160.281 25.9404 162.368 25.5238 164.75 25.5238V23.5238C162.132 23.5238 159.761 23.9823 157.655 24.9233L158.47 26.7493ZM164.75 25.5238C167.177 25.5238 169.284 25.9413 171.092 26.7493L171.908 24.9233C169.8 23.9814 167.407 23.5238 164.75 23.5238V25.5238ZM171.104 26.7545C172.954 27.553 174.497 28.6653 175.749 30.09L177.251 28.7701C175.794 27.1115 174.004 25.828 171.896 24.9182L171.104 26.7545ZM175.749 30.09C177.008 31.5243 177.976 33.2288 178.646 35.2179L180.541 34.5798C179.794 32.3605 178.7 30.4192 177.251 28.7701L175.749 30.09ZM178.647 35.2207C179.316 37.1882 179.656 39.3592 179.656 41.7426H181.656C181.656 39.1676 181.288 36.7762 180.541 34.5769L178.647 35.2207ZM179.656 41.7426V42.3988H181.656V41.7426H179.656ZM179.656 42.3988C179.656 44.7602 179.316 46.9326 178.646 48.9235L180.541 49.5616C181.288 47.3442 181.656 44.9541 181.656 42.3988H179.656ZM178.647 48.9207C177.978 50.8897 177.009 52.5977 175.744 54.0564L177.256 55.3663C178.7 53.7 179.793 51.7622 180.541 49.5645L178.647 48.9207ZM175.749 54.0514C174.495 55.4782 172.961 56.5905 171.131 57.3885L171.931 59.2217C174.018 58.3113 175.796 57.0278 177.251 55.3713L175.749 54.0514ZM171.131 57.3885C169.32 58.1787 167.22 58.5863 164.812 58.5863V60.5863C167.447 60.5863 169.826 60.1398 171.931 59.2217L171.131 57.3885ZM164.812 58.5863C162.427 58.5863 160.326 58.1792 158.49 57.3869L157.697 59.2232C159.82 60.1393 162.198 60.5863 164.812 60.5863V58.5863ZM158.49 57.3869C156.64 56.5884 155.097 55.4761 153.845 54.0514L152.342 55.3713C153.799 57.0299 155.589 58.3134 157.697 59.2232L158.49 57.3869ZM153.849 54.0564C152.585 52.5977 151.616 50.8897 150.947 48.9207L149.053 49.5645C149.8 51.7622 150.894 53.7 152.338 55.3663L153.849 54.0564ZM150.948 48.9235C150.278 46.9326 149.938 44.7602 149.938 42.3988H147.938C147.938 44.9541 148.306 47.3442 149.052 49.5616L150.948 48.9235ZM156.188 41.7426V42.3988H158.188V41.7426H156.188ZM156.188 42.3988C156.188 43.9436 156.34 45.4036 156.65 46.7753L158.6 46.3348C158.327 45.1233 158.188 43.8124 158.188 42.3988H156.188ZM156.65 46.7753C156.962 48.1588 157.448 49.4002 158.118 50.4864L159.82 49.4362C159.282 48.5641 158.871 47.5347 158.6 46.3348L156.65 46.7753ZM158.118 50.4864C158.804 51.5994 159.702 52.4882 160.806 53.1363L161.819 51.4114C161.006 50.9345 160.341 50.2816 159.82 49.4362L158.118 50.4864ZM160.828 53.1489C161.984 53.7881 163.324 54.0863 164.812 54.0863V52.0863C163.592 52.0863 162.599 51.8429 161.797 51.3988L160.828 53.1489ZM164.812 54.0863C166.282 54.0863 167.605 53.7871 168.742 53.1444L167.758 51.4033C166.978 51.8439 166.01 52.0863 164.812 52.0863V54.0863ZM168.756 53.1363C169.86 52.4882 170.758 51.5994 171.445 50.4864L169.743 49.4362C169.221 50.2816 168.556 50.9345 167.744 51.4114L168.756 53.1363ZM171.437 50.4994C172.132 49.4101 172.631 48.1642 172.944 46.7753L170.993 46.3348C170.724 47.5293 170.306 48.5542 169.751 49.4233L171.437 50.4994ZM172.944 46.7753C173.254 45.4036 173.406 43.9436 173.406 42.3988H171.406C171.406 43.8124 171.267 45.1233 170.993 46.3348L172.944 46.7753ZM173.406 42.3988V41.7426H171.406V42.3988H173.406ZM173.406 41.7426C173.406 40.2177 173.254 38.7774 172.943 37.4251L170.994 37.8725C171.267 39.0619 171.406 40.3508 171.406 41.7426H173.406ZM172.944 37.4286C172.631 36.0397 172.132 34.7938 171.437 33.7045L169.751 34.7806C170.306 35.6497 170.724 36.6746 170.993 37.8691L172.944 37.4286ZM171.45 33.7255C170.761 32.5856 169.848 31.6817 168.717 31.0317L167.721 32.7659C168.548 33.241 169.218 33.8996 169.738 34.7597L171.45 33.7255ZM168.739 31.0446C167.594 30.3479 166.249 30.0238 164.75 30.0238V32.0238C165.959 32.0238 166.927 32.2831 167.699 32.753L168.739 31.0446ZM164.75 30.0238C163.268 30.0238 161.935 30.3493 160.793 31.0446L161.832 32.753C162.607 32.2817 163.565 32.0238 164.75 32.0238V30.0238ZM160.806 31.0364C159.697 31.6875 158.798 32.5906 158.113 33.7255L159.825 34.7597C160.347 33.8945 161.011 33.2352 161.819 32.7613L160.806 31.0364ZM158.118 33.7175C157.448 34.8037 156.962 36.0451 156.65 37.4286L158.6 37.8691C158.871 36.6692 159.282 35.6398 159.82 34.7677L158.118 33.7175ZM156.65 37.4251C156.34 38.7774 156.188 40.2177 156.188 41.7426H158.188C158.188 40.3508 158.327 39.0619 158.6 37.8725L156.65 37.4251ZM205.844 50.4613L205.015 49.9019L205.01 49.9091L205.005 49.9163L205.844 50.4613ZM206.75 47.5551V46.5551H205.787L205.751 47.5174L206.75 47.5551ZM214.531 47.5551L215.531 47.5733L215.55 46.5551H214.531V47.5551ZM207.594 58.0238L208.045 58.9165L208.048 58.9147L207.594 58.0238ZM189 54.6176L188.224 55.2486L188.229 55.2547L189 54.6176ZM186.125 49.1801L185.168 49.4701L185.171 49.4789L186.125 49.1801ZM186.125 34.9301L185.171 34.6312L185.168 34.6401L186.125 34.9301ZM189 29.4926L188.229 28.8554L188.224 28.8616L189 29.4926ZM207.812 26.1176L207.355 27.0066L207.358 27.0084L207.812 26.1176ZM212.688 30.6176L211.831 31.1334L211.835 31.1401L212.688 30.6176ZM214.531 37.4613V38.4613H215.547L215.531 37.4455L214.531 37.4613ZM206.75 37.4613L205.751 37.4958L205.784 38.4613H206.75V37.4613ZM196.969 31.8988L196.44 31.0497L196.432 31.0552L196.969 31.8988ZM194.812 34.3051L193.922 33.8506L193.918 33.8579L194.812 34.3051ZM193.75 37.6801L192.764 37.5157L192.761 37.5293L193.75 37.6801ZM193.75 46.4926L192.761 46.6409L192.762 46.649L192.764 46.657L193.75 46.4926ZM194.812 49.8676L193.918 50.3148L193.924 50.3261L193.93 50.3372L194.812 49.8676ZM196.969 52.2113L196.432 53.055L196.44 53.0604L196.969 52.2113ZM200.531 54.0863C201.832 54.0863 203.03 53.8301 204.103 53.2933L203.209 51.5044C202.449 51.8843 201.564 52.0863 200.531 52.0863V54.0863ZM204.103 53.2933C205.174 52.7579 206.04 51.9937 206.682 51.0063L205.005 49.9163C204.564 50.5957 203.972 51.1231 203.209 51.5044L204.103 53.2933ZM206.673 51.0208C207.35 50.0177 207.701 48.8643 207.749 47.5928L205.751 47.5174C205.715 48.4542 205.463 49.2383 205.015 49.9019L206.673 51.0208ZM206.75 48.5551H214.531V46.5551H206.75V48.5551ZM213.531 47.5369C213.493 49.6405 212.904 51.4998 211.771 53.1436L213.417 54.2791C214.783 52.2979 215.486 50.053 215.531 47.5733L213.531 47.5369ZM211.771 53.1436C210.621 54.811 209.084 56.1411 207.139 57.133L208.048 58.9147C210.27 57.7816 212.067 56.2367 213.417 54.2791L211.771 53.1436ZM207.143 57.1312C205.235 58.0949 203.079 58.5863 200.656 58.5863V60.5863C203.358 60.5863 205.828 60.0361 208.045 58.9165L207.143 57.1312ZM200.656 58.5863C198.163 58.5863 196.038 58.1674 194.255 57.3625L193.432 59.1852C195.525 60.1302 197.941 60.5863 200.656 60.5863V58.5863ZM194.255 57.3625C192.45 56.5471 190.96 55.4196 189.771 53.9804L188.229 55.2547C189.623 56.9406 191.363 58.2505 193.432 59.1852L194.255 57.3625ZM189.776 53.9866C188.591 52.5295 187.69 50.8316 187.079 48.8813L185.171 49.4789C185.852 51.6535 186.868 53.5807 188.224 55.2486L189.776 53.9866ZM187.082 48.8901C186.488 46.9299 186.188 44.82 186.188 42.5551H184.188C184.188 44.9985 184.512 47.3053 185.168 49.4701L187.082 48.8901ZM186.188 42.5551V41.5551H184.188V42.5551H186.188ZM186.188 41.5551C186.188 39.2902 186.488 37.1803 187.082 35.2201L185.168 34.6401C184.512 36.8049 184.188 39.1117 184.188 41.5551H186.188ZM187.079 35.2289C187.69 33.2785 188.591 31.5807 189.776 30.1236L188.224 28.8616C186.868 30.5295 185.852 32.4566 185.171 34.6313L187.079 35.2289ZM189.771 30.1297C190.96 28.6906 192.45 27.563 194.255 26.7477L193.432 24.925C191.363 25.8596 189.623 27.1696 188.229 28.8554L189.771 30.1297ZM194.255 26.7477C196.039 25.9423 198.154 25.5238 200.625 25.5238V23.5238C197.93 23.5238 195.524 23.9804 193.432 24.925L194.255 26.7477ZM200.625 25.5238C203.223 25.5238 205.457 26.0289 207.355 27.0066L208.27 25.2286C206.043 24.0813 203.485 23.5238 200.625 23.5238V25.5238ZM207.358 27.0084C209.281 27.989 210.764 29.3617 211.831 31.1334L213.544 30.1017C212.278 27.9984 210.511 26.3711 208.267 25.2267L207.358 27.0084ZM211.835 31.1401C212.915 32.9026 213.492 35.003 213.531 37.4772L215.531 37.4455C215.487 34.6696 214.835 32.2076 213.54 30.095L211.835 31.1401ZM214.531 36.4613H206.75V38.4613H214.531V36.4613ZM207.749 37.4269C207.703 36.087 207.401 34.8545 206.824 33.7488L205.051 34.6739C205.474 35.4848 205.713 36.419 205.751 37.4958L207.749 37.4269ZM206.824 33.7488C206.243 32.6341 205.413 31.7322 204.349 31.0552L203.276 32.7425C204.045 33.2322 204.632 33.8719 205.051 34.6739L206.824 33.7488ZM204.349 31.0552C203.242 30.3503 201.932 30.0238 200.469 30.0238V32.0238C201.631 32.0238 202.55 32.2807 203.276 32.7425L204.349 31.0552ZM200.469 30.0238C198.935 30.0238 197.573 30.3448 196.44 31.0498L197.497 32.7479C198.239 32.2862 199.211 32.0238 200.469 32.0238V30.0238ZM196.432 31.0552C195.356 31.7396 194.519 32.6799 193.922 33.8506L195.703 34.7596C196.148 33.8886 196.748 33.2247 197.506 32.7425L196.432 31.0552ZM193.918 33.8579C193.368 34.958 192.986 36.1803 192.764 37.5157L194.736 37.8445C194.93 36.6799 195.257 35.6521 195.707 34.7523L193.918 33.8579ZM192.761 37.5293C192.566 38.8125 192.469 40.1549 192.469 41.5551H194.469C194.469 40.247 194.559 39.006 194.739 37.8309L192.761 37.5293ZM192.469 41.5551V42.5551H194.469V41.5551H192.469ZM192.469 42.5551C192.469 43.9755 192.566 45.3378 192.761 46.6409L194.739 46.3442C194.559 45.1474 194.469 43.8847 194.469 42.5551H192.469ZM192.764 46.657C192.986 47.9924 193.368 49.2146 193.918 50.3148L195.707 49.4204C195.257 48.5205 194.93 47.4928 194.736 46.3282L192.764 46.657ZM193.93 50.3372C194.53 51.4655 195.366 52.377 196.432 53.055L197.506 51.3677C196.738 50.879 196.137 50.228 195.695 49.398L193.93 50.3372ZM196.44 53.0604C197.578 53.768 198.962 54.0863 200.531 54.0863V52.0863C199.225 52.0863 198.235 51.8213 197.497 51.3623L196.44 53.0604ZM230.25 31.1488L229.84 30.2369L229.831 30.2409L230.25 31.1488ZM228.375 32.7426L229.211 33.2913L229.219 33.2795L228.375 32.7426ZM227.719 35.0551V36.0551H228.719V35.0551H227.719ZM219.438 35.0551H218.438V36.0551H219.438V35.0551ZM220.438 31.0863L221.32 31.5569L221.323 31.5509L220.438 31.0863ZM223.281 27.7113L223.904 28.4935L223.906 28.4922L223.281 27.7113ZM227.75 25.3676L227.444 24.4155L227.441 24.4166L227.75 25.3676ZM240.469 25.8363L240.068 26.7526L240.079 26.7574L240.469 25.8363ZM245.219 29.7113L244.385 30.2637L244.39 30.2706L245.219 29.7113ZM247.281 55.3363L246.296 55.5062L246.297 55.516L246.299 55.5258L247.281 55.3363ZM248.281 58.4301H249.281V58.194L249.176 57.9829L248.281 58.4301ZM248.281 58.9613V59.9613H249.281V58.9613H248.281ZM239.875 58.9613L238.968 59.3818L239.236 59.9613H239.875V58.9613ZM238.969 55.7113L237.981 55.8657L237.981 55.8681L238.969 55.7113ZM239.812 38.3676L240.812 38.3548L240.8 37.3676H239.812V38.3676ZM239.875 43.2738V44.2738H240.888L240.875 43.2611L239.875 43.2738ZM231.25 43.6801L231.497 44.649L231.507 44.6465L231.517 44.6439L231.25 43.6801ZM228.844 44.8051L229.452 45.5987L229.46 45.5924L229.468 45.586L228.844 44.8051ZM227.438 46.5551L228.343 46.9795L228.348 46.9689L227.438 46.5551ZM227.531 51.0863L226.66 51.5766L226.665 51.5868L226.671 51.5969L227.531 51.0863ZM229.219 52.6801L228.742 53.5589L228.756 53.567L228.772 53.5745L229.219 52.6801ZM235.656 52.3676L236.13 53.2481L236.137 53.2445L236.143 53.2409L235.656 52.3676ZM238.188 50.1801L237.371 49.6026L238.188 50.1801ZM239.156 47.7426L239.988 47.1879L238.32 44.6855L238.158 47.6886L239.156 47.7426ZM241.531 51.3051L242.478 51.6282L242.637 51.1611L242.363 50.7504L241.531 51.3051ZM219.688 44.7426L218.788 44.3063L219.688 44.7426ZM222.656 41.2738L223.238 42.0876L223.246 42.0815L222.656 41.2738ZM227.531 39.1176L227.771 40.0884L227.779 40.0865L227.531 39.1176ZM239.656 51.7738V36.1801H237.656V51.7738H239.656ZM239.656 36.1801C239.656 34.9209 239.439 33.7781 238.966 32.7823L237.159 33.6404C237.478 34.3112 237.656 35.1476 237.656 36.1801H239.656ZM238.966 32.7823C238.48 31.7605 237.731 30.9613 236.741 30.4029L235.759 32.1448C236.394 32.503 236.853 32.9955 237.159 33.6404L238.966 32.7823ZM236.741 30.4029C235.736 29.836 234.522 29.5863 233.156 29.5863V31.5863C234.29 31.5863 235.139 31.795 235.759 32.1448L236.741 30.4029ZM233.156 29.5863C231.94 29.5863 230.826 29.7931 229.84 30.2369L230.66 32.0608C231.341 31.7546 232.165 31.5863 233.156 31.5863V29.5863ZM229.831 30.2409C228.862 30.6881 228.082 31.3406 227.531 32.2057L229.219 33.2795C229.543 32.7696 230.013 32.3596 230.669 32.0568L229.831 30.2409ZM227.539 32.1939C226.984 33.0393 226.719 34.0049 226.719 35.0551H228.719C228.719 34.3553 228.891 33.7792 229.211 33.2912L227.539 32.1939ZM227.719 34.0551H219.438V36.0551H227.719V34.0551ZM220.438 35.0551C220.438 33.8259 220.729 32.6643 221.32 31.5569L219.555 30.6157C218.812 32.0083 218.438 33.4926 218.438 35.0551H220.438ZM221.323 31.5509C221.919 30.4143 222.773 29.3945 223.904 28.4935L222.658 26.9292C221.331 27.9865 220.289 29.2167 219.552 30.6218L221.323 31.5509ZM223.906 28.4922C225.05 27.5769 226.429 26.8488 228.059 26.3185L227.441 24.4166C225.612 25.0114 224.012 25.8458 222.657 26.9305L223.906 28.4922ZM228.056 26.3196C229.691 25.794 231.544 25.5238 233.625 25.5238V23.5238C231.373 23.5238 229.309 23.8162 227.444 24.4156L228.056 26.3196ZM233.625 25.5238C236.073 25.5238 238.214 25.9416 240.068 26.7525L240.87 24.9202C238.723 23.9811 236.302 23.5238 233.625 23.5238V25.5238ZM240.079 26.7574C241.93 27.5397 243.354 28.7081 244.385 30.2637L246.052 29.159C244.791 27.2562 243.049 25.8413 240.858 24.9152L240.079 26.7574ZM244.39 30.2706C245.419 31.7965 245.969 33.7653 245.969 36.2426H247.969C247.969 33.4698 247.352 31.0845 246.048 29.152L244.39 30.2706ZM245.969 36.2426V50.9926H247.969V36.2426H245.969ZM245.969 50.9926C245.969 52.7175 246.075 54.2253 246.296 55.5062L248.267 55.1664C248.071 54.0307 247.969 52.6427 247.969 50.9926H245.969ZM246.299 55.5258C246.542 56.7826 246.9 57.9042 247.387 58.8773L249.176 57.9829C248.787 57.2059 248.479 56.265 248.263 55.1468L246.299 55.5258ZM247.281 58.4301V58.9613H249.281V58.4301H247.281ZM248.281 57.9613H239.875V59.9613H248.281V57.9613ZM240.782 58.5409C240.438 57.797 240.156 56.8101 239.956 55.5546L237.981 55.8681C238.198 57.2375 238.521 58.4173 238.968 59.3818L240.782 58.5409ZM239.957 55.557C239.756 54.2724 239.656 53.0116 239.656 51.7738H237.656C237.656 53.1194 237.765 54.4836 237.981 55.8657L239.957 55.557ZM238.813 38.3803L238.875 43.2866L240.875 43.2611L240.812 38.3548L238.813 38.3803ZM239.875 42.2738H234.656V44.2738H239.875V42.2738ZM234.656 42.2738C233.298 42.2738 232.069 42.416 230.983 42.7163L231.517 44.6439C232.389 44.4025 233.432 44.2738 234.656 44.2738V42.2738ZM231.003 42.7112C229.921 42.9874 228.98 43.4154 228.219 44.0242L229.468 45.586C229.957 45.1948 230.621 44.8728 231.497 44.649L231.003 42.7112ZM228.235 44.0115C227.486 44.5861 226.911 45.2978 226.527 46.1413L228.348 46.9689C228.589 46.4373 228.952 45.9824 229.452 45.5987L228.235 44.0115ZM226.532 46.1307C226.148 46.9498 225.969 47.8589 225.969 48.8363H227.969C227.969 48.1055 228.102 47.4937 228.343 46.9795L226.532 46.1307ZM225.969 48.8363C225.969 49.8256 226.193 50.7471 226.66 51.5766L228.403 50.5961C228.119 50.0923 227.969 49.5137 227.969 48.8363H225.969ZM226.671 51.5969C227.166 52.4295 227.866 53.0833 228.742 53.5589L229.696 51.8012C229.114 51.4852 228.688 51.0765 228.391 50.5758L226.671 51.5969ZM228.772 53.5745C229.685 54.0311 230.718 54.2426 231.844 54.2426V52.2426C230.969 52.2426 230.253 52.0791 229.666 51.7857L228.772 53.5745ZM231.844 54.2426C233.437 54.2426 234.877 53.9232 236.13 53.2481L235.182 51.4871C234.269 51.9786 233.167 52.2426 231.844 52.2426V54.2426ZM236.143 53.2409C237.333 52.5774 238.299 51.7543 239.004 50.7575L237.371 49.6026C236.868 50.3142 236.146 50.9495 235.169 51.4942L236.143 53.2409ZM239.004 50.7575C239.679 49.8025 240.1 48.8113 240.155 47.7966L238.158 47.6886C238.129 48.2156 237.904 48.8493 237.371 49.6026L239.004 50.7575ZM238.324 48.2973L240.699 51.8598L242.363 50.7504L239.988 47.1879L238.324 48.2973ZM240.585 50.9819C240.322 51.7531 239.919 52.5933 239.365 53.5039L241.073 54.5438C241.685 53.5377 242.158 52.5654 242.478 51.6282L240.585 50.9819ZM239.365 53.5039C238.836 54.3726 238.149 55.1957 237.296 55.9714L238.641 57.4513C239.622 56.5603 240.435 55.5918 241.073 54.5438L239.365 53.5039ZM237.296 55.9714C236.474 56.7188 235.47 57.3483 234.27 57.8516L235.043 59.696C236.426 59.116 237.63 58.3705 238.641 57.4513L237.296 55.9714ZM234.27 57.8516C233.124 58.332 231.76 58.5863 230.156 58.5863V60.5863C231.969 60.5863 233.605 60.299 235.043 59.696L234.27 57.8516ZM230.156 58.5863C228.105 58.5863 226.305 58.1771 224.733 57.3816L223.83 59.1661C225.716 60.1206 227.832 60.5863 230.156 60.5863V58.5863ZM224.733 57.3816C223.149 56.5801 221.921 55.4962 221.023 54.1307L219.352 55.2295C220.454 56.9056 221.955 58.2176 223.83 59.1661L224.733 57.3816ZM221.023 54.1307C220.137 52.7837 219.688 51.248 219.688 49.4926H217.688C217.688 51.6121 218.238 53.5348 219.352 55.2295L221.023 54.1307ZM219.688 49.4926C219.688 47.8261 219.997 46.3963 220.587 45.1789L218.788 44.3063C218.045 45.8388 217.688 47.5757 217.688 49.4926H219.688ZM220.587 45.1789C221.177 43.9627 222.053 42.9334 223.237 42.0876L222.075 40.4601C220.634 41.4892 219.531 42.7724 218.788 44.3063L220.587 45.1789ZM223.246 42.0815C224.433 41.215 225.932 40.5432 227.771 40.0883L227.291 38.1468C225.256 38.6503 223.505 39.416 222.067 40.4662L223.246 42.0815ZM227.779 40.0865C229.639 39.6115 231.793 39.3676 234.25 39.3676V37.3676C231.665 37.3676 229.34 37.6237 227.284 38.1487L227.779 40.0865ZM234.25 39.3676H239.812V37.3676H234.25V39.3676ZM270.406 25.1488H271.406V24.1488H270.406V25.1488ZM270.406 31.0863V32.0863H271.406V31.0863H270.406ZM251.031 31.0863H250.031V32.0863H251.031V31.0863ZM251.031 25.1488V24.1488H250.031V25.1488H251.031ZM256.219 16.8363V15.8363H255.219V16.8363H256.219ZM264.5 16.8363H265.5V15.8363H264.5V16.8363ZM270.719 52.6176L271.719 52.6125L271.713 51.399L270.523 51.637L270.719 52.6176ZM270.75 58.8051L271.066 59.7538L271.754 59.5246L271.75 58.8L270.75 58.8051ZM268.406 59.3676L268.242 58.3812L268.238 58.3818L268.406 59.3676ZM260.625 58.6488L260.205 59.5565L260.216 59.5615L260.625 58.6488ZM257.375 55.5551L256.494 56.0277L256.497 56.033L257.375 55.5551ZM269.406 25.1488V31.0863H271.406V25.1488H269.406ZM270.406 30.0863H251.031V32.0863H270.406V30.0863ZM252.031 31.0863V25.1488H250.031V31.0863H252.031ZM251.031 26.1488H270.406V24.1488H251.031V26.1488ZM256.219 17.8363H264.5V15.8363H256.219V17.8363ZM263.5 16.8363V49.2113H265.5V16.8363H263.5ZM263.5 49.2113C263.5 50.2775 263.64 51.2283 264.012 51.971L265.801 51.0766C265.63 50.736 265.5 50.1451 265.5 49.2113H263.5ZM264.012 51.971C264.392 52.7317 264.994 53.2844 265.798 53.5626L266.452 51.6726C266.172 51.5758 265.962 51.3993 265.801 51.0766L264.012 51.971ZM265.798 53.5626C266.472 53.7958 267.234 53.8988 268.062 53.8988V51.8988C267.391 51.8988 266.862 51.8144 266.452 51.6726L265.798 53.5626ZM268.062 53.8988C268.642 53.8988 269.188 53.8654 269.698 53.7959L269.427 51.8143C269.021 51.8697 268.566 51.8988 268.062 51.8988V53.8988ZM269.698 53.7959C270.168 53.7317 270.575 53.6661 270.915 53.5982L270.523 51.637C270.237 51.6941 269.874 51.7534 269.427 51.8143L269.698 53.7959ZM269.719 52.6226L269.75 58.8101L271.75 58.8L271.719 52.6125L269.719 52.6226ZM270.434 57.8564C269.805 58.0659 269.076 58.2421 268.242 58.3812L268.571 60.354C269.486 60.2014 270.32 60.0026 271.066 59.7538L270.434 57.8564ZM268.238 58.3818C267.451 58.5162 266.54 58.5863 265.5 58.5863V60.5863C266.626 60.5863 267.653 60.5107 268.575 60.3533L268.238 58.3818ZM265.5 58.5863C263.757 58.5863 262.277 58.2927 261.034 57.7361L260.216 59.5615C261.765 60.255 263.534 60.5863 265.5 60.5863V58.5863ZM261.045 57.7413C259.854 57.1902 258.927 56.3149 258.253 55.0771L256.497 56.033C257.365 57.6286 258.604 58.8158 260.205 59.5564L261.045 57.7413ZM258.256 55.0825C257.59 53.8405 257.219 52.1251 257.219 49.8676H255.219C255.219 52.3184 255.618 54.3947 256.494 56.0277L258.256 55.0825ZM257.219 49.8676V16.8363H255.219V49.8676H257.219ZM284.656 25.1488H285.656V24.1488H284.656V25.1488ZM284.656 58.9613V59.9613H285.656V58.9613H284.656ZM276.375 58.9613H275.375V59.9613H276.375V58.9613ZM276.375 25.1488V24.1488H275.375V25.1488H276.375ZM277.062 13.2426L276.373 12.518L276.364 12.5266L277.062 13.2426ZM283.906 13.2426L283.208 13.9586L283.217 13.9671L283.906 13.2426ZM283.906 19.3363L283.217 18.6117L283.208 18.6203L283.906 19.3363ZM277.062 19.3363L276.364 20.0524L276.373 20.0609L277.062 19.3363ZM283.656 25.1488V58.9613H285.656V25.1488H283.656ZM284.656 57.9613H276.375V59.9613H284.656V57.9613ZM277.375 58.9613V25.1488H275.375V58.9613H277.375ZM276.375 26.1488H284.656V24.1488H276.375V26.1488ZM276.812 16.3051C276.812 15.3286 277.132 14.5714 277.761 13.9586L276.364 12.5266C275.326 13.5388 274.812 14.8232 274.812 16.3051H276.812ZM277.752 13.9671C278.381 13.3686 279.26 13.0238 280.5 13.0238V11.0238C278.865 11.0238 277.452 11.4916 276.373 12.518L277.752 13.9671ZM280.5 13.0238C281.741 13.0238 282.603 13.3689 283.208 13.9586L284.604 12.5266C283.543 11.4913 282.134 11.0238 280.5 11.0238V13.0238ZM283.217 13.9671C283.863 14.582 284.188 15.3367 284.188 16.3051H286.188C286.188 14.8152 285.657 13.5282 284.595 12.518L283.217 13.9671ZM284.188 16.3051C284.188 17.2473 283.867 17.9933 283.217 18.6118L284.595 20.0609C285.654 19.0544 286.188 17.7796 286.188 16.3051H284.188ZM283.208 18.6203C282.603 19.21 281.741 19.5551 280.5 19.5551V21.5551C282.134 21.5551 283.543 21.0876 284.604 20.0523L283.208 18.6203ZM280.5 19.5551C279.26 19.5551 278.381 19.2103 277.752 18.6118L276.373 20.0609C277.452 21.0874 278.865 21.5551 280.5 21.5551V19.5551ZM277.761 18.6203C277.128 18.004 276.812 17.2554 276.812 16.3051H274.812C274.812 17.7715 275.33 19.0437 276.364 20.0523L277.761 18.6203ZM292.125 34.8988L293.072 35.2207L293.073 35.2179L292.125 34.8988ZM300.188 25.8363L300.587 26.753L300.595 26.7493L300.188 25.8363ZM313.625 25.8363L313.217 26.7494L313.229 26.7545L313.625 25.8363ZM321.719 34.8988L320.771 35.2179L320.772 35.2207L321.719 34.8988ZM321.719 49.2426L322.666 49.5645L322.666 49.5616L321.719 49.2426ZM318.625 54.7113L319.376 55.3713L319.381 55.3663L318.625 54.7113ZM295.219 54.7113L294.463 55.3663L294.467 55.3713L295.219 54.7113ZM292.125 49.2426L291.177 49.5616L291.178 49.5645L292.125 49.2426ZM303.438 52.2738L302.931 53.1363L302.942 53.1427L302.953 53.1489L303.438 52.2738ZM310.375 52.2738L310.867 53.1444L310.874 53.1404L310.881 53.1363L310.375 52.2738ZM312.719 49.9613L311.876 49.4233L311.872 49.4297L311.868 49.4362L312.719 49.9613ZM314.094 37.6488L313.118 37.8691L313.119 37.8725L314.094 37.6488ZM312.719 34.2426L311.863 34.7597L311.869 34.7702L311.876 34.7806L312.719 34.2426ZM310.344 31.8988L309.824 32.753L309.835 32.7596L309.846 32.7659L310.344 31.8988ZM303.438 31.8988L303.944 32.7613L303.951 32.7572L303.957 32.753L303.438 31.8988ZM301.094 34.2426L301.945 34.7677L301.95 34.7597L301.094 34.2426ZM299.75 37.6488L300.725 37.8725L300.725 37.8691L299.75 37.6488ZM292.062 42.3988V41.7426H290.062V42.3988H292.062ZM292.062 41.7426C292.062 39.3592 292.403 37.1882 293.072 35.2207L291.178 34.5769C290.43 36.7762 290.062 39.1676 290.062 41.7426H292.062ZM293.073 35.2179C293.742 33.2288 294.71 31.5243 295.97 30.09L294.467 28.7701C293.019 30.4192 291.924 32.3605 291.177 34.5798L293.073 35.2179ZM295.97 30.09C297.223 28.6633 298.758 27.5509 300.587 26.7529L299.788 24.9197C297.7 25.8301 295.923 27.1136 294.467 28.7701L295.97 30.09ZM300.595 26.7493C302.406 25.9404 304.493 25.5238 306.875 25.5238V23.5238C304.257 23.5238 301.886 23.9823 299.78 24.9233L300.595 26.7493ZM306.875 25.5238C309.302 25.5238 311.409 25.9413 313.217 26.7493L314.033 24.9233C311.925 23.9814 309.532 23.5238 306.875 23.5238V25.5238ZM313.229 26.7545C315.079 27.553 316.622 28.6653 317.874 30.09L319.376 28.7701C317.919 27.1115 316.129 25.828 314.021 24.9182L313.229 26.7545ZM317.874 30.09C319.133 31.5243 320.101 33.2288 320.771 35.2179L322.666 34.5798C321.919 32.3605 320.825 30.4192 319.376 28.7701L317.874 30.09ZM320.772 35.2207C321.441 37.1882 321.781 39.3592 321.781 41.7426H323.781C323.781 39.1676 323.413 36.7762 322.666 34.5769L320.772 35.2207ZM321.781 41.7426V42.3988H323.781V41.7426H321.781ZM321.781 42.3988C321.781 44.7602 321.441 46.9326 320.771 48.9235L322.666 49.5616C323.413 47.3442 323.781 44.9541 323.781 42.3988H321.781ZM320.772 48.9207C320.103 50.8897 319.134 52.5977 317.869 54.0564L319.381 55.3663C320.825 53.7 321.918 51.7622 322.666 49.5645L320.772 48.9207ZM317.874 54.0514C316.62 55.4782 315.086 56.5905 313.256 57.3885L314.056 59.2217C316.143 58.3113 317.921 57.0278 319.376 55.3713L317.874 54.0514ZM313.256 57.3885C311.445 58.1787 309.345 58.5863 306.938 58.5863V60.5863C309.572 60.5863 311.951 60.1398 314.056 59.2217L313.256 57.3885ZM306.938 58.5863C304.552 58.5863 302.451 58.1792 300.615 57.3869L299.822 59.2232C301.945 60.1393 304.323 60.5863 306.938 60.5863V58.5863ZM300.615 57.3869C298.765 56.5884 297.222 55.4761 295.97 54.0514L294.467 55.3713C295.924 57.0299 297.714 58.3134 299.822 59.2232L300.615 57.3869ZM295.974 54.0564C294.71 52.5977 293.741 50.8897 293.072 48.9207L291.178 49.5645C291.925 51.7622 293.019 53.7 294.463 55.3663L295.974 54.0564ZM293.073 48.9235C292.403 46.9326 292.062 44.7602 292.062 42.3988H290.062C290.062 44.9541 290.431 47.3442 291.177 49.5616L293.073 48.9235ZM298.312 41.7426V42.3988H300.312V41.7426H298.312ZM298.312 42.3988C298.312 43.9436 298.465 45.4036 298.775 46.7753L300.725 46.3348C300.452 45.1233 300.312 43.8124 300.312 42.3988H298.312ZM298.775 46.7753C299.087 48.1588 299.573 49.4002 300.243 50.4864L301.945 49.4362C301.407 48.5641 300.996 47.5347 300.725 46.3348L298.775 46.7753ZM300.243 50.4864C300.929 51.5994 301.827 52.4882 302.931 53.1363L303.944 51.4114C303.131 50.9345 302.466 50.2816 301.945 49.4362L300.243 50.4864ZM302.953 53.1489C304.109 53.7881 305.449 54.0863 306.938 54.0863V52.0863C305.717 52.0863 304.724 51.8429 303.922 51.3988L302.953 53.1489ZM306.938 54.0863C308.407 54.0863 309.73 53.7871 310.867 53.1444L309.883 51.4033C309.103 51.8439 308.135 52.0863 306.938 52.0863V54.0863ZM310.881 53.1363C311.985 52.4882 312.883 51.5994 313.57 50.4864L311.868 49.4362C311.346 50.2816 310.681 50.9345 309.869 51.4114L310.881 53.1363ZM313.562 50.4994C314.257 49.4101 314.756 48.1642 315.069 46.7753L313.118 46.3348C312.849 47.5293 312.431 48.5542 311.876 49.4233L313.562 50.4994ZM315.069 46.7753C315.379 45.4036 315.531 43.9436 315.531 42.3988H313.531C313.531 43.8124 313.392 45.1233 313.118 46.3348L315.069 46.7753ZM315.531 42.3988V41.7426H313.531V42.3988H315.531ZM315.531 41.7426C315.531 40.2177 315.379 38.7774 315.068 37.4251L313.119 37.8725C313.392 39.0619 313.531 40.3508 313.531 41.7426H315.531ZM315.069 37.4286C314.756 36.0397 314.257 34.7938 313.562 33.7045L311.876 34.7806C312.431 35.6497 312.849 36.6746 313.118 37.8691L315.069 37.4286ZM313.575 33.7255C312.886 32.5856 311.973 31.6817 310.842 31.0317L309.846 32.7659C310.673 33.241 311.343 33.8996 311.863 34.7597L313.575 33.7255ZM310.864 31.0446C309.719 30.3479 308.374 30.0238 306.875 30.0238V32.0238C308.084 32.0238 309.052 32.2831 309.824 32.753L310.864 31.0446ZM306.875 30.0238C305.393 30.0238 304.06 30.3493 302.918 31.0446L303.957 32.753C304.732 32.2817 305.69 32.0238 306.875 32.0238V30.0238ZM302.931 31.0364C301.822 31.6875 300.923 32.5906 300.238 33.7255L301.95 34.7597C302.472 33.8945 303.136 33.2352 303.944 32.7613L302.931 31.0364ZM300.243 33.7175C299.573 34.8037 299.087 36.0451 298.775 37.4286L300.725 37.8691C300.996 36.6692 301.407 35.6398 301.945 34.7677L300.243 33.7175ZM298.775 37.4251C298.465 38.7774 298.312 40.2177 298.312 41.7426H300.312C300.312 40.3508 300.452 39.0619 300.725 37.8725L298.775 37.4251ZM336.875 32.3676H337.875V32.333L337.873 32.2985L336.875 32.3676ZM336.875 58.9613V59.9613H337.875V58.9613H336.875ZM328.625 58.9613H327.625V59.9613H328.625V58.9613ZM328.625 25.1488V24.1488H327.625V25.1488H328.625ZM336.375 25.1488L337.373 25.0797L337.308 24.1488H336.375V25.1488ZM335.562 40.8363V41.8363H336.562V40.8363H335.562ZM333.125 40.8363L332.125 40.8279L332.116 41.8363H333.125V40.8363ZM336.844 28.9926L336.073 28.3557L336.067 28.3624L336.844 28.9926ZM354.281 27.3988L353.552 28.0828L353.559 28.0907L354.281 27.3988ZM356.469 31.3363L355.513 31.6304L355.515 31.6378L355.518 31.6451L356.469 31.3363ZM357.25 58.9613V59.9613H358.25V58.9613H357.25ZM348.938 58.9613H347.938V59.9613H348.938V58.9613ZM348.25 33.5551L347.351 33.9939L347.356 34.0023L347.36 34.0106L348.25 33.5551ZM346.312 31.6488L345.902 32.5608L345.911 32.5645L346.312 31.6488ZM339.875 31.8676L340.346 32.75L340.353 32.7462L339.875 31.8676ZM337.5 33.9613L336.689 33.3765L336.684 33.3828L336.68 33.3892L337.5 33.9613ZM335.875 32.3676V58.9613H337.875V32.3676H335.875ZM336.875 57.9613H328.625V59.9613H336.875V57.9613ZM329.625 58.9613V25.1488H327.625V58.9613H329.625ZM328.625 26.1488H336.375V24.1488H328.625V26.1488ZM335.377 25.2179L335.877 32.4367L337.873 32.2985L337.373 25.0797L335.377 25.2179ZM335.562 39.8363H333.125V41.8363H335.562V39.8363ZM334.125 40.8448C334.145 38.4712 334.467 36.3448 335.077 34.4561L333.173 33.8415C332.492 35.9529 332.147 38.2848 332.125 40.8279L334.125 40.8448ZM335.077 34.4561C335.69 32.5579 336.541 30.9523 337.62 29.6228L336.067 28.3624C334.813 29.9079 333.852 31.7398 333.173 33.8415L335.077 34.4561ZM337.615 29.6295C338.712 28.3006 340.003 27.2894 341.491 26.5836L340.634 24.7766C338.872 25.6125 337.35 26.8096 336.073 28.3557L337.615 29.6295ZM341.491 26.5836C342.968 25.8831 344.631 25.5238 346.5 25.5238V23.5238C344.369 23.5238 342.407 23.9354 340.634 24.7766L341.491 26.5836ZM346.5 25.5238C348.031 25.5238 349.386 25.7398 350.577 26.1554L351.236 24.2672C349.801 23.7662 348.219 23.5238 346.5 23.5238V25.5238ZM350.577 26.1554C351.739 26.5614 352.726 27.2022 353.552 28.0828L355.011 26.7149C353.961 25.5955 352.698 24.778 351.236 24.2672L350.577 26.1554ZM353.559 28.0907C354.388 28.9554 355.049 30.1211 355.513 31.6304L357.425 31.0422C356.889 29.3016 356.091 27.8422 355.003 26.7069L353.559 28.0907ZM355.518 31.6451C355.996 33.1188 356.25 34.9863 356.25 37.2738H358.25C358.25 34.853 357.983 32.7622 357.42 31.0275L355.518 31.6451ZM356.25 37.2738V58.9613H358.25V37.2738H356.25ZM357.25 57.9613H348.938V59.9613H357.25V57.9613ZM349.938 58.9613V37.2113H347.938V58.9613H349.938ZM349.938 37.2113C349.938 35.5879 349.699 34.1917 349.14 33.0996L347.36 34.0106C347.718 34.7101 347.938 35.7514 347.938 37.2113H349.938ZM349.149 33.1162C348.615 32.0235 347.801 31.2102 346.714 30.7332L345.911 32.5645C346.532 32.8375 347.01 33.295 347.351 33.9939L349.149 33.1162ZM346.723 30.7369C345.724 30.2875 344.543 30.0863 343.219 30.0863V32.0863C344.353 32.0863 345.234 32.2602 345.902 32.5608L346.723 30.7369ZM343.219 30.0863C341.809 30.0863 340.525 30.3762 339.397 30.989L340.353 32.7462C341.142 32.3173 342.087 32.0863 343.219 32.0863V30.0863ZM339.404 30.9852C338.327 31.56 337.42 32.3618 336.689 33.3765L338.311 34.5461C338.871 33.7692 339.548 33.1752 340.346 32.7499L339.404 30.9852ZM336.68 33.3892C335.985 34.3851 335.461 35.5191 335.101 36.7804L337.024 37.3298C337.33 36.2577 337.765 35.3292 338.32 34.5335L336.68 33.3892ZM335.101 36.7804C334.739 38.046 334.562 39.3999 334.562 40.8363H336.562C336.562 39.5645 336.719 38.3975 337.024 37.3298L335.101 36.7804ZM397.094 50.0551L396.139 49.759L396.119 49.8213L396.108 49.8856L397.094 50.0551ZM408.438 13.4613V12.4613H407.701L407.482 13.1652L408.438 13.4613ZM417.969 13.4613L418.912 13.7942L419.382 12.4613H417.969V13.4613ZM401.906 58.9613V59.9613H402.614L402.849 59.2942L401.906 58.9613ZM395.562 58.9613L394.577 58.7919L394.376 59.9613H395.562V58.9613ZM386.625 13.4613L387.581 13.1667L387.363 12.4613H386.625V13.4613ZM397.906 50.0551L398.89 49.8756L398.879 49.8172L398.862 49.7605L397.906 50.0551ZM399.531 58.9613V59.9613H400.73L400.515 58.7818L399.531 58.9613ZM393.125 58.9613L392.182 59.2931L392.417 59.9613H393.125V58.9613ZM377.125 13.4613V12.4613H375.713L376.182 13.7931L377.125 13.4613ZM398.049 50.3512L409.393 13.7574L407.482 13.1652L396.139 49.759L398.049 50.3512ZM408.438 14.4613H417.969V12.4613H408.438V14.4613ZM417.026 13.1284L400.963 58.6284L402.849 59.2942L418.912 13.7942L417.026 13.1284ZM401.906 57.9613H395.562V59.9613H401.906V57.9613ZM396.548 59.1308L398.079 50.2245L396.108 49.8856L394.577 58.7919L396.548 59.1308ZM385.669 13.7559L396.951 50.3497L398.862 49.7605L387.581 13.1667L385.669 13.7559ZM396.922 50.2346L398.547 59.1408L400.515 58.7818L398.89 49.8756L396.922 50.2346ZM399.531 57.9613H393.125V59.9613H399.531V57.9613ZM394.068 58.6296L378.068 13.1296L376.182 13.7931L392.182 59.2931L394.068 58.6296ZM377.125 14.4613H386.625V12.4613H377.125V14.4613ZM430.781 25.1488H431.781V24.1488H430.781V25.1488ZM430.781 58.9613V59.9613H431.781V58.9613H430.781ZM422.5 58.9613H421.5V59.9613H422.5V58.9613ZM422.5 25.1488V24.1488H421.5V25.1488H422.5ZM423.188 13.2426L422.498 12.518L422.489 12.5266L423.188 13.2426ZM430.031 13.2426L429.333 13.9586L429.342 13.9671L430.031 13.2426ZM430.031 19.3363L429.342 18.6117L429.333 18.6203L430.031 19.3363ZM423.188 19.3363L422.489 20.0524L422.498 20.0609L423.188 19.3363ZM429.781 25.1488V58.9613H431.781V25.1488H429.781ZM430.781 57.9613H422.5V59.9613H430.781V57.9613ZM423.5 58.9613V25.1488H421.5V58.9613H423.5ZM422.5 26.1488H430.781V24.1488H422.5V26.1488ZM422.938 16.3051C422.938 15.3286 423.257 14.5714 423.886 13.9586L422.489 12.5266C421.451 13.5388 420.938 14.8232 420.938 16.3051H422.938ZM423.877 13.9671C424.506 13.3686 425.385 13.0238 426.625 13.0238V11.0238C424.99 11.0238 423.577 11.4916 422.498 12.518L423.877 13.9671ZM426.625 13.0238C427.866 13.0238 428.728 13.3689 429.333 13.9586L430.729 12.5266C429.668 11.4913 428.259 11.0238 426.625 11.0238V13.0238ZM429.342 13.9671C429.988 14.582 430.312 15.3367 430.312 16.3051H432.312C432.312 14.8152 431.782 13.5282 430.72 12.518L429.342 13.9671ZM430.312 16.3051C430.312 17.2473 429.992 17.9933 429.342 18.6118L430.72 20.0609C431.779 19.0544 432.312 17.7796 432.312 16.3051H430.312ZM429.333 18.6203C428.728 19.21 427.866 19.5551 426.625 19.5551V21.5551C428.259 21.5551 429.668 21.0876 430.729 20.0523L429.333 18.6203ZM426.625 19.5551C425.385 19.5551 424.506 19.2103 423.877 18.6118L422.498 20.0609C423.577 21.0874 424.99 21.5551 426.625 21.5551V19.5551ZM423.886 18.6203C423.253 18.004 422.938 17.2554 422.938 16.3051H420.938C420.938 17.7715 421.455 19.0437 422.489 20.0523L423.886 18.6203ZM447.406 10.9613H448.406V9.96133H447.406V10.9613ZM447.406 58.9613V59.9613H448.406V58.9613H447.406ZM439.125 58.9613H438.125V59.9613H439.125V58.9613ZM439.125 10.9613V9.96133H438.125V10.9613H439.125ZM446.406 10.9613V58.9613H448.406V10.9613H446.406ZM447.406 57.9613H439.125V59.9613H447.406V57.9613ZM440.125 58.9613V10.9613H438.125V58.9613H440.125ZM439.125 11.9613H447.406V9.96133H439.125V11.9613ZM464.031 10.9613H465.031V9.96133H464.031V10.9613ZM464.031 58.9613V59.9613H465.031V58.9613H464.031ZM455.75 58.9613H454.75V59.9613H455.75V58.9613ZM455.75 10.9613V9.96133H454.75V10.9613H455.75ZM463.031 10.9613V58.9613H465.031V10.9613H463.031ZM464.031 57.9613H455.75V59.9613H464.031V57.9613ZM456.75 58.9613V10.9613H454.75V58.9613H456.75ZM455.75 11.9613H464.031V9.96133H455.75V11.9613ZM482.125 31.1488L481.715 30.2369L481.706 30.2409L482.125 31.1488ZM480.25 32.7426L481.086 33.2913L481.094 33.2795L480.25 32.7426ZM479.594 35.0551V36.0551H480.594V35.0551H479.594ZM471.312 35.0551H470.312V36.0551H471.312V35.0551ZM472.312 31.0863L473.195 31.5569L473.198 31.5509L472.312 31.0863ZM475.156 27.7113L475.779 28.4935L475.781 28.4922L475.156 27.7113ZM479.625 25.3676L479.319 24.4155L479.316 24.4166L479.625 25.3676ZM492.344 25.8363L491.943 26.7526L491.954 26.7574L492.344 25.8363ZM497.094 29.7113L496.26 30.2637L496.265 30.2706L497.094 29.7113ZM499.156 55.3363L498.171 55.5062L498.172 55.516L498.174 55.5258L499.156 55.3363ZM500.156 58.4301H501.156V58.194L501.051 57.9829L500.156 58.4301ZM500.156 58.9613V59.9613H501.156V58.9613H500.156ZM491.75 58.9613L490.843 59.3818L491.111 59.9613H491.75V58.9613ZM490.844 55.7113L489.856 55.8657L489.856 55.8681L490.844 55.7113ZM491.688 38.3676L492.687 38.3548L492.675 37.3676H491.688V38.3676ZM491.75 43.2738V44.2738H492.763L492.75 43.2611L491.75 43.2738ZM483.125 43.6801L483.372 44.649L483.382 44.6465L483.392 44.6439L483.125 43.6801ZM480.719 44.8051L481.327 45.5987L481.335 45.5924L481.343 45.586L480.719 44.8051ZM479.312 46.5551L480.218 46.9795L480.223 46.9689L479.312 46.5551ZM479.406 51.0863L478.535 51.5766L478.54 51.5868L478.546 51.5969L479.406 51.0863ZM481.094 52.6801L480.617 53.5589L480.631 53.567L480.647 53.5745L481.094 52.6801ZM487.531 52.3676L488.005 53.2481L488.012 53.2445L488.018 53.2409L487.531 52.3676ZM490.062 50.1801L489.246 49.6026L490.062 50.1801ZM491.031 47.7426L491.863 47.1879L490.195 44.6855L490.033 47.6886L491.031 47.7426ZM493.406 51.3051L494.353 51.6282L494.512 51.1611L494.238 50.7504L493.406 51.3051ZM471.562 44.7426L470.663 44.3063L471.562 44.7426ZM474.531 41.2738L475.113 42.0876L475.121 42.0815L474.531 41.2738ZM479.406 39.1176L479.646 40.0884L479.654 40.0865L479.406 39.1176ZM491.531 51.7738V36.1801H489.531V51.7738H491.531ZM491.531 36.1801C491.531 34.9209 491.314 33.7781 490.841 32.7823L489.034 33.6404C489.353 34.3112 489.531 35.1476 489.531 36.1801H491.531ZM490.841 32.7823C490.355 31.7605 489.606 30.9613 488.616 30.4029L487.634 32.1448C488.269 32.503 488.728 32.9955 489.034 33.6404L490.841 32.7823ZM488.616 30.4029C487.611 29.836 486.397 29.5863 485.031 29.5863V31.5863C486.165 31.5863 487.014 31.795 487.634 32.1448L488.616 30.4029ZM485.031 29.5863C483.815 29.5863 482.701 29.7931 481.715 30.2369L482.535 32.0608C483.216 31.7546 484.04 31.5863 485.031 31.5863V29.5863ZM481.706 30.2409C480.737 30.6881 479.957 31.3406 479.406 32.2057L481.094 33.2795C481.418 32.7696 481.888 32.3596 482.544 32.0568L481.706 30.2409ZM479.414 32.1939C478.859 33.0393 478.594 34.0049 478.594 35.0551H480.594C480.594 34.3553 480.766 33.7792 481.086 33.2912L479.414 32.1939ZM479.594 34.0551H471.312V36.0551H479.594V34.0551ZM472.312 35.0551C472.312 33.8259 472.604 32.6643 473.195 31.5569L471.43 30.6157C470.687 32.0083 470.312 33.4926 470.312 35.0551H472.312ZM473.198 31.5509C473.794 30.4143 474.648 29.3945 475.779 28.4935L474.533 26.9292C473.206 27.9865 472.164 29.2167 471.427 30.6218L473.198 31.5509ZM475.781 28.4922C476.925 27.5769 478.304 26.8488 479.934 26.3185L479.316 24.4166C477.487 25.0114 475.887 25.8458 474.532 26.9305L475.781 28.4922ZM479.931 26.3196C481.566 25.794 483.419 25.5238 485.5 25.5238V23.5238C483.248 23.5238 481.184 23.8162 479.319 24.4156L479.931 26.3196ZM485.5 25.5238C487.948 25.5238 490.089 25.9416 491.943 26.7525L492.745 24.9202C490.598 23.9811 488.177 23.5238 485.5 23.5238V25.5238ZM491.954 26.7574C493.805 27.5397 495.229 28.7081 496.26 30.2637L497.927 29.159C496.666 27.2562 494.924 25.8413 492.733 24.9152L491.954 26.7574ZM496.265 30.2706C497.294 31.7965 497.844 33.7653 497.844 36.2426H499.844C499.844 33.4698 499.227 31.0845 497.923 29.152L496.265 30.2706ZM497.844 36.2426V50.9926H499.844V36.2426H497.844ZM497.844 50.9926C497.844 52.7175 497.95 54.2253 498.171 55.5062L500.142 55.1664C499.946 54.0307 499.844 52.6427 499.844 50.9926H497.844ZM498.174 55.5258C498.417 56.7826 498.775 57.9042 499.262 58.8773L501.051 57.9829C500.662 57.2059 500.354 56.265 500.138 55.1468L498.174 55.5258ZM499.156 58.4301V58.9613H501.156V58.4301H499.156ZM500.156 57.9613H491.75V59.9613H500.156V57.9613ZM492.657 58.5409C492.313 57.797 492.031 56.8101 491.831 55.5546L489.856 55.8681C490.073 57.2375 490.396 58.4173 490.843 59.3818L492.657 58.5409ZM491.832 55.557C491.631 54.2724 491.531 53.0116 491.531 51.7738H489.531C489.531 53.1194 489.64 54.4836 489.856 55.8657L491.832 55.557ZM490.688 38.3803L490.75 43.2866L492.75 43.2611L492.687 38.3548L490.688 38.3803ZM491.75 42.2738H486.531V44.2738H491.75V42.2738ZM486.531 42.2738C485.173 42.2738 483.944 42.416 482.858 42.7163L483.392 44.6439C484.264 44.4025 485.307 44.2738 486.531 44.2738V42.2738ZM482.878 42.7112C481.796 42.9874 480.855 43.4154 480.094 44.0242L481.343 45.586C481.832 45.1948 482.496 44.8728 483.372 44.649L482.878 42.7112ZM480.11 44.0115C479.361 44.5861 478.786 45.2978 478.402 46.1413L480.223 46.9689C480.464 46.4373 480.827 45.9824 481.327 45.5987L480.11 44.0115ZM478.407 46.1307C478.023 46.9498 477.844 47.8589 477.844 48.8363H479.844C479.844 48.1055 479.977 47.4937 480.218 46.9795L478.407 46.1307ZM477.844 48.8363C477.844 49.8256 478.068 50.7471 478.535 51.5766L480.278 50.5961C479.994 50.0923 479.844 49.5137 479.844 48.8363H477.844ZM478.546 51.5969C479.041 52.4295 479.741 53.0833 480.617 53.5589L481.571 51.8012C480.989 51.4852 480.563 51.0765 480.266 50.5758L478.546 51.5969ZM480.647 53.5745C481.56 54.0311 482.593 54.2426 483.719 54.2426V52.2426C482.844 52.2426 482.128 52.0791 481.541 51.7857L480.647 53.5745ZM483.719 54.2426C485.312 54.2426 486.752 53.9232 488.005 53.2481L487.057 51.4871C486.144 51.9786 485.042 52.2426 483.719 52.2426V54.2426ZM488.018 53.2409C489.208 52.5774 490.174 51.7543 490.879 50.7575L489.246 49.6026C488.743 50.3142 488.021 50.9495 487.044 51.4942L488.018 53.2409ZM490.879 50.7575C491.554 49.8025 491.975 48.8113 492.03 47.7966L490.033 47.6886C490.004 48.2156 489.779 48.8493 489.246 49.6026L490.879 50.7575ZM490.199 48.2973L492.574 51.8598L494.238 50.7504L491.863 47.1879L490.199 48.2973ZM492.46 50.9819C492.197 51.7531 491.794 52.5933 491.24 53.5039L492.948 54.5438C493.56 53.5377 494.033 52.5654 494.353 51.6282L492.46 50.9819ZM491.24 53.5039C490.711 54.3726 490.024 55.1957 489.171 55.9714L490.516 57.4513C491.497 56.5603 492.31 55.5918 492.948 54.5438L491.24 53.5039ZM489.171 55.9714C488.349 56.7188 487.345 57.3483 486.145 57.8516L486.918 59.696C488.301 59.116 489.505 58.3705 490.516 57.4513L489.171 55.9714ZM486.145 57.8516C484.999 58.332 483.635 58.5863 482.031 58.5863V60.5863C483.844 60.5863 485.48 60.299 486.918 59.696L486.145 57.8516ZM482.031 58.5863C479.98 58.5863 478.18 58.1771 476.608 57.3816L475.705 59.1661C477.591 60.1206 479.707 60.5863 482.031 60.5863V58.5863ZM476.608 57.3816C475.024 56.5801 473.796 55.4962 472.898 54.1307L471.227 55.2295C472.329 56.9056 473.83 58.2176 475.705 59.1661L476.608 57.3816ZM472.898 54.1307C472.012 52.7837 471.562 51.248 471.562 49.4926H469.562C469.562 51.6121 470.113 53.5348 471.227 55.2295L472.898 54.1307ZM471.562 49.4926C471.562 47.8261 471.872 46.3963 472.462 45.1789L470.663 44.3063C469.92 45.8388 469.562 47.5757 469.562 49.4926H471.562ZM472.462 45.1789C473.052 43.9627 473.928 42.9334 475.112 42.0876L473.95 40.4601C472.509 41.4892 471.406 42.7724 470.663 44.3063L472.462 45.1789ZM475.121 42.0815C476.308 41.215 477.807 40.5432 479.646 40.0883L479.166 38.1468C477.131 38.6503 475.38 39.416 473.942 40.4662L475.121 42.0815ZM479.654 40.0865C481.514 39.6115 483.668 39.3676 486.125 39.3676V37.3676C483.54 37.3676 481.215 37.6237 479.159 38.1487L479.654 40.0865ZM486.125 39.3676H491.688V37.3676H486.125V39.3676ZM527.781 25.1488V24.1488H526.877L526.786 25.0481L527.781 25.1488ZM535.281 25.1488H536.281V24.1488H535.281V25.1488ZM533.281 65.7113L532.434 65.1798L532.428 65.1895L533.281 65.7113ZM527.75 70.5863L527.328 69.6795L527.322 69.6826L527.75 70.5863ZM515.062 71.7113L514.829 72.6837L514.832 72.6844L515.062 71.7113ZM510.531 69.9301L511.018 69.0565L511.014 69.0541L510.531 69.9301ZM506.938 66.8363L506.142 66.2298L505.682 66.8329L506.139 67.4384L506.938 66.8363ZM510.656 61.9613L511.416 61.3105L510.611 60.3719L509.861 61.3548L510.656 61.9613ZM514.469 64.9301L514.905 64.0304L514.895 64.0253L514.469 64.9301ZM523.312 65.0238L522.859 64.1326L522.85 64.1374L522.84 64.1424L523.312 65.0238ZM526.031 62.3363L525.156 61.852L525.151 61.8613L525.146 61.8706L526.031 62.3363ZM527 32.8676L526.005 32.7669L526 32.8171V32.8676H527ZM505.875 34.7738L506.834 35.0586L506.834 35.056L505.875 34.7738ZM508.562 29.3051L507.774 28.6896L507.769 28.6964L508.562 29.3051ZM512.844 25.7738L512.401 24.8772L512.397 24.8794L512.844 25.7738ZM524.156 25.7426L523.685 26.6246L523.69 26.6272L524.156 25.7426ZM527.969 29.2113L527.137 29.7661L527.142 29.774L527.969 29.2113ZM530.344 34.5551L529.379 34.8182L529.382 34.8298L530.344 34.5551ZM531.688 41.3051H532.688V41.2418L532.68 41.179L531.688 41.3051ZM531.688 43.0863L532.68 43.2072L532.688 43.147V43.0863H531.688ZM530.281 49.6801L529.33 49.3728L529.327 49.3818L530.281 49.6801ZM527.781 54.9301L528.599 55.5059L528.603 55.5005L527.781 54.9301ZM508.562 54.7113L507.765 55.3148L507.77 55.3216L508.562 54.7113ZM505.875 49.2738L504.917 49.5612L505.875 49.2738ZM514.969 49.9301L514.118 50.4552L514.123 50.4634L514.969 49.9301ZM524.719 51.9301L525.266 52.7671L525.27 52.7645L524.719 51.9301ZM527.219 48.9613L526.31 48.5442L526.307 48.551L527.219 48.9613ZM528.344 44.6801L529.338 44.7848L529.344 44.7326V44.6801H528.344ZM528.344 39.7738H529.344V39.7322L529.34 39.6908L528.344 39.7738ZM527.656 36.3051L526.702 36.6044L526.705 36.6129L526.708 36.6213L527.656 36.3051ZM517.312 31.9301L517.813 32.7959L517.82 32.7918L517.827 32.7876L517.312 31.9301ZM513.625 37.6176L512.653 37.3824L512.651 37.3899L512.65 37.3973L513.625 37.6176ZM527.781 26.1488H535.281V24.1488H527.781V26.1488ZM534.281 25.1488V57.9301H536.281V25.1488H534.281ZM534.281 57.9301C534.281 60.8462 533.648 63.246 532.434 65.1798L534.128 66.2428C535.582 63.9266 536.281 61.139 536.281 57.9301H534.281ZM532.428 65.1895C531.223 67.1602 529.533 68.6548 527.328 69.6795L528.172 71.4931C530.717 70.3095 532.715 68.5542 534.134 66.2331L532.428 65.1895ZM527.322 69.6826C525.105 70.7329 522.495 71.2738 519.469 71.2738V73.2738C522.734 73.2738 525.645 72.6897 528.178 71.4901L527.322 69.6826ZM519.469 71.2738C518.206 71.2738 516.815 71.0988 515.293 70.7383L514.832 72.6844C516.476 73.0738 518.023 73.2738 519.469 73.2738V71.2738ZM515.296 70.7389C513.825 70.386 512.4 69.8264 511.018 69.0565L510.045 70.8037C511.579 71.6587 513.175 72.2867 514.829 72.6837L515.296 70.7389ZM511.014 69.0541C509.696 68.3283 508.607 67.389 507.736 66.2342L506.139 67.4384C507.185 68.8253 508.492 69.9485 510.049 70.806L511.014 69.0541ZM507.733 67.4428L511.451 62.5678L509.861 61.3548L506.142 66.2298L507.733 67.4428ZM509.897 62.6121C511.104 64.0207 512.486 65.1021 514.043 65.8349L514.895 64.0253C513.618 63.4248 512.458 62.527 511.416 61.3105L509.897 62.6121ZM514.032 65.8297C515.591 66.5863 517.272 66.9613 519.062 66.9613V64.9613C517.561 64.9613 516.18 64.6489 514.905 64.0304L514.032 65.8297ZM519.062 66.9613C520.852 66.9613 522.44 66.6257 523.785 65.9053L522.84 64.1424C521.852 64.6719 520.606 64.9613 519.062 64.9613V66.9613ZM523.766 65.9151C525.139 65.2164 526.196 64.1712 526.916 62.8021L525.146 61.8706C524.617 62.8764 523.861 63.6229 522.859 64.1326L523.766 65.9151ZM526.906 62.8207C527.654 61.4698 528 59.8551 528 58.0238H526C526 59.6092 525.7 60.8696 525.156 61.852L526.906 62.8207ZM528 58.0238V32.8676H526V58.0238H528ZM527.995 32.9683L528.776 25.2495L526.786 25.0481L526.005 32.7669L527.995 32.9683ZM505.938 42.4613V41.8051H503.938V42.4613H505.938ZM505.938 41.8051C505.938 39.3016 506.24 37.0557 506.834 35.0586L504.916 34.4891C504.26 36.7003 503.938 39.1419 503.938 41.8051H505.938ZM506.834 35.056C507.43 33.031 508.275 31.3229 509.356 29.9137L507.769 28.6964C506.517 30.3289 505.57 32.2667 504.916 34.4917L506.834 35.056ZM509.351 29.9205C510.45 28.5126 511.762 27.4327 513.291 26.6683L512.397 24.8794C510.592 25.7816 509.05 27.0559 507.774 28.6896L509.351 29.9205ZM513.287 26.6705C514.821 25.9128 516.562 25.5238 518.531 25.5238V23.5238C516.292 23.5238 514.242 23.9682 512.401 24.8772L513.287 26.6705ZM518.531 25.5238C520.643 25.5238 522.345 25.9089 523.685 26.6246L524.627 24.8606C522.925 23.9512 520.878 23.5238 518.531 23.5238V25.5238ZM523.69 26.6272C525.079 27.3592 526.226 28.3998 527.137 29.766L528.801 28.6566C527.712 27.0228 526.317 25.7509 524.622 24.8579L523.69 26.6272ZM527.142 29.774C528.091 31.1678 528.841 32.8439 529.379 34.8182L531.309 34.292C530.722 32.1412 529.889 30.2549 528.795 28.6487L527.142 29.774ZM529.382 34.8298C529.95 36.8155 530.388 39.015 530.695 41.4312L532.68 41.179C532.362 38.6785 531.905 36.378 531.305 34.2804L529.382 34.8298ZM530.688 41.3051V43.0863H532.688V41.3051H530.688ZM530.695 42.9655C530.41 45.3071 529.953 47.4416 529.33 49.3728L531.233 49.9874C531.901 47.9185 532.382 45.6572 532.68 43.2072L530.695 42.9655ZM529.327 49.3818C528.728 51.2989 527.936 52.9544 526.96 54.3597L528.603 55.5005C529.71 53.9058 530.585 52.0613 531.236 49.9784L529.327 49.3818ZM526.964 54.3543C526.009 55.7093 524.836 56.747 523.44 57.4829L524.372 59.2522C526.059 58.3632 527.47 57.1092 528.599 55.5059L526.964 54.3543ZM523.44 57.4829C522.068 58.2062 520.421 58.5863 518.469 58.5863V60.5863C520.683 60.5863 522.662 60.154 524.372 59.2522L523.44 57.4829ZM518.469 58.5863C516.526 58.5863 514.81 58.1892 513.3 57.4152L512.388 59.195C514.211 60.1293 516.245 60.5863 518.469 60.5863V58.5863ZM513.3 57.4152C511.77 56.6309 510.456 55.5306 509.355 54.1011L507.77 55.3216C509.044 56.9754 510.585 58.2709 512.388 59.195L513.3 57.4152ZM509.36 54.1079C508.274 52.6723 507.428 50.9699 506.833 48.9865L504.917 49.5612C505.572 51.7444 506.518 53.667 507.765 55.3148L509.36 54.1079ZM506.833 48.9865C506.239 47.0076 505.938 44.8348 505.938 42.4613H503.938C503.938 45.0045 504.261 47.3734 504.917 49.5612L506.833 48.9865ZM512.188 41.8051V42.4613H514.188V41.8051H512.188ZM512.188 42.4613C512.188 43.9862 512.34 45.4265 512.65 46.7788L514.6 46.3314C514.327 45.142 514.188 43.8531 514.188 42.4613H512.188ZM512.65 46.7788C512.963 48.1422 513.449 49.3715 514.118 50.4552L515.82 49.405C515.28 48.5303 514.87 47.5097 514.6 46.3314L512.65 46.7788ZM514.123 50.4634C514.806 51.5473 515.679 52.4133 516.741 53.041L517.759 51.3192C516.988 50.8635 516.34 50.2295 515.815 49.3968L514.123 50.4634ZM516.741 53.041C517.839 53.6899 519.116 53.9926 520.531 53.9926V51.9926C519.405 51.9926 518.494 51.7536 517.759 51.3192L516.741 53.041ZM520.531 53.9926C522.373 53.9926 523.975 53.6109 525.266 52.7671L524.172 51.0931C523.295 51.666 522.106 51.9926 520.531 51.9926V53.9926ZM525.27 52.7645C526.538 51.9272 527.493 50.7878 528.131 49.3717L526.307 48.551C525.819 49.6348 525.108 50.4747 524.168 51.0956L525.27 52.7645ZM528.128 49.3785C528.762 47.9962 529.162 46.4615 529.338 44.7848L527.349 44.5754C527.192 46.0654 526.842 47.3848 526.31 48.5442L528.128 49.3785ZM529.344 44.6801V39.7738H527.344V44.6801H529.344ZM529.34 39.6908C529.23 38.3708 528.987 37.1353 528.605 35.9889L526.708 36.6213C527.034 37.5999 527.249 38.6769 527.347 39.8569L529.34 39.6908ZM528.61 36.0057C528.246 34.8438 527.725 33.816 527.037 32.9382L525.463 34.172C525.983 34.8358 526.4 35.6414 526.702 36.6044L528.61 36.0057ZM527.037 32.9382C526.33 32.0367 525.432 31.3365 524.36 30.8364L523.515 32.6488C524.318 33.0236 524.961 33.5318 525.463 34.172L527.037 32.9382ZM524.36 30.8364C523.262 30.3237 521.996 30.0863 520.594 30.0863V32.0863C521.775 32.0863 522.738 32.2864 523.515 32.6488L524.36 30.8364ZM520.594 30.0863C519.189 30.0863 517.912 30.4041 516.798 31.0726L517.827 32.7876C518.588 32.3311 519.499 32.0863 520.594 32.0863V30.0863ZM516.812 31.0642C515.722 31.6939 514.834 32.5753 514.149 33.6862L515.851 34.7364C516.374 33.889 517.028 33.2496 517.813 32.7959L516.812 31.0642ZM514.149 33.6862C513.482 34.7677 512.987 36.0039 512.653 37.3824L514.597 37.8527C514.888 36.6479 515.31 35.6133 515.851 34.7364L514.149 33.6862ZM512.65 37.3973C512.34 38.7701 512.188 40.2406 512.188 41.8051H514.188C514.188 40.3696 514.327 39.0484 514.6 37.8378L512.65 37.3973ZM545.781 54.8676L545.054 55.5542L545.059 55.5594L545.064 55.5645L545.781 54.8676ZM542.5 49.6488L541.564 50L541.568 50.0118L542.5 49.6488ZM542.5 34.8676L543.443 35.2004L543.444 35.1975L542.5 34.8676ZM563.312 25.7426L562.907 26.6569L562.916 26.6606L563.312 25.7426ZM570.688 34.3676L569.731 34.6603L569.732 34.6631L570.688 34.3676ZM571.625 44.5551V45.5551H572.625V44.5551H571.625ZM545.125 44.5551H544.125V45.5551H545.125V44.5551ZM545.125 38.8676V37.8676H544.125V38.8676H545.125ZM563.5 38.8676V39.8676H564.5V38.8676H563.5ZM563.5 38.2426H564.5V38.2267L564.499 38.2109L563.5 38.2426ZM562.75 34.6488L561.826 35.0322L561.829 35.0385L562.75 34.6488ZM560.625 32.0238L560.054 32.8447L560.06 32.849L560.066 32.8531L560.625 32.0238ZM553.688 31.8363L554.19 32.7009L554.196 32.6973L553.688 31.8363ZM551.438 34.0863L550.586 33.5612L550.583 33.5664L551.438 34.0863ZM550.25 47.1488L549.295 47.4452L549.297 47.4527L549.3 47.4601L550.25 47.1488ZM551.969 50.3051L551.202 50.947L551.21 50.9567L551.218 50.9661L551.969 50.3051ZM554.719 52.3676L554.293 53.2724L554.304 53.2774L554.314 53.2821L554.719 52.3676ZM563.094 52.0863L563.525 52.9887L563.53 52.986L563.094 52.0863ZM566.781 49.0551L567.501 48.3611L566.702 47.532L565.993 48.4394L566.781 49.0551ZM570.938 53.3676L571.764 53.9299L572.221 53.2584L571.658 52.6736L570.938 53.3676ZM568.062 56.3676L567.441 55.5841L567.434 55.5894L568.062 56.3676ZM563.75 58.7113L564.077 59.6565L564.087 59.6528L563.75 58.7113ZM557.906 58.5863C555.453 58.5863 553.282 58.1876 551.378 57.4105L550.622 59.2622C552.802 60.1518 555.235 60.5863 557.906 60.5863V58.5863ZM551.378 57.4105C549.455 56.6256 547.833 55.5442 546.498 54.1707L545.064 55.5645C546.604 57.1493 548.462 58.3804 550.622 59.2622L551.378 57.4105ZM546.508 54.181C545.183 52.7774 544.157 51.1486 543.432 49.2859L541.568 50.0118C542.384 52.1074 543.546 53.9577 545.054 55.5542L546.508 54.181ZM543.436 49.2977C542.731 47.4179 542.375 45.3919 542.375 43.2113H540.375C540.375 45.6141 540.769 47.8797 541.564 50L543.436 49.2977ZM542.375 43.2113V41.9613H540.375V43.2113H542.375ZM542.375 41.9613C542.375 39.4532 542.736 37.2033 543.443 35.2004L541.557 34.5348C540.764 36.7819 540.375 39.2611 540.375 41.9613H542.375ZM543.444 35.1975C544.155 33.163 545.154 31.4364 546.434 30.0019L544.941 28.6707C543.471 30.3196 542.345 32.2805 541.556 34.5376L543.444 35.1975ZM546.434 30.0019C547.711 28.5696 549.238 27.4672 551.024 26.6909L550.226 24.8568C548.179 25.7471 546.414 27.0198 544.941 28.6707L546.434 30.0019ZM551.024 26.6909C552.802 25.9178 554.779 25.5238 556.969 25.5238V23.5238C554.534 23.5238 552.282 23.9632 550.226 24.8568L551.024 26.6909ZM556.969 25.5238C559.252 25.5238 561.224 25.9108 562.907 26.6568L563.718 24.8283C561.734 23.9494 559.477 23.5238 556.969 23.5238V25.5238ZM562.916 26.6606C564.614 27.3939 566.017 28.4278 567.142 29.7621L568.671 28.4731C567.337 26.8907 565.678 25.6746 563.709 24.8245L562.916 26.6606ZM567.142 29.7621C568.274 31.1056 569.141 32.7322 569.731 34.6603L571.644 34.0749C570.984 31.9197 569.997 30.0462 568.671 28.4731L567.142 29.7621ZM569.732 34.6631C570.323 36.5741 570.625 38.7123 570.625 41.0863H572.625C572.625 38.5437 572.302 36.2027 571.643 34.0721L569.732 34.6631ZM570.625 41.0863V44.5551H572.625V41.0863H570.625ZM571.625 43.5551H545.125V45.5551H571.625V43.5551ZM546.125 44.5551V38.8676H544.125V44.5551H546.125ZM545.125 39.8676H563.5V37.8676H545.125V39.8676ZM564.5 38.8676V38.2426H562.5V38.8676H564.5ZM564.499 38.2109C564.454 36.7895 564.183 35.4684 563.671 34.2592L561.829 35.0385C562.234 35.9959 562.462 37.0707 562.501 38.2743L564.499 38.2109ZM563.674 34.2655C563.143 32.9867 562.311 31.954 561.184 31.1946L560.066 32.8531C560.856 33.3854 561.441 34.1026 561.826 35.0322L563.674 34.2655ZM561.196 31.2029C560.026 30.389 558.57 30.0238 556.906 30.0238V32.0238C558.284 32.0238 559.307 32.3254 560.054 32.8447L561.196 31.2029ZM556.906 30.0238C555.526 30.0238 554.272 30.3294 553.179 30.9754L554.196 32.6973C554.936 32.2599 555.828 32.0238 556.906 32.0238V30.0238ZM553.185 30.9718C552.132 31.5842 551.267 32.4577 550.586 33.5612L552.289 34.6114C552.816 33.7566 553.452 33.1301 554.19 32.7008L553.185 30.9718ZM550.583 33.5664C549.931 34.6373 549.458 35.8913 549.148 37.3101L551.102 37.7375C551.375 36.4897 551.777 35.4521 552.292 34.6063L550.583 33.5664ZM549.148 37.3101C548.839 38.7255 548.688 40.2776 548.688 41.9613H550.688C550.688 40.395 550.828 38.9889 551.102 37.7375L549.148 37.3101ZM548.688 41.9613V43.2113H550.688V41.9613H548.688ZM548.688 43.2113C548.688 44.7166 548.887 46.1302 549.295 47.4452L551.205 46.8524C550.863 45.7508 550.688 44.5394 550.688 43.2113H548.688ZM549.3 47.4601C549.732 48.7786 550.363 49.9454 551.202 50.947L552.736 49.6631C552.074 48.8731 551.56 47.9357 551.2 46.8375L549.3 47.4601ZM551.218 50.9661C552.08 51.9444 553.108 52.7146 554.293 53.2724L555.145 51.4628C554.205 51.0206 553.399 50.4157 552.719 49.6441L551.218 50.9661ZM554.314 53.2821C555.544 53.826 556.914 54.0863 558.406 54.0863V52.0863C557.148 52.0863 556.06 51.8675 555.123 51.453L554.314 53.2821ZM558.406 54.0863C560.267 54.0863 561.979 53.7269 563.525 52.9887L562.663 51.184C561.417 51.7791 560.004 52.0863 558.406 52.0863V54.0863ZM563.53 52.986C565.094 52.227 566.441 51.1152 567.569 49.6707L565.993 48.4394C565.038 49.6617 563.926 50.5707 562.657 51.1867L563.53 52.986ZM566.061 49.749L570.217 54.0615L571.658 52.6736L567.501 48.3611L566.061 49.749ZM570.111 52.8053C569.47 53.7469 568.587 54.6751 567.441 55.5841L568.684 57.1511C569.954 56.1434 570.988 55.0716 571.764 53.9299L570.111 52.8053ZM567.434 55.5894C566.348 56.4663 565.013 57.197 563.413 57.7699L564.087 59.6528C565.862 59.0173 567.402 58.1855 568.691 57.1458L567.434 55.5894ZM563.423 57.7662C561.862 58.3058 560.029 58.5863 557.906 58.5863V60.5863C560.2 60.5863 562.263 60.2836 564.077 59.6565L563.423 57.7662Z" fill="#2CB1BC"/>
</g>
</g>
<defs>
<filter id="filter0_d_0_1" x="102.938" y="10.9613" width="472.688" height="69.3125" filterUnits="userSpaceOnUse" color-interpolation-filters="sRGB">
<feFlood flood-opacity="0" result="BackgroundImageFix"/>
<feColorMatrix in="SourceAlpha" type="matrix" values="0 0 0 0 0 0 0 0 0 0 0 0 0 0 0 0 0 0 127 0" result="hardAlpha"/>
<feOffset dy="4"/>
<feGaussianBlur stdDeviation="2"/>
<feComposite in2="hardAlpha" operator="out"/>
<feColorMatrix type="matrix" values="0 0 0 0 0 0 0 0 0 0 0 0 0 0 0 0 0 0 0.25 0"/>
<feBlend mode="normal" in2="BackgroundImageFix" result="effect1_dropShadow_0_1"/>
<feBlend mode="normal" in="SourceGraphic" in2="effect1_dropShadow_0_1" result="shape"/>
</filter>
<clipPath id="clip0_0_1">
<rect width="580" height="75" fill="white"/>
</clipPath>
</defs>
</svg>
