<svg width="328" height="100" viewBox="0 0 500 65" fill="none" xmlns="http://www.w3.org/2000/svg">
<g clip-path="url(#clip0_1_37)">
<path d="M90.8125 41.5625L100.5 4.5H108.719L95.125 50H89.5L90.8125 41.5625ZM82.3438 4.5L91.9688 41.5625L93.375 50H87.75L74.1562 4.5H82.3438ZM110.844 34.4688V31.75C110.844 29.125 111.167 26.8021 111.812 24.7812C112.458 22.7604 113.375 21.0729 114.562 19.7188C115.771 18.3438 117.188 17.3125 118.812 16.625C120.438 15.9167 122.229 15.5625 124.188 15.5625C126.188 15.5625 128 15.9167 129.625 16.625C131.271 17.3125 132.688 18.3438 133.875 19.7188C135.083 21.0729 136.01 22.7604 136.656 24.7812C137.302 26.8021 137.625 29.125 137.625 31.75V34.4688C137.625 37.0938 137.302 39.4167 136.656 41.4375C136.01 43.4583 135.083 45.1562 133.875 46.5312C132.688 47.8854 131.281 48.9062 129.656 49.5938C128.031 50.2812 126.229 50.625 124.25 50.625C122.292 50.625 120.49 50.2812 118.844 49.5938C117.219 48.9062 115.802 47.8854 114.594 46.5312C113.385 45.1562 112.458 43.4583 111.812 41.4375C111.167 39.4167 110.844 37.0938 110.844 34.4688ZM118.125 31.75V34.4688C118.125 36.1562 118.271 37.6354 118.562 38.9062C118.854 40.1562 119.271 41.1979 119.812 42.0312C120.354 42.8646 121 43.4896 121.75 43.9062C122.5 44.3229 123.333 44.5312 124.25 44.5312C125.271 44.5312 126.156 44.3229 126.906 43.9062C127.677 43.4896 128.312 42.8646 128.812 42.0312C129.333 41.1979 129.719 40.1562 129.969 38.9062C130.219 37.6354 130.344 36.1562 130.344 34.4688V31.75C130.344 30.0833 130.198 28.625 129.906 27.375C129.615 26.1042 129.198 25.0521 128.656 24.2188C128.115 23.3646 127.458 22.7292 126.688 22.3125C125.938 21.8958 125.104 21.6875 124.188 21.6875C123.292 21.6875 122.469 21.8958 121.719 22.3125C120.99 22.7292 120.354 23.3646 119.812 24.2188C119.271 25.0521 118.854 26.1042 118.562 27.375C118.271 28.625 118.125 30.0833 118.125 31.75ZM155.906 44.5312C156.844 44.5312 157.677 44.3333 158.406 43.9375C159.156 43.5417 159.75 42.9271 160.188 42.0938C160.625 41.2396 160.865 40.1354 160.906 38.7812H167.75C167.708 41.1771 167.156 43.2708 166.094 45.0625C165.031 46.8333 163.615 48.2083 161.844 49.1875C160.094 50.1458 158.146 50.625 156 50.625C153.771 50.625 151.823 50.2708 150.156 49.5625C148.51 48.8333 147.146 47.7812 146.062 46.4062C144.979 45.0312 144.167 43.3646 143.625 41.4062C143.104 39.4271 142.844 37.1667 142.844 34.625V31.5625C142.844 29.0417 143.104 26.7917 143.625 24.8125C144.167 22.8333 144.979 21.1562 146.062 19.7812C147.146 18.4062 148.51 17.3646 150.156 16.6562C151.802 15.9271 153.74 15.5625 155.969 15.5625C158.344 15.5625 160.396 16.0625 162.125 17.0625C163.875 18.0417 165.24 19.4792 166.219 21.375C167.198 23.2708 167.708 25.5938 167.75 28.3438H160.906C160.865 26.8854 160.646 25.6667 160.25 24.6875C159.854 23.6875 159.292 22.9375 158.562 22.4375C157.854 21.9375 156.958 21.6875 155.875 21.6875C154.688 21.6875 153.708 21.9167 152.938 22.375C152.188 22.8125 151.604 23.4583 151.188 24.3125C150.792 25.1667 150.51 26.2083 150.344 27.4375C150.198 28.6458 150.125 30.0208 150.125 31.5625V34.625C150.125 36.2083 150.198 37.6146 150.344 38.8438C150.49 40.0521 150.76 41.0833 151.156 41.9375C151.573 42.7917 152.167 43.4375 152.938 43.875C153.708 44.3125 154.698 44.5312 155.906 44.5312ZM189.094 43.125V26.2812C189.094 25.1146 188.927 24.1771 188.594 23.4688C188.281 22.7604 187.812 22.25 187.188 21.9375C186.583 21.6042 185.823 21.4375 184.906 21.4375C183.948 21.4375 183.135 21.6354 182.469 22.0312C181.823 22.4271 181.333 22.9688 181 23.6562C180.667 24.3229 180.5 25.0938 180.5 25.9688H173.219C173.219 24.6146 173.49 23.3125 174.031 22.0625C174.594 20.8125 175.396 19.6979 176.438 18.7188C177.479 17.7396 178.74 16.9688 180.219 16.4062C181.698 15.8438 183.344 15.5625 185.156 15.5625C187.323 15.5625 189.25 15.9271 190.938 16.6562C192.625 17.3646 193.948 18.5208 194.906 20.125C195.885 21.7083 196.375 23.7917 196.375 26.375V42.1562C196.375 43.7188 196.469 45.1146 196.656 46.3438C196.865 47.5521 197.146 48.6042 197.5 49.5V50H190.094C189.76 49.1875 189.51 48.1458 189.344 46.875C189.177 45.6042 189.094 44.3542 189.094 43.125ZM190.062 29.4062L190.094 34.125H186.594C185.552 34.125 184.615 34.2708 183.781 34.5625C182.948 34.8333 182.24 35.2292 181.656 35.75C181.094 36.25 180.656 36.8646 180.344 37.5938C180.052 38.3229 179.906 39.125 179.906 40C179.906 41.0625 180.052 41.9271 180.344 42.5938C180.656 43.2604 181.104 43.7604 181.688 44.0938C182.292 44.4062 183.021 44.5625 183.875 44.5625C185.042 44.5625 186.052 44.3125 186.906 43.8125C187.781 43.2917 188.448 42.6667 188.906 41.9375C189.385 41.2083 189.573 40.5417 189.469 39.9375L191.125 42.9688C190.958 43.7604 190.646 44.5938 190.188 45.4688C189.75 46.3438 189.177 47.1771 188.469 47.9688C187.76 48.7604 186.906 49.4062 185.906 49.9062C184.906 50.3854 183.75 50.625 182.438 50.625C180.542 50.625 178.854 50.2292 177.375 49.4375C175.896 48.6458 174.729 47.5104 173.875 46.0312C173.042 44.5312 172.625 42.7396 172.625 40.6562C172.625 38.9688 172.906 37.4375 173.469 36.0625C174.031 34.6875 174.865 33.5104 175.969 32.5312C177.073 31.5312 178.458 30.7604 180.125 30.2188C181.812 29.6771 183.781 29.4062 186.031 29.4062H190.062ZM217.5 16.1875V21.8125H200.906V16.1875H217.5ZM205.438 7.90625H212.688V40.5625C212.688 41.6042 212.802 42.3958 213.031 42.9375C213.26 43.4792 213.583 43.8438 214 44.0312C214.417 44.2188 214.906 44.3125 215.469 44.3125C215.885 44.3125 216.292 44.2812 216.688 44.2188C217.104 44.1354 217.406 44.0625 217.594 44V49.875C217.052 50.0833 216.427 50.2604 215.719 50.4062C215.01 50.5521 214.156 50.625 213.156 50.625C211.677 50.625 210.354 50.3229 209.188 49.7188C208.021 49.0938 207.104 48.0833 206.438 46.6875C205.771 45.2708 205.438 43.3958 205.438 41.0625V7.90625ZM230.875 16.1875V50H223.594V16.1875H230.875ZM223.219 7.34375C223.219 6.17708 223.573 5.20833 224.281 4.4375C224.99 3.64583 225.979 3.25 227.25 3.25C228.521 3.25 229.51 3.64583 230.219 4.4375C230.927 5.20833 231.281 6.17708 231.281 7.34375C231.281 8.46875 230.927 9.41667 230.219 10.1875C229.51 10.9583 228.521 11.3438 227.25 11.3438C225.979 11.3438 224.99 10.9583 224.281 10.1875C223.573 9.41667 223.219 8.46875 223.219 7.34375ZM237.594 34.4688V31.75C237.594 29.125 237.917 26.8021 238.562 24.7812C239.208 22.7604 240.125 21.0729 241.312 19.7188C242.521 18.3438 243.938 17.3125 245.562 16.625C247.188 15.9167 248.979 15.5625 250.938 15.5625C252.938 15.5625 254.75 15.9167 256.375 16.625C258.021 17.3125 259.438 18.3438 260.625 19.7188C261.833 21.0729 262.76 22.7604 263.406 24.7812C264.052 26.8021 264.375 29.125 264.375 31.75V34.4688C264.375 37.0938 264.052 39.4167 263.406 41.4375C262.76 43.4583 261.833 45.1562 260.625 46.5312C259.438 47.8854 258.031 48.9062 256.406 49.5938C254.781 50.2812 252.979 50.625 251 50.625C249.042 50.625 247.24 50.2812 245.594 49.5938C243.969 48.9062 242.552 47.8854 241.344 46.5312C240.135 45.1562 239.208 43.4583 238.562 41.4375C237.917 39.4167 237.594 37.0938 237.594 34.4688ZM244.875 31.75V34.4688C244.875 36.1562 245.021 37.6354 245.312 38.9062C245.604 40.1562 246.021 41.1979 246.562 42.0312C247.104 42.8646 247.75 43.4896 248.5 43.9062C249.25 44.3229 250.083 44.5312 251 44.5312C252.021 44.5312 252.906 44.3229 253.656 43.9062C254.427 43.4896 255.062 42.8646 255.562 42.0312C256.083 41.1979 256.469 40.1562 256.719 38.9062C256.969 37.6354 257.094 36.1562 257.094 34.4688V31.75C257.094 30.0833 256.948 28.625 256.656 27.375C256.365 26.1042 255.948 25.0521 255.406 24.2188C254.865 23.3646 254.208 22.7292 253.438 22.3125C252.688 21.8958 251.854 21.6875 250.938 21.6875C250.042 21.6875 249.219 21.8958 248.469 22.3125C247.74 22.7292 247.104 23.3646 246.562 24.2188C246.021 25.0521 245.604 26.1042 245.312 27.375C245.021 28.625 244.875 30.0833 244.875 31.75ZM277.844 23.4062V50H270.562V16.1875H277.406L277.844 23.4062ZM276.531 31.875H274.219C274.198 29.4375 274.458 27.2188 275 25.2188C275.542 23.2188 276.312 21.5 277.312 20.0625C278.333 18.625 279.542 17.5208 280.938 16.75C282.354 15.9583 283.927 15.5625 285.656 15.5625C286.99 15.5625 288.208 15.7917 289.312 16.25C290.438 16.6875 291.396 17.4062 292.188 18.4062C292.979 19.4062 293.583 20.7083 294 22.3125C294.438 23.9167 294.656 25.875 294.656 28.1875V50H287.375V28.125C287.375 26.5417 287.198 25.2917 286.844 24.375C286.51 23.4375 286.01 22.7708 285.344 22.375C284.677 21.9583 283.833 21.75 282.812 21.75C281.875 21.75 281.01 22.0208 280.219 22.5625C279.448 23.0833 278.781 23.8125 278.219 24.75C277.677 25.6667 277.26 26.7396 276.969 27.9688C276.677 29.1771 276.531 30.4792 276.531 31.875ZM330.688 41.5625L340.375 4.5H348.594L335 50H329.375L330.688 41.5625ZM322.219 4.5L331.844 41.5625L333.25 50H327.625L314.031 4.5H322.219ZM360.938 16.1875V50H353.656V16.1875H360.938ZM353.281 7.34375C353.281 6.17708 353.635 5.20833 354.344 4.4375C355.052 3.64583 356.042 3.25 357.312 3.25C358.583 3.25 359.573 3.64583 360.281 4.4375C360.99 5.20833 361.344 6.17708 361.344 7.34375C361.344 8.46875 360.99 9.41667 360.281 10.1875C359.573 10.9583 358.583 11.3438 357.312 11.3438C356.042 11.3438 355.052 10.9583 354.344 10.1875C353.635 9.41667 353.281 8.46875 353.281 7.34375ZM376.438 2V50H369.156V2H376.438ZM391.938 2V50H384.656V2H391.938ZM415.406 43.125V26.2812C415.406 25.1146 415.24 24.1771 414.906 23.4688C414.594 22.7604 414.125 22.25 413.5 21.9375C412.896 21.6042 412.135 21.4375 411.219 21.4375C410.26 21.4375 409.448 21.6354 408.781 22.0312C408.135 22.4271 407.646 22.9688 407.312 23.6562C406.979 24.3229 406.812 25.0938 406.812 25.9688H399.531C399.531 24.6146 399.802 23.3125 400.344 22.0625C400.906 20.8125 401.708 19.6979 402.75 18.7188C403.792 17.7396 405.052 16.9688 406.531 16.4062C408.01 15.8438 409.656 15.5625 411.469 15.5625C413.635 15.5625 415.562 15.9271 417.25 16.6562C418.938 17.3646 420.26 18.5208 421.219 20.125C422.198 21.7083 422.688 23.7917 422.688 26.375V42.1562C422.688 43.7188 422.781 45.1146 422.969 46.3438C423.177 47.5521 423.458 48.6042 423.812 49.5V50H416.406C416.073 49.1875 415.823 48.1458 415.656 46.875C415.49 45.6042 415.406 44.3542 415.406 43.125ZM416.375 29.4062L416.406 34.125H412.906C411.865 34.125 410.927 34.2708 410.094 34.5625C409.26 34.8333 408.552 35.2292 407.969 35.75C407.406 36.25 406.969 36.8646 406.656 37.5938C406.365 38.3229 406.219 39.125 406.219 40C406.219 41.0625 406.365 41.9271 406.656 42.5938C406.969 43.2604 407.417 43.7604 408 44.0938C408.604 44.4062 409.333 44.5625 410.188 44.5625C411.354 44.5625 412.365 44.3125 413.219 43.8125C414.094 43.2917 414.76 42.6667 415.219 41.9375C415.698 41.2083 415.885 40.5417 415.781 39.9375L417.438 42.9688C417.271 43.7604 416.958 44.5938 416.5 45.4688C416.062 46.3438 415.49 47.1771 414.781 47.9688C414.073 48.7604 413.219 49.4062 412.219 49.9062C411.219 50.3854 410.062 50.625 408.75 50.625C406.854 50.625 405.167 50.2292 403.688 49.4375C402.208 48.6458 401.042 47.5104 400.188 46.0312C399.354 44.5312 398.938 42.7396 398.938 40.6562C398.938 38.9688 399.219 37.4375 399.781 36.0625C400.344 34.6875 401.177 33.5104 402.281 32.5312C403.385 31.5312 404.771 30.7604 406.438 30.2188C408.125 29.6771 410.094 29.4062 412.344 29.4062H416.375ZM448.188 16.1875H454.781V50.125C454.781 53.1667 454.219 55.6562 453.094 57.5938C451.99 59.5521 450.448 61 448.469 61.9375C446.49 62.875 444.198 63.3438 441.594 63.3438C440.635 63.3438 439.5 63.1875 438.188 62.875C436.875 62.5625 435.594 62.1042 434.344 61.5C433.094 60.8958 432.052 60.1458 431.219 59.25L433.875 54.1875C434.854 55.1875 436.01 55.9583 437.344 56.5C438.677 57.0625 439.958 57.3438 441.188 57.3438C442.521 57.3438 443.646 57.1146 444.562 56.6562C445.5 56.2188 446.219 55.4792 446.719 54.4375C447.219 53.4167 447.469 52.0312 447.469 50.2812V23.8438L448.188 16.1875ZM429.062 34.4688V31.8125C429.062 29.0417 429.323 26.6458 429.844 24.625C430.365 22.5833 431.115 20.8854 432.094 19.5312C433.073 18.1771 434.271 17.1771 435.688 16.5312C437.104 15.8854 438.688 15.5625 440.438 15.5625C442.25 15.5625 443.781 15.9479 445.031 16.7188C446.302 17.4688 447.333 18.5417 448.125 19.9375C448.938 21.3333 449.573 23 450.031 24.9375C450.49 26.8542 450.823 29 451.031 31.375V35.0625C450.823 37.3542 450.469 39.4583 449.969 41.375C449.469 43.2708 448.792 44.9062 447.938 46.2812C447.104 47.6562 446.062 48.7292 444.812 49.5C443.583 50.25 442.104 50.625 440.375 50.625C438.646 50.625 437.083 50.2812 435.688 49.5938C434.292 48.9062 433.094 47.8854 432.094 46.5312C431.115 45.1771 430.365 43.5 429.844 41.5C429.323 39.4792 429.062 37.1354 429.062 34.4688ZM436.344 31.8125V34.4688C436.344 36.1979 436.458 37.6875 436.688 38.9375C436.938 40.1875 437.302 41.2188 437.781 42.0312C438.26 42.8229 438.885 43.4167 439.656 43.8125C440.427 44.1875 441.344 44.375 442.406 44.375C443.802 44.375 444.927 44.0417 445.781 43.375C446.656 42.7083 447.323 41.8125 447.781 40.6875C448.26 39.5417 448.594 38.2708 448.781 36.875V29.5938C448.677 28.4896 448.469 27.4688 448.156 26.5312C447.865 25.5729 447.458 24.7396 446.938 24.0312C446.438 23.3229 445.812 22.7708 445.062 22.375C444.333 21.9583 443.469 21.75 442.469 21.75C441.427 21.75 440.51 21.9583 439.719 22.375C438.948 22.7708 438.312 23.3854 437.812 24.2188C437.312 25.0312 436.938 26.0729 436.688 27.3438C436.458 28.5938 436.344 30.0833 436.344 31.8125ZM475.031 50.625C472.844 50.625 470.896 50.3021 469.188 49.6562C467.479 48.9896 466.031 48.0104 464.844 46.7188C463.656 45.4062 462.75 43.8021 462.125 41.9062C461.5 39.9896 461.188 37.7708 461.188 35.25V32C461.188 29.1458 461.51 26.6875 462.156 24.625C462.823 22.5417 463.74 20.8333 464.906 19.5C466.073 18.1667 467.448 17.1771 469.031 16.5312C470.635 15.8854 472.375 15.5625 474.25 15.5625C476.375 15.5625 478.219 15.9062 479.781 16.5938C481.344 17.2812 482.625 18.3125 483.625 19.6875C484.646 21.0625 485.396 22.7604 485.875 24.7812C486.375 26.8021 486.625 29.125 486.625 31.75V35.4062H464.688V29.9062H479.438V29.125C479.396 27.5833 479.208 26.2604 478.875 25.1562C478.542 24.0312 478 23.1771 477.25 22.5938C476.521 21.9896 475.51 21.6875 474.219 21.6875C473.281 21.6875 472.448 21.8646 471.719 22.2188C470.99 22.5729 470.385 23.1458 469.906 23.9375C469.448 24.7292 469.094 25.7917 468.844 27.125C468.594 28.4375 468.469 30.0625 468.469 32V35.25C468.469 36.9375 468.615 38.3646 468.906 39.5312C469.219 40.6979 469.677 41.6562 470.281 42.4062C470.885 43.1354 471.615 43.6771 472.469 44.0312C473.344 44.3646 474.354 44.5312 475.5 44.5312C477.188 44.5312 478.635 44.2188 479.844 43.5938C481.073 42.9479 482.135 42.1146 483.031 41.0938L486.25 45.5625C485.646 46.375 484.833 47.1771 483.812 47.9688C482.792 48.7396 481.552 49.375 480.094 49.875C478.656 50.375 476.969 50.625 475.031 50.625Z" fill="#2CB1BC"/>
<g clip-path="url(#clip1_1_37)">
<path opacity="0.1" d="M21.8071 26.839H14.3931C14.1306 26.839 13.9177 27.0885 13.9177 27.3963V29.2458C13.9177 29.5535 14.1306 29.803 14.3931 29.803H21.8071C22.0697 29.803 22.2825 29.5535 22.2825 29.2458V27.3963C22.2825 27.0885 22.0697 26.839 21.8071 26.839Z" fill="white"/>
<path opacity="0.1" d="M30.561 29.8037H23.147C22.8844 29.8037 22.6716 30.0532 22.6716 30.361V32.2105C22.6716 32.5183 22.8844 32.7677 23.147 32.7677H30.561C30.8235 32.7677 31.0364 32.5183 31.0364 32.2105V30.361C31.0364 30.0532 30.8235 29.8037 30.561 29.8037Z" fill="white"/>
<path opacity="0.1" d="M39.3154 32.7677H31.9014C31.6389 32.7677 31.426 33.0172 31.426 33.325V35.1745C31.426 35.4823 31.6389 35.7317 31.9014 35.7317H39.3154C39.578 35.7317 39.7908 35.4823 39.7908 35.1745V33.325C39.7908 33.0172 39.578 32.7677 39.3154 32.7677Z" fill="white"/>
<path opacity="0.1" d="M21.8071 22.393H14.3931C14.1306 22.393 13.9177 22.6425 13.9177 22.9503V24.7998C13.9177 25.1075 14.1306 25.357 14.3931 25.357H21.8071C22.0697 25.357 22.2825 25.1075 22.2825 24.7998V22.9503C22.2825 22.6425 22.0697 22.393 21.8071 22.393Z" fill="white"/>
<path opacity="0.1" d="M30.561 25.357H23.147C22.8844 25.357 22.6716 25.6065 22.6716 25.9142V27.7637C22.6716 28.0715 22.8844 28.321 23.147 28.321H30.561C30.8235 28.321 31.0364 28.0715 31.0364 27.7637V25.9142C31.0364 25.6065 30.8235 25.357 30.561 25.357Z" fill="white"/>
<path opacity="0.1" d="M39.3154 28.3217H31.9014C31.6389 28.3217 31.426 28.5712 31.426 28.879V30.7285C31.426 31.0363 31.6389 31.2857 31.9014 31.2857H39.3154C39.578 31.2857 39.7908 31.0363 39.7908 30.7285V28.879C39.7908 28.5712 39.578 28.3217 39.3154 28.3217Z" fill="white"/>
<path opacity="0.1" d="M49.0419 26.839H41.6279C41.3653 26.839 41.1525 27.0885 41.1525 27.3963V29.2458C41.1525 29.5535 41.3653 29.803 41.6279 29.803H49.0419C49.3044 29.803 49.5173 29.5535 49.5173 29.2458V27.3963C49.5173 27.0885 49.3044 26.839 49.0419 26.839Z" fill="white"/>
<path opacity="0.1" d="M57.7957 29.8037H50.3817C50.1192 29.8037 49.9063 30.0532 49.9063 30.361V32.2105C49.9063 32.5183 50.1192 32.7677 50.3817 32.7677H57.7957C58.0583 32.7677 58.2711 32.5183 58.2711 32.2105V30.361C58.2711 30.0532 58.0583 29.8037 57.7957 29.8037Z" fill="white"/>
<path opacity="0.1" d="M66.5502 32.7677H59.1362C58.8736 32.7677 58.6608 33.0172 58.6608 33.325V35.1745C58.6608 35.4823 58.8736 35.7317 59.1362 35.7317H66.5502C66.8128 35.7317 67.0256 35.4823 67.0256 35.1745V33.325C67.0256 33.0172 66.8128 32.7677 66.5502 32.7677Z" fill="white"/>
<path opacity="0.1" d="M49.0419 22.393H41.6279C41.3653 22.393 41.1525 22.6425 41.1525 22.9503V24.7998C41.1525 25.1075 41.3653 25.357 41.6279 25.357H49.0419C49.3044 25.357 49.5173 25.1075 49.5173 24.7998V22.9503C49.5173 22.6425 49.3044 22.393 49.0419 22.393Z" fill="white"/>
<path opacity="0.1" d="M57.7957 25.357H50.3817C50.1192 25.357 49.9063 25.6065 49.9063 25.9142V27.7637C49.9063 28.0715 50.1192 28.321 50.3817 28.321H57.7957C58.0583 28.321 58.2711 28.0715 58.2711 27.7637V25.9142C58.2711 25.6065 58.0583 25.357 57.7957 25.357Z" fill="white"/>
<path opacity="0.1" d="M66.5502 28.3217H59.1362C58.8736 28.3217 58.6608 28.5712 58.6608 28.879V30.7285C58.6608 31.0363 58.8736 31.2857 59.1362 31.2857H66.5502C66.8128 31.2857 67.0256 31.0363 67.0256 30.7285V28.879C67.0256 28.5712 66.8128 28.3217 66.5502 28.3217Z" fill="white"/>
<path opacity="0.1" d="M21.8071 16.4642H14.3931C14.1306 16.4642 13.9177 16.7137 13.9177 17.0215V18.871C13.9177 19.1788 14.1306 19.4282 14.3931 19.4282H21.8071C22.0697 19.4282 22.2825 19.1788 22.2825 18.871V17.0215C22.2825 16.7137 22.0697 16.4642 21.8071 16.4642Z" fill="white"/>
<path opacity="0.1" d="M30.561 19.4283H23.147C22.8844 19.4283 22.6716 19.6777 22.6716 19.9855V21.835C22.6716 22.1428 22.8844 22.3923 23.147 22.3923H30.561C30.8235 22.3923 31.0364 22.1428 31.0364 21.835V19.9855C31.0364 19.6777 30.8235 19.4283 30.561 19.4283Z" fill="white"/>
<path opacity="0.1" d="M39.3154 22.393H31.9014C31.6389 22.393 31.426 22.6425 31.426 22.9503V24.7998C31.426 25.1075 31.6389 25.357 31.9014 25.357H39.3154C39.578 25.357 39.7908 25.1075 39.7908 24.7998V22.9503C39.7908 22.6425 39.578 22.393 39.3154 22.393Z" fill="white"/>
<path opacity="0.1" d="M21.8071 12.0175H14.3931C14.1306 12.0175 13.9177 12.267 13.9177 12.5748V14.4243C13.9177 14.732 14.1306 14.9815 14.3931 14.9815H21.8071C22.0697 14.9815 22.2825 14.732 22.2825 14.4243V12.5748C22.2825 12.267 22.0697 12.0175 21.8071 12.0175Z" fill="white"/>
<path opacity="0.1" d="M30.561 14.9823H23.147C22.8844 14.9823 22.6716 15.2317 22.6716 15.5395V17.389C22.6716 17.6968 22.8844 17.9463 23.147 17.9463H30.561C30.8235 17.9463 31.0364 17.6968 31.0364 17.389V15.5395C31.0364 15.2317 30.8235 14.9823 30.561 14.9823Z" fill="white"/>
<path opacity="0.1" d="M39.3154 17.9463H31.9014C31.6389 17.9463 31.426 18.1957 31.426 18.5035V20.353C31.426 20.6608 31.6389 20.9103 31.9014 20.9103H39.3154C39.578 20.9103 39.7908 20.6608 39.7908 20.353V18.5035C39.7908 18.1957 39.578 17.9463 39.3154 17.9463Z" fill="white"/>
<path opacity="0.1" d="M49.0419 16.4642H41.6279C41.3653 16.4642 41.1525 16.7137 41.1525 17.0215V18.871C41.1525 19.1788 41.3653 19.4282 41.6279 19.4282H49.0419C49.3044 19.4282 49.5173 19.1788 49.5173 18.871V17.0215C49.5173 16.7137 49.3044 16.4642 49.0419 16.4642Z" fill="white"/>
<path opacity="0.1" d="M57.7957 19.4283H50.3817C50.1192 19.4283 49.9063 19.6777 49.9063 19.9855V21.835C49.9063 22.1428 50.1192 22.3923 50.3817 22.3923H57.7957C58.0583 22.3923 58.2711 22.1428 58.2711 21.835V19.9855C58.2711 19.6777 58.0583 19.4283 57.7957 19.4283Z" fill="white"/>
<path opacity="0.1" d="M66.5502 22.393H59.1362C58.8736 22.393 58.6608 22.6425 58.6608 22.9503V24.7998C58.6608 25.1075 58.8736 25.357 59.1362 25.357H66.5502C66.8128 25.357 67.0256 25.1075 67.0256 24.7998V22.9503C67.0256 22.6425 66.8128 22.393 66.5502 22.393Z" fill="white"/>
<path opacity="0.1" d="M49.0419 12.0175H41.6279C41.3653 12.0175 41.1525 12.267 41.1525 12.5748V14.4243C41.1525 14.732 41.3653 14.9815 41.6279 14.9815H49.0419C49.3044 14.9815 49.5173 14.732 49.5173 14.4243V12.5748C49.5173 12.267 49.3044 12.0175 49.0419 12.0175Z" fill="white"/>
<path opacity="0.1" d="M57.7957 14.9823H50.3817C50.1192 14.9823 49.9063 15.2317 49.9063 15.5395V17.389C49.9063 17.6968 50.1192 17.9463 50.3817 17.9463H57.7957C58.0583 17.9463 58.2711 17.6968 58.2711 17.389V15.5395C58.2711 15.2317 58.0583 14.9823 57.7957 14.9823Z" fill="white"/>
<path opacity="0.1" d="M66.5502 17.9463H59.1362C58.8736 17.9463 58.6608 18.1957 58.6608 18.5035V20.353C58.6608 20.6608 58.8736 20.9103 59.1362 20.9103H66.5502C66.8128 20.9103 67.0256 20.6608 67.0256 20.353V18.5035C67.0256 18.1957 66.8128 17.9463 66.5502 17.9463Z" fill="white"/>
<path opacity="0.1" d="M39 61C58.33 61 74 57.6589 74 53.5375C74 49.4161 58.33 46.075 39 46.075C19.67 46.075 4 49.4161 4 53.5375C4 57.6589 19.67 61 39 61Z" fill="white"/>
<path d="M19.3565 28.075L16.4131 49.225L29.7221 47.575L29.1462 45.775L18.7486 46.7875L21.1801 28.0375L19.3565 28.075Z" fill="#3F3D56"/>
<path d="M15.9013 4.075L33.8172 4L39 49.975L21.0201 52.825L15.9013 4.075Z" fill="#3F3D56"/>
<path d="M17.8528 5.83749H32.3135L37.3684 48.5875L22.4598 50.9875L17.8528 5.83749Z" fill="white"/>
<path d="M31.4907 46.6645C31.5815 46.8685 31.6494 47.089 31.7677 47.2727C32.1132 47.8142 32.7691 47.899 33.2611 48.2523C33.2858 48.2669 33.3061 48.2899 33.3194 48.3182C33.3418 48.3805 33.2919 48.4457 33.2439 48.4847C32.8708 48.7915 32.3813 48.7982 31.9251 48.7945C31.7718 48.8009 31.6184 48.7837 31.4689 48.7435C31.2277 48.6685 31.021 48.4712 30.783 48.391C30.6596 48.3549 30.5333 48.334 30.4061 48.3287L29.9064 48.289C29.7733 48.2867 29.6416 48.2581 29.5167 48.2042C29.4545 48.1763 29.3993 48.1304 29.3564 48.0707C29.3134 48.0111 29.284 47.9396 29.271 47.863C29.2569 47.7385 29.3024 47.6177 29.3292 47.4962C29.3932 47.2082 29.3734 46.8602 29.5647 46.6637C29.6435 46.593 29.7339 46.5419 29.8302 46.5137C30.178 46.3764 30.533 46.2656 30.893 46.1822C31.1893 46.114 31.3595 46.369 31.4907 46.6645Z" fill="#2CB1BC"/>
<path d="M25.8382 48.2868C25.851 48.4465 25.8548 48.6295 25.7563 48.7413C25.6949 48.801 25.6208 48.8399 25.542 48.8538C25.0691 48.9828 24.5419 48.9918 24.1304 48.6903C24.0876 48.6616 24.0498 48.6237 24.0191 48.5785C23.9848 48.517 23.9653 48.4457 23.9628 48.3723C23.9481 48.16 24.0037 47.9508 24.0543 47.746C24.1739 47.2602 24.2648 46.7653 24.3262 46.2648C24.3313 46.2235 25.5336 46.4898 25.6136 46.6293C25.7141 46.8018 25.7147 47.2158 25.7416 47.4213C25.7821 47.7083 25.8143 47.9968 25.8382 48.2868Z" fill="#2CB1BC"/>
<path d="M30.3133 28.7702L30.6333 32.257C30.6972 32.9695 30.7644 33.6857 30.7203 34.4005C30.6691 35.2255 30.472 36.0505 30.5552 36.868C30.5878 37.186 30.662 37.498 30.6729 37.8182C30.675 38.0312 30.6658 38.2441 30.6454 38.4557C30.5008 40.5715 30.9583 42.6707 31.2142 44.7715C31.2554 45.0306 31.2644 45.2953 31.2411 45.5575C31.2078 45.8237 31.1413 46.1732 31.3435 46.2992L29.4444 47.1062C29.2019 46.75 29.3625 46.1957 29.3164 45.7435C29.2742 45.3362 29.0835 44.9732 28.9818 44.581C28.8897 44.2285 28.8705 43.8572 28.8404 43.4912C28.6747 41.4985 28.166 39.5575 28.047 37.5602C28.0431 37.3674 28.0217 37.1755 27.983 36.988C27.919 36.7397 27.791 36.523 27.6976 36.2897C27.5543 35.9395 27.4839 35.5555 27.4148 35.176L27.0085 32.9447C26.5977 33.6617 26.6143 34.5947 26.5331 35.4542C26.4192 36.6542 26.1645 37.834 25.9572 39.019C25.909 39.274 25.8729 39.5319 25.8491 39.7915C25.7953 40.4867 25.9022 41.1887 25.8452 41.8832C25.7812 42.688 25.4927 43.4732 25.5624 44.278C25.6008 44.7235 25.7467 45.145 25.8452 45.577C25.9438 46.009 25.9924 46.483 25.842 46.8947C25.3165 46.6686 24.7519 46.5955 24.197 46.6817C23.5872 45.9505 23.479 44.9305 23.4375 43.9067C23.3959 42.883 23.4963 41.8577 23.3875 40.8437C23.3556 40.5437 23.3056 40.2512 23.2973 39.952C23.2705 38.9927 23.664 38.095 23.8598 37.1627C24.036 36.3235 24.0528 35.4492 23.909 34.6015C23.8131 34.0412 23.648 33.4975 23.5891 32.9297C23.5091 32.134 23.6448 31.3322 23.7811 30.5462C23.8726 30.016 23.9634 29.4857 24.0671 28.9585C24.1784 28.3922 24.3109 27.814 24.6084 27.3505C25.0844 26.6087 25.9297 26.2795 26.7199 26.3515C27.5101 26.4235 28.2479 26.845 28.9005 27.37C29.4149 27.7729 29.8888 28.2427 30.3133 28.7702Z" fill="#192534"/>
<path d="M28.1903 15.4187C28.1545 15.4863 28.1295 15.5611 28.1168 15.6392C28.1008 15.793 28.1807 15.934 28.2447 16.0682C28.3267 16.2407 28.3897 16.4247 28.4322 16.6157C28.4627 16.734 28.472 16.8583 28.4597 16.981C28.4441 17.0731 28.416 17.1618 28.3765 17.2435C28.253 17.5225 28.07 17.7805 27.8211 17.8967C27.6284 17.9799 27.4182 17.9899 27.2203 17.9252C27.0238 17.86 26.838 17.7566 26.6707 17.6192C26.5297 17.5145 26.4029 17.3856 26.2944 17.2367C26.1909 17.074 26.1038 16.8979 26.0347 16.7117C25.9016 16.3855 25.7666 16.0367 25.7909 15.679C25.7922 15.6466 25.7973 15.6145 25.8062 15.5837C25.827 15.5282 25.8561 15.4774 25.892 15.4337C26.165 15.0546 26.3049 14.568 26.2836 14.0725L27.2158 14.3207C27.4212 14.3755 27.6266 14.4302 27.8295 14.4985C27.9958 14.5547 28.2518 14.6327 28.3599 14.8067C28.468 14.9807 28.2639 15.2597 28.1903 15.4187Z" fill="#FBBEBE"/>
<path d="M27.6912 15.2328C28.627 15.2328 29.3856 14.3436 29.3856 13.2468C29.3856 12.1499 28.627 11.2608 27.6912 11.2608C26.7555 11.2608 25.9969 12.1499 25.9969 13.2468C25.9969 14.3436 26.7555 15.2328 27.6912 15.2328Z" fill="#FBBEBE"/>
<path d="M27.4187 17.2533C27.4903 17.0695 27.6452 16.9533 27.7866 16.8378C27.928 16.7223 28.0713 16.5745 28.0988 16.3743C28.1005 16.329 28.1101 16.2846 28.127 16.2438C28.1814 16.1478 28.3106 16.1958 28.388 16.2663C28.5761 16.438 28.7041 16.6818 28.8289 16.9195C28.9903 17.2086 29.1285 17.5147 29.2416 17.8338C29.4214 18.3895 29.4432 18.9963 29.463 19.5895C29.4809 20.1295 29.4982 20.6778 29.3862 21.2013C29.3158 21.5328 29.1942 21.8545 29.1872 22.1958C29.1661 23.4355 28.7988 24.6205 28.7732 25.8603C28.7713 26.2187 28.7867 26.5771 28.8193 26.9335L28.8794 27.7383C27.9491 27.6758 27.0213 27.58 26.0961 27.451C26.0692 27.0805 25.979 26.7213 25.8964 26.3628C25.5585 24.8971 25.3418 23.3967 25.2495 21.8823C25.2003 21.0783 25.1497 20.2773 25.0736 19.4763C25.0051 18.748 24.8708 18.0153 24.9514 17.2885C24.9936 16.9582 25.0822 16.6383 25.2137 16.342C25.2553 16.224 25.3267 16.1237 25.4185 16.0548C25.4643 16.0288 25.513 16.0104 25.5631 16C25.7081 15.9656 25.8554 15.9452 26.0033 15.9393C26.0395 15.9357 26.0759 15.9398 26.1108 15.9513C26.1731 15.9877 26.2243 16.0459 26.2573 16.1178C26.5424 16.6201 26.9459 17.0146 27.4187 17.2533Z" fill="#F2F2F2"/>
<path d="M26.6329 17.0943C26.7519 17.2938 27.004 17.341 27.1141 17.5443C27.1512 17.6292 27.1793 17.7191 27.1979 17.812C27.2651 18.0633 27.4008 18.2815 27.4833 18.5268C27.6023 18.8793 27.6055 19.2693 27.6068 19.648C27.6185 19.9497 27.5987 20.2519 27.5479 20.548C27.5095 20.7333 27.4468 20.9095 27.4008 21.0925C27.3225 21.4037 27.2935 21.7291 27.315 22.0525C27.315 22.1224 27.3309 22.191 27.3611 22.2513C27.4045 22.3115 27.4611 22.3566 27.5249 22.3818C27.7124 22.4785 27.9088 22.5775 28.1136 22.555C28.1556 22.5534 28.1963 22.5375 28.2306 22.5093C28.2544 22.4839 28.2739 22.4537 28.2882 22.42L28.4162 22.1665C28.532 21.9348 28.653 21.6753 28.6082 21.4105C28.5756 21.2739 28.5267 21.1433 28.4629 21.0228C28.3811 20.8271 28.3114 20.6248 28.2543 20.4175C28.0502 19.7298 27.8435 19.0323 27.7975 18.3063C27.7704 18.03 27.7966 17.7501 27.8743 17.4873C27.9343 17.3255 28.0099 17.1723 28.0995 17.0305C28.0792 16.9986 28.0512 16.9748 28.0191 16.962C27.9869 16.9493 27.9523 16.9483 27.9197 16.9593C27.8553 16.9826 27.793 17.0129 27.7335 17.05C27.5454 17.143 27.3368 17.1093 27.1467 17.0455C27.0725 17.02 26.9548 16.933 26.878 16.939C26.8518 16.9428 26.6374 17.1033 26.6329 17.0943Z" fill="white"/>
<path d="M28.1308 17.086C28.0924 17.05 28.0329 17.017 27.999 17.059C27.9876 17.0772 27.9794 17.0978 27.9747 17.1198C27.9414 17.2248 27.8435 17.2765 27.7546 17.317C27.6656 17.3575 27.5697 17.38 27.5159 17.3028C27.499 17.2727 27.4906 17.237 27.4921 17.201C27.4936 17.165 27.5049 17.1305 27.5242 17.1025C27.5636 17.0469 27.611 16.9999 27.6644 16.9638C27.9587 16.7202 28.1592 16.3505 28.2223 15.9348C28.3049 16.0116 28.3595 16.1223 28.3752 16.2445C28.3964 16.3638 28.3989 16.4868 28.42 16.606C28.4514 16.777 28.5211 16.9368 28.5371 17.11C28.5454 17.2023 28.5371 17.2953 28.5371 17.3875C28.54 17.4777 28.549 17.5675 28.564 17.656C28.4143 17.47 28.3087 17.2518 28.1308 17.086Z" fill="#F2F2F2"/>
<path d="M26.8357 16.5768C26.7718 16.5055 26.7078 16.438 26.6438 16.3653C26.363 16.044 26.151 15.6496 26.0251 15.214C25.9432 15.289 25.8529 15.388 25.851 15.514C25.8583 15.6032 25.8877 15.6879 25.9355 15.7578C26.1774 16.2044 26.3372 16.7053 26.4045 17.2285C26.4391 17.1652 26.4869 17.1134 26.5435 17.0781C26.6001 17.0427 26.6635 17.0251 26.7276 17.0268C26.8287 17.0268 27.2824 17.3418 27.315 17.2623C27.363 17.1378 26.9125 16.6615 26.8357 16.5768Z" fill="#F2F2F2"/>
<path d="M28.2645 15.9797C28.8664 16.6821 29.6032 17.2049 30.4131 17.5045C30.4937 17.5251 30.5683 17.5695 30.6301 17.6335C30.6762 17.701 30.7072 17.7809 30.7203 17.866C30.8764 18.5815 30.9289 19.3217 30.9807 20.0575C30.9943 20.1792 30.9921 20.3026 30.9743 20.4235C30.9365 20.62 30.8175 20.779 30.7004 20.9267C30.3332 21.388 29.9141 21.8702 29.852 22.4972C29.8473 22.6181 29.8351 22.7384 29.8155 22.8572C29.7835 22.9967 29.7125 23.1197 29.669 23.2555C29.4553 23.9237 29.9384 24.733 29.644 25.3555C29.8034 25.7143 29.9127 26.1007 29.9678 26.5C29.9777 26.6514 30.0072 26.8001 30.0555 26.941C30.1431 27.1555 30.3236 27.292 30.4656 27.466C30.8988 27.9865 30.9519 28.783 30.9775 29.5097C30.9935 29.9192 30.9884 30.3895 30.7216 30.658C30.5673 30.8147 30.3568 30.8657 30.1553 30.9047C29.8872 30.9572 29.5954 30.9947 29.358 30.8395C29.1878 30.7285 29.072 30.5342 28.9613 30.3467C28.7514 29.989 28.5409 29.632 28.3419 29.2652C28.0271 28.687 27.7302 28.0262 27.8211 27.3482C27.7955 28.042 27.6707 28.741 27.3802 29.3455C27.0897 29.95 26.622 30.4547 26.0545 30.6542C25.4869 30.8537 24.8234 30.7127 24.4004 30.2267C24.2624 30.0601 24.1438 29.8727 24.0479 29.6695C23.8071 29.1862 23.6314 28.6623 23.527 28.1162C23.4995 27.9745 23.4791 27.8162 23.5398 27.6895C23.5686 27.6295 23.6128 27.5822 23.6429 27.523C23.7439 27.3212 23.6467 27.067 23.5488 26.8615C23.3997 26.878 23.2929 26.6725 23.3063 26.497C23.3197 26.3215 23.4093 26.1692 23.4727 26.0095C23.6582 25.5385 23.6173 24.9902 23.5277 24.4825C23.4381 23.9747 23.3044 23.47 23.3146 22.9517C23.3255 22.4035 22.9889 21.91 22.7323 21.4517C22.589 21.1937 22.422 20.9537 22.2972 20.683C22.0371 20.1132 21.977 19.447 22.1296 18.826C22.2192 18.5071 22.3367 18.2 22.4802 17.9095L22.6914 17.4452C22.7307 17.3343 22.7917 17.2358 22.8695 17.1576C22.9473 17.0794 23.0398 17.0238 23.1393 16.9952L24.6001 16.3202C24.7869 16.2455 24.9642 16.1415 25.1273 16.0112C25.3058 15.8537 25.4389 15.6362 25.6091 15.4682C25.6339 15.4377 25.6637 15.4133 25.6966 15.3964C25.7296 15.3795 25.7651 15.3706 25.8011 15.37C25.938 15.3842 25.9866 15.5867 26.0007 15.745C26.0327 16.099 26.2567 16.399 26.3328 16.7432C26.7449 18.6445 27.617 20.398 27.8563 22.339C28.125 21.5822 28.3938 20.824 28.738 20.1115C28.7923 20.0092 28.838 19.9009 28.8743 19.7882C28.9156 19.6257 28.931 19.4556 28.9197 19.2865C28.9025 18.7982 28.7918 18.3212 28.6823 17.8495C28.5403 17.2075 28.4123 16.6157 28.2645 15.9797Z" fill="#2CB1BC"/>
<path d="M31.0486 21.7893C31.0767 22.1088 31.1042 22.429 31.1548 22.7448C31.2136 23.11 31.3032 23.467 31.3922 23.824C31.4356 24.0247 31.4978 24.2191 31.5777 24.4038C31.6067 24.4574 31.6297 24.5151 31.6462 24.5755C31.6775 24.7255 31.6059 24.8755 31.5752 25.0255C31.483 25.4755 31.7594 25.9758 31.5854 26.3905C31.5329 26.5165 31.4414 26.6208 31.4069 26.7558C31.3666 26.911 31.4069 27.0768 31.428 27.2373C31.4824 27.6873 31.3512 28.1448 31.222 28.5775L31.0019 29.308C30.8009 28.87 30.5981 28.4275 30.3204 28.0518C30.2212 27.9168 30.1131 27.7915 30.0216 27.649C29.8852 27.4251 29.7774 27.179 29.7017 26.9185C29.5063 26.2996 29.3947 25.6488 29.3709 24.9895C29.355 24.8021 29.3735 24.6128 29.4253 24.4345C29.4676 24.3314 29.515 24.2312 29.5673 24.1345C29.7388 23.7723 29.774 23.3433 29.7708 22.9293C29.7676 22.5153 29.7298 22.0998 29.7708 21.688C29.8042 21.3442 29.8909 21.0105 30.0267 20.7033C30.1068 20.5043 30.2259 20.3303 30.3742 20.1955C30.4848 20.0984 30.6198 20.047 30.7581 20.0493C30.9673 20.0635 30.9193 20.2743 30.9372 20.4775L31.0486 21.7893Z" fill="#2CB1BC"/>
<path d="M21.6369 20.7685C21.5064 21.2185 21.3887 21.6725 21.2837 22.1305C21.1813 22.5805 21.0898 23.033 21.0092 23.488C20.9678 23.6881 20.9447 23.8927 20.9401 24.0985C20.9483 24.3381 20.9834 24.5754 21.0444 24.8043C21.4565 26.545 22.2077 28.1508 23.0536 29.6605C23.2953 29.3072 23.5824 29 23.9046 28.75C23.9309 28.7317 23.9529 28.7059 23.9686 28.675C23.9767 28.6458 23.979 28.6149 23.9755 28.5845C23.9719 28.5541 23.9626 28.525 23.9481 28.4995C23.7145 27.9385 23.3447 27.4443 23.2282 26.8345C23.1796 26.581 23.1777 26.317 23.1227 26.065C23.0516 25.7388 22.893 25.4403 22.8565 25.1058C22.8175 24.7413 22.9205 24.3438 22.7746 24.0205C23.0721 23.8848 23.2442 23.5255 23.3703 23.1813C23.505 22.8291 23.6013 22.4584 23.6569 22.078C23.7446 21.3487 23.6228 20.606 23.3108 19.9668C23.1584 19.6479 22.9628 19.3601 22.7317 19.1148C22.6556 19.0345 22.4758 18.8043 22.3651 18.8065C22.2173 18.8103 22.1699 19.0908 22.1277 19.2168C21.9569 19.7313 21.7879 20.2465 21.6369 20.7685Z" fill="#2CB1BC"/>
<path d="M24.2872 29.1633C24.3064 29.1798 24.3282 29.2023 24.323 29.2293C24.3179 29.2563 24.2994 29.263 24.2827 29.2743C24.1962 29.3462 24.1317 29.4487 24.0985 29.5668C23.9921 29.8476 23.8994 30.1354 23.8208 30.4285C23.6776 30.177 23.5092 29.9467 23.3191 29.7423C23.1732 29.5848 23.0101 29.4355 22.932 29.2225C22.932 29.2165 23.2673 28.9263 23.298 28.8948C23.3921 28.7965 23.5104 28.5243 23.6077 28.4643C23.7177 28.3968 23.8227 28.6615 23.9065 28.768C24.0218 28.9143 24.1494 29.0468 24.2872 29.1633Z" fill="#FBBEBE"/>
<path d="M29.4905 12.9363C29.486 12.838 29.4751 12.7293 29.4111 12.6655C29.355 12.62 29.2873 12.598 29.2192 12.6033C28.8461 12.589 28.4603 12.6625 28.1084 12.5155C27.8768 12.4188 27.6791 12.2328 27.4532 12.1173C27.2273 12.0018 26.9381 11.971 26.7557 12.1653C26.6175 12.3153 26.5798 12.5455 26.5318 12.7578C26.4261 13.2262 26.238 13.6636 25.9796 14.0418C25.8062 13.9788 25.6821 13.7973 25.6021 13.6068C25.3301 12.9573 25.4639 12.1818 25.6571 11.4933C25.7211 11.2623 25.7921 11.0335 25.8631 10.8055L26.0193 10.3015C26.2242 10.2779 26.4146 10.1669 26.5542 9.9895L26.6214 10.1808C26.7949 10.1734 26.9623 10.1041 27.1013 9.982C27.155 10.1005 27.2932 10.132 27.4052 10.0938C27.5172 10.0555 27.6138 9.982 27.7251 9.94375C28.0227 9.83125 28.34 10.0045 28.6523 10.024C28.7844 10.0202 28.9166 10.0247 29.0483 10.0375C29.4169 10.1073 29.6773 10.5138 29.7899 10.9308C29.8648 11.2083 29.9269 11.5495 30.1604 11.6478C30.1655 11.7528 30.0068 11.773 29.9934 11.8728C29.9918 11.906 29.9985 11.9391 30.0126 11.968L30.2269 12.5073C30.1245 12.5374 30.0167 12.5311 29.9173 12.4893C29.8206 12.7555 29.5001 13.1395 29.4905 12.9363Z" fill="#192534"/>
<path d="M40.3527 14.11C40.4613 14.5212 40.5468 14.9404 40.6086 15.3648C40.6547 15.6828 40.6816 16.036 40.5261 16.3015C41.1186 15.2568 41.7373 14.1805 42.6376 13.5063C42.4543 13.2733 42.3148 12.9977 42.2283 12.6974C42.1417 12.3971 42.1101 12.0788 42.1353 11.7633C42.1404 11.7003 41.3963 12.0295 41.3393 12.067C41.0783 12.2373 40.839 12.4488 40.5843 12.631C40.4525 12.7248 39.9035 12.9468 39.8984 13.081C39.8984 13.1673 40.1166 13.4313 40.1575 13.522C40.2379 13.7105 40.3032 13.9074 40.3527 14.11Z" fill="#FBBEBE"/>
<path d="M43.1059 53.5135C42.9597 53.3927 42.7882 53.3206 42.6098 53.3048C42.4313 53.2889 42.2526 53.3299 42.0924 53.4235C41.8026 53.599 41.6074 53.9313 41.3438 54.1563C40.8908 54.5418 40.2925 54.5725 39.7621 54.781C39.6213 54.8365 39.4716 54.919 39.4121 55.081C39.3921 55.1491 39.3842 55.2212 39.3887 55.293C39.3932 55.3648 39.4101 55.4348 39.4383 55.4988C39.527 55.7304 39.6824 55.9181 39.8772 56.029C40.1153 56.1625 40.3891 56.1685 40.6528 56.1723L42.9434 56.2038C43.6473 56.2135 44.3556 56.2233 45.0549 56.326C45.2181 56.35 45.3947 56.3763 45.5387 56.2825C45.7729 56.1325 45.7997 55.753 45.7818 55.4403C45.7347 54.6479 45.5836 53.8687 45.3339 53.1303C45.3064 53.0485 45.2699 52.9555 45.1925 52.9405C45.1376 52.9376 45.0836 52.9578 45.0402 52.9975C44.394 53.4475 43.5756 53.7018 42.8884 53.3418" fill="white"/>
<path d="M44.2526 36.3835C43.9966 38.1258 44.1636 39.916 44.4516 41.6508C44.5046 41.9962 44.5744 42.3377 44.6608 42.6738C44.7638 43.0563 44.9027 43.4238 44.9993 43.8085C45.245 44.7835 45.2104 45.826 45.174 46.8438L45.0063 51.475C44.9922 51.8635 44.9794 52.261 45.0793 52.6315C45.1196 52.7815 45.1688 52.969 45.0671 53.0703C45.0273 53.1038 44.9808 53.1247 44.9321 53.131C44.4742 53.2299 44.0013 53.1467 43.5884 52.8947L43.543 48.2162C43.5289 46.774 43.5142 45.3258 43.3248 43.9015C43.1744 42.769 42.9134 41.6515 42.8961 40.5055C42.8782 39.3055 43.129 38.1213 43.3849 36.958C43.44 36.709 43.6409 36.5268 43.8059 36.358C43.8636 36.2914 43.9337 36.2416 44.0107 36.2125C44.0875 36.1878 44.2052 36.3078 44.2526 36.3835Z" fill="#3F3D56"/>
<path opacity="0.1" d="M44.2526 36.3835C43.9966 38.1258 44.1636 39.916 44.4516 41.6508C44.5046 41.9962 44.5744 42.3377 44.6608 42.6738C44.7638 43.0563 44.9027 43.4238 44.9993 43.8085C45.245 44.7835 45.2104 45.826 45.174 46.8438L45.0063 51.475C44.9922 51.8635 44.9794 52.261 45.0793 52.6315C45.1196 52.7815 45.1688 52.969 45.0671 53.0703C45.0273 53.1038 44.9808 53.1247 44.9321 53.131C44.4742 53.2299 44.0013 53.1467 43.5884 52.8947L43.543 48.2162C43.5289 46.774 43.5142 45.3258 43.3248 43.9015C43.1744 42.769 42.9134 41.6515 42.8961 40.5055C42.8782 39.3055 43.129 38.1213 43.3849 36.958C43.44 36.709 43.6409 36.5268 43.8059 36.358C43.8636 36.2914 43.9337 36.2416 44.0107 36.2125C44.0875 36.1878 44.2052 36.3078 44.2526 36.3835Z" fill="black"/>
<path d="M39.4479 30.9385C39.3532 31.3952 39.5541 31.8685 39.5317 32.338C39.5189 32.6222 39.4236 32.9057 39.4677 33.1847C39.5119 33.4637 39.6821 33.6737 39.7729 33.9295C39.8392 34.1431 39.8742 34.3682 39.8766 34.5955C39.9028 35.1565 39.8817 35.7205 39.8638 36.2792C39.8337 37.2167 39.8113 38.1595 39.9169 39.0887C40.0088 39.8938 40.1955 40.68 40.4717 41.425C40.5553 41.6276 40.6245 41.8381 40.6783 42.0542C40.7137 42.2556 40.7372 42.4596 40.7487 42.6647C40.8095 43.3319 40.9623 43.9832 41.2011 44.593C41.3643 45.0107 41.649 45.343 41.7392 45.7862C41.8249 46.2107 41.7674 46.6585 41.8294 47.0882C41.8749 47.407 41.9855 47.7085 42.047 48.0235C42.127 48.4307 42.125 48.853 42.1653 49.2685C42.2805 50.4685 42.7457 51.6685 42.468 52.8325C42.4123 53.0665 42.326 53.3042 42.365 53.5427C42.3842 53.6597 42.4328 53.7752 42.4111 53.8915C42.3931 53.9905 42.3279 54.067 42.2946 54.1607C42.2306 54.3362 42.2984 54.5447 42.4123 54.6805C42.5338 54.807 42.6751 54.9048 42.8282 54.9685C43.2998 55.2047 43.788 55.4447 44.2999 55.4395C44.362 55.4434 44.4241 55.43 44.481 55.4005C44.5731 55.3442 44.6185 55.222 44.6576 55.1095L44.9199 54.349C44.9519 54.2567 44.9839 54.1487 44.9398 54.0632C44.909 54.0164 44.8718 53.9758 44.8297 53.9432C44.6179 53.734 44.6659 53.3432 44.7222 53.029C44.866 52.2219 44.9457 51.4009 44.9602 50.5765C44.9884 48.9325 44.7574 47.2982 44.527 45.676C44.4471 45.1127 44.3664 44.5457 44.2071 44.0057C44.0478 43.4657 43.813 42.946 43.8514 42.385C43.8923 41.779 43.7579 41.1437 43.8514 40.546C43.9448 39.9482 44.0926 39.3632 44.1879 38.7662C44.3114 37.9915 44.3421 37.2017 44.3799 36.4157C44.3959 36.0947 44.4164 35.7632 44.5443 35.4782C44.6192 35.3117 44.728 35.1692 44.8118 35.008C45.0281 34.5887 45.0626 34.069 45.2693 33.643C45.3672 33.4412 45.5022 33.2635 45.5738 33.0475C45.6242 32.8771 45.6505 32.6983 45.6519 32.518C45.6722 32.0654 45.6507 31.6115 45.5879 31.1642C44.4987 30.5146 43.2907 30.1861 42.0687 30.2072C41.601 30.2162 41.1281 30.2717 40.6892 30.4615C40.2707 30.6437 39.8894 30.8995 39.4479 30.9385Z" fill="#3F3D56"/>
<path d="M42.0713 54.7C41.8832 54.9745 41.896 55.3667 41.7757 55.69C41.6298 56.0822 41.3048 56.3335 40.9964 56.5623L39.0768 57.9873C38.9719 58.0623 38.8593 58.1545 38.8209 58.294C38.8026 58.383 38.8059 58.4763 38.8305 58.5632C38.8763 58.7514 38.9617 58.9231 39.0789 59.0626C39.196 59.202 39.3412 59.3047 39.501 59.3613C39.6709 59.4087 39.8454 59.4296 40.02 59.4235L40.8831 59.437C41.1461 59.449 41.4094 59.437 41.6708 59.401C41.9101 59.3605 42.143 59.2803 42.381 59.2293C42.8142 59.137 43.2595 59.1453 43.6934 59.056C43.959 58.9948 44.2214 58.9154 44.4791 58.8182C44.7926 58.708 45.1119 58.5932 45.3806 58.375C45.4546 58.3222 45.5147 58.2464 45.554 58.156C45.5995 58.0323 45.5745 57.8905 45.5489 57.7592L45.1369 55.6367C45.1136 55.46 45.0587 55.291 44.9756 55.141C44.8841 54.9985 44.7197 54.904 44.577 54.9648C44.5181 54.9962 44.4625 55.0354 44.4113 55.0818C44.2001 55.2445 43.9295 55.2715 43.6799 55.2205C43.5187 55.1867 43.3056 55.135 43.1757 55.0097C43.0772 54.9145 43.0477 54.7667 42.9639 54.6587C42.9052 54.588 42.8344 54.5325 42.7561 54.496C42.6779 54.4594 42.594 54.4425 42.5098 54.4463C42.4256 54.4502 42.3431 54.4748 42.2675 54.5185C42.192 54.5622 42.1252 54.6241 42.0713 54.7Z" fill="white"/>
<path d="M40.8268 13.8175C42.1036 13.8175 43.1386 12.6043 43.1386 11.1077C43.1386 9.61119 42.1036 8.39799 40.8268 8.39799C39.55 8.39799 38.515 9.61119 38.515 11.1077C38.515 12.6043 39.55 13.8175 40.8268 13.8175Z" fill="#FBBEBE"/>
<path d="M39.0435 11.2668C39.2649 11.1213 39.2649 10.702 39.4914 10.5625C39.7179 10.423 39.9751 10.6653 40.1204 10.9098C40.3321 11.2678 40.479 11.6729 40.5523 12.1C40.5727 12.2215 40.5919 12.3543 40.67 12.439C40.748 12.5238 40.8504 12.5343 40.9502 12.5463C41.2424 12.5803 41.5351 12.6113 41.8281 12.6393C42.1545 12.67 42.4987 12.6948 42.7949 12.5305C42.9119 12.4692 43.0123 12.3717 43.0854 12.2485C43.1441 12.1302 43.186 12.0015 43.2096 11.8675C43.3625 11.1858 43.5167 10.4958 43.5295 9.79075C43.5346 9.49975 43.5129 9.19825 43.3932 8.94325C43.3235 8.79325 43.2211 8.66275 43.1923 8.49775C43.1635 8.33275 43.2563 8.12275 43.4022 8.14075C43.2703 8.14711 43.1389 8.11786 43.0183 8.05525C42.9024 7.98025 42.8167 7.819 42.8576 7.672C42.5326 7.72075 42.2959 7.34425 42.0425 7.1005C42.0013 7.05262 41.9456 7.02568 41.8876 7.0255C41.8431 7.03852 41.8001 7.05792 41.7597 7.08325C41.6317 7.13575 41.498 7.036 41.3668 6.9925C41.0149 6.877 40.5676 7.156 40.3066 6.856C40.3315 7.04725 40.1312 7.1755 39.9661 7.17175C39.8011 7.168 39.6309 7.09675 39.4747 7.16125C39.4974 7.20973 39.5106 7.26346 39.5134 7.31861C39.5162 7.37376 39.5086 7.42896 39.4911 7.48027C39.4737 7.53158 39.4467 7.57772 39.4122 7.61541C39.3778 7.65309 39.3366 7.68138 39.2917 7.69825L39.3692 7.89625C39.2894 7.91494 39.2157 7.9594 39.1563 8.0246C39.097 8.08981 39.0543 8.17316 39.0332 8.26525C38.9481 8.659 38.9693 9.2185 38.9897 9.6235C39 9.80125 39.1478 11.2 39.0435 11.2668Z" fill="#192534"/>
<path d="M41.0162 14.6005C39.8548 16.1313 39.5592 18.286 39.3116 20.3148L38.9469 23.3103C38.8522 24.0873 38.7549 24.8643 38.6724 25.6435C38.6148 26.1768 38.5611 26.7183 38.6238 27.2508C38.673 27.6708 38.7927 28.0758 38.8925 28.48C39.1522 29.5403 39.2815 30.6386 39.2764 31.7418C39.3538 31.4748 39.6219 31.3668 39.8574 31.3068C41.8331 30.8043 43.8944 31.0623 45.7351 32.0425C46.0582 30.9813 45.9974 29.8203 46.0877 28.6983C46.2156 27.0985 46.6565 25.5483 46.787 23.9515C46.835 23.3568 46.8408 22.759 46.8459 22.1613C46.8497 21.7225 46.8536 21.2793 46.7755 20.8495C46.6885 20.374 46.5048 19.9308 46.3148 19.4995C45.7895 18.3007 45.2058 17.1383 44.5667 16.018C44.2451 15.454 43.9096 14.9013 43.5602 14.3598C43.3832 14.0853 43.2025 13.8138 43.0183 13.5453C42.8398 13.285 42.7623 13.0593 42.4789 13.2153C41.9433 13.5093 41.4058 14.0868 41.0162 14.6005Z" fill="white"/>
<path d="M41.6816 27.3415C41.3983 27.3535 41.1147 27.343 40.8326 27.31C40.6233 27.286 40.4096 27.25 40.2055 27.31C40.1168 27.3362 40.0337 27.384 39.9617 27.4503C39.9351 27.4781 39.9159 27.5144 39.9066 27.5548C39.8972 27.5952 39.8982 27.6379 39.9092 27.6777C39.9203 27.7175 39.941 27.7527 39.9689 27.7789C39.9967 27.8051 40.0305 27.8212 40.066 27.8253L40.2848 27.8478C40.4237 27.862 40.5683 27.8785 40.6764 27.9978C40.7208 28.0446 40.7491 28.1089 40.7558 28.1785C40.7692 28.3533 40.64 28.4485 40.5242 28.5213C40.3595 28.6119 40.2073 28.7307 40.0724 28.8738C39.9668 28.9933 39.9005 29.1526 39.8849 29.3238C39.8844 29.339 39.8874 29.3541 39.8935 29.3676C39.8995 29.3811 39.9086 29.3925 39.9196 29.4007C39.9306 29.4088 39.9432 29.4134 39.9563 29.414C39.9693 29.4146 39.9822 29.4111 39.9937 29.404C40.2497 29.254 40.4167 28.8093 40.6976 28.8835C40.4421 28.9783 40.2232 29.1756 40.0795 29.4408C40.044 29.5041 40.0278 29.5796 40.0335 29.655C40.0393 29.7304 40.0666 29.8014 40.111 29.8563C40.1555 29.9113 40.2145 29.947 40.2784 29.9578C40.3424 29.9685 40.4075 29.9536 40.4634 29.9155C40.505 29.887 40.5451 29.8557 40.5837 29.8218C40.774 29.6412 40.9444 29.4336 41.0911 29.2038C40.8863 29.71 40.679 30.3025 40.9145 30.8058C40.9262 30.8334 40.9445 30.8565 40.9673 30.8722C40.99 30.888 41.0161 30.8956 41.0424 30.8943C41.1167 30.8853 41.1384 30.8035 41.1506 30.7315C41.189 30.4998 41.1986 30.2553 41.2958 30.049C41.521 29.5705 42.0764 29.524 42.4994 29.2908C43.0068 29.0148 43.3542 28.4208 43.4944 27.7863C43.5434 27.6012 43.552 27.4047 43.5193 27.2148C43.4253 26.788 42.9761 26.6898 42.6875 26.896C42.3337 27.1593 42.1283 27.325 41.6816 27.3415Z" fill="#FBBEBE"/>
<path opacity="0.1" d="M41.2324 18.9468C41.6803 19.7575 42.4577 20.2143 43.1245 20.7835C43.2871 20.9077 43.429 21.0658 43.5429 21.25C43.7112 21.5545 43.7349 21.9415 43.7003 22.3C43.6568 22.7733 43.5269 23.2285 43.3983 23.68L43.1187 24.6588C42.9415 25.2798 42.7585 25.9135 42.4213 26.4355C42.3349 26.5683 42.2344 26.71 42.2383 26.8765C42.2457 26.9727 42.2739 27.0651 42.3202 27.145C42.4281 27.3514 42.5703 27.5303 42.7384 27.671C42.9064 27.8117 43.0969 27.9113 43.2985 27.964C43.4192 28 43.5457 28 43.6664 27.964C43.8392 27.904 43.9691 27.739 44.0894 27.583C44.6652 26.8383 45.2411 26.083 45.657 25.2093C46.0633 24.3565 46.3065 23.4093 46.5304 22.471C46.6226 22.1256 46.6869 21.7708 46.7224 21.4113C46.7697 20.7363 46.6187 20.0613 46.3717 19.4515C46.1247 18.8418 45.785 18.2898 45.435 17.7535C45.1047 17.2268 44.7376 16.7331 44.3376 16.2775C43.6415 15.5148 42.7898 15.0663 41.8582 15.499C41.2004 15.805 40.9541 16.4433 40.8952 17.2608C40.8454 17.851 40.964 18.444 41.2324 18.9468Z" fill="black"/>
<path d="M41.4654 18.7412C41.9133 19.552 42.6913 20.0087 43.3574 20.578C43.5195 20.7034 43.6607 20.8625 43.774 21.0475C43.9422 21.352 43.9659 21.7382 43.9314 22.0975C43.8872 22.5707 43.758 23.026 43.6287 23.4775L43.3491 24.4525C43.1718 25.0735 42.9889 25.7065 42.6516 26.2292C42.5659 26.362 42.4654 26.503 42.4693 26.6702C42.4763 26.7663 42.5046 26.8586 42.5512 26.938C42.6589 27.1445 42.801 27.3235 42.969 27.4643C43.137 27.6051 43.3274 27.7049 43.5289 27.7577C43.6498 27.7937 43.7765 27.7937 43.8974 27.7577C44.0702 27.6985 44.1995 27.5327 44.3204 27.3775C44.8963 26.632 45.4721 25.8775 45.888 25.0037C46.2943 24.151 46.5375 23.2037 46.7614 22.2647C46.8539 21.9197 46.9182 21.5651 46.9534 21.2057C47.0007 20.5307 46.8497 19.8557 46.6034 19.2452C46.357 18.6347 46.0166 18.0835 45.6666 17.5472C45.3352 17.0233 44.9673 16.5323 44.5667 16.0795C43.8712 15.3175 43.0196 14.8682 42.0879 15.3017C41.4295 15.6077 41.1838 16.2452 41.1243 17.0635C41.0774 17.6515 41.1972 18.2412 41.4654 18.7412Z" fill="white"/>
<path d="M55.6138 45.643C55.6143 45.8386 55.5971 46.0337 55.5626 46.225C55.5562 46.261 55.5492 46.3 55.5422 46.3308C55.3604 47.185 54.8479 47.8098 54.2362 47.8495C54.2157 47.8495 54.1953 47.8495 54.1722 47.8495C53.5253 47.8495 52.9783 47.1955 52.7978 46.2948C52.7927 46.2708 52.7882 46.2468 52.7837 46.2198C52.7492 46.0284 52.7321 45.8333 52.7326 45.6378C52.7326 44.4175 53.3769 43.429 54.1722 43.429C54.9676 43.429 55.6138 44.425 55.6138 45.643Z" fill="#2CB1BC"/>
<path opacity="0.1" d="M55.6138 45.643C55.6143 45.8386 55.5971 46.0337 55.5626 46.225C55.5562 46.261 55.5492 46.3 55.5421 46.3308C55.5204 46.3308 55.4993 46.3308 55.4781 46.3308C55.3197 46.3207 55.1622 46.2957 55.0072 46.2558C54.8699 46.3055 54.7296 46.3431 54.5875 46.3683C54.4785 46.3875 54.3687 46.3995 54.2586 46.4043H54.1472C54.0154 46.4043 53.8838 46.394 53.7531 46.3735C53.5418 46.3404 53.3343 46.2801 53.1344 46.1935C53.0249 46.2362 52.9134 46.2713 52.8004 46.2985C52.7952 46.2745 52.7908 46.2505 52.7863 46.2235C52.7518 46.0322 52.7346 45.8371 52.7351 45.6415C52.7351 44.4213 53.3794 43.4328 54.1748 43.4328C54.9701 43.4328 55.6138 44.425 55.6138 45.643Z" fill="black"/>
<path d="M58.6851 41.5285C58.6857 40.9915 58.5783 40.4619 58.3716 39.9827L56.6785 40.6L58.1649 39.5755C57.9155 39.1535 57.5886 38.8024 57.2081 38.5483C56.8275 38.2941 56.4032 38.1433 55.9663 38.107C55.8968 37.9833 55.8205 37.8651 55.7379 37.753L53.3065 38.6402L55.3009 37.2655C54.9194 36.9223 54.4716 36.6946 53.9971 36.6026C53.5226 36.5105 53.0361 36.557 52.5806 36.7379C52.1251 36.9187 51.7147 37.2284 51.3856 37.6395C51.0565 38.0506 50.819 38.5504 50.694 39.0947L52.7767 41.905L50.5174 39.9895C49.945 40.4653 49.5376 41.1663 49.3693 41.9647C49.201 42.7631 49.283 43.6059 49.6003 44.3394C49.9177 45.0729 50.4494 45.6483 51.0984 45.9608C51.7474 46.2733 52.4706 46.3021 53.1363 46.042C53.7384 46.3014 54.3964 46.3228 55.0098 46.1027C55.4374 46.2131 55.8807 46.2096 56.3071 46.0926C56.7334 45.9756 57.1319 45.7481 57.4734 45.4268C57.8148 45.1054 58.0904 44.6984 58.28 44.2358C58.4695 43.7731 58.5682 43.2665 58.5686 42.7532C58.5686 42.6782 58.5686 42.6032 58.5622 42.5282C58.6451 42.204 58.6866 41.867 58.6851 41.5285Z" fill="white"/>
<path opacity="0.1" d="M58.6345 42.1645C57.7404 41.9659 56.8236 41.9522 55.9254 42.124C54.9087 42.3213 53.8695 42.7548 52.8752 42.4383C52.2917 42.2523 51.7875 41.8218 51.2174 41.5825C50.6673 41.3576 50.0748 41.316 49.5057 41.4625C49.2889 42.0705 49.226 42.7389 49.3246 43.3877C49.4231 44.0365 49.6789 44.6383 50.0615 45.1212C50.444 45.6042 50.9371 45.9478 51.4817 46.1111C52.0264 46.2744 52.5997 46.2504 53.1331 46.042C53.7352 46.3014 54.3932 46.3228 55.0066 46.1028C55.4342 46.2131 55.8775 46.2096 56.3039 46.0926C56.7302 45.9757 57.1288 45.7481 57.4702 45.4268C57.8116 45.1054 58.0872 44.6985 58.2768 44.2358C58.4663 43.7731 58.565 43.2665 58.5654 42.7533C58.5654 42.6783 58.5654 42.6033 58.559 42.5283C58.5899 42.4087 58.6151 42.2873 58.6345 42.1645Z" fill="black"/>
</g>
</g>
<defs>
<clipPath id="clip0_1_37">
<rect width="500" height="65" fill="white"/>
</clipPath>
<clipPath id="clip1_1_37">
<rect width="70" height="57" fill="white" transform="translate(4 4)"/>
</clipPath>
</defs>
</svg>
